<?xml version="1.0" encoding="UTF-8"?>
<svg xmlns="http://www.w3.org/2000/svg" version="1.1" width="300" height="300" viewBox="0 0 300 300"><rect x="0" y="0" width="300" height="300" fill="#ffffff"/><g transform="scale(7.317)"><g transform="translate(0,0)"><path fill-rule="evenodd" d="M10 0L10 1L8 1L8 2L9 2L9 5L8 5L8 8L4 8L4 9L2 9L2 11L3 11L3 10L5 10L5 11L7 11L7 12L3 12L3 14L2 14L2 12L1 12L1 13L0 13L0 14L2 14L2 15L1 15L1 16L0 16L0 17L1 17L1 16L2 16L2 18L0 18L0 23L1 23L1 25L2 25L2 23L3 23L3 21L5 21L5 22L4 22L4 23L7 23L7 24L6 24L6 25L7 25L7 26L6 26L6 27L5 27L5 26L3 26L3 28L6 28L6 29L7 29L7 30L6 30L6 31L5 31L5 32L4 32L4 31L3 31L3 30L5 30L5 29L2 29L2 26L1 26L1 29L0 29L0 30L1 30L1 29L2 29L2 32L0 32L0 33L3 33L3 32L4 32L4 33L7 33L7 32L8 32L8 31L9 31L9 33L8 33L8 37L9 37L9 39L13 39L13 40L15 40L15 39L16 39L16 38L14 38L14 39L13 39L13 38L11 38L11 37L10 37L10 36L11 36L11 31L13 31L13 33L12 33L12 34L13 34L13 33L14 33L14 34L15 34L15 37L17 37L17 39L18 39L18 41L21 41L21 39L19 39L19 37L18 37L18 36L20 36L20 38L21 38L21 37L22 37L22 35L21 35L21 33L20 33L20 31L21 31L21 32L22 32L22 34L24 34L24 35L25 35L25 34L26 34L26 37L27 37L27 38L24 38L24 37L23 37L23 38L22 38L22 40L24 40L24 39L25 39L25 40L26 40L26 39L27 39L27 41L28 41L28 37L27 37L27 35L28 35L28 36L30 36L30 38L29 38L29 41L30 41L30 40L31 40L31 41L33 41L33 40L35 40L35 41L37 41L37 40L36 40L36 39L34 39L34 38L33 38L33 37L35 37L35 38L36 38L36 37L38 37L38 33L37 33L37 31L36 31L36 30L38 30L38 31L39 31L39 32L40 32L40 31L41 31L41 28L40 28L40 27L41 27L41 26L40 26L40 27L39 27L39 28L40 28L40 31L39 31L39 30L38 30L38 29L36 29L36 28L38 28L38 27L36 27L36 26L37 26L37 25L38 25L38 26L39 26L39 25L40 25L40 24L39 24L39 25L38 25L38 24L37 24L37 25L35 25L35 26L32 26L32 27L31 27L31 28L32 28L32 30L35 30L35 32L33 32L33 31L32 31L32 32L31 32L31 29L30 29L30 27L29 27L29 25L30 25L30 26L31 26L31 25L30 25L30 24L32 24L32 25L34 25L34 24L33 24L33 22L35 22L35 24L36 24L36 22L37 22L37 23L38 23L38 22L39 22L39 21L38 21L38 19L39 19L39 18L40 18L40 19L41 19L41 16L39 16L39 17L38 17L38 19L37 19L37 21L36 21L36 18L37 18L37 17L36 17L36 14L37 14L37 13L36 13L36 12L35 12L35 9L36 9L36 10L38 10L38 9L36 9L36 8L34 8L34 10L33 10L33 11L32 11L32 13L31 13L31 14L30 14L30 15L28 15L28 14L26 14L26 13L30 13L30 12L31 12L31 11L30 11L30 10L31 10L31 9L33 9L33 5L31 5L31 3L30 3L30 1L31 1L31 2L32 2L32 0L30 0L30 1L29 1L29 0L28 0L28 2L27 2L27 3L26 3L26 2L25 2L25 0L24 0L24 3L23 3L23 6L22 6L22 3L21 3L21 2L23 2L23 1L22 1L22 0L16 0L16 1L15 1L15 0L13 0L13 3L15 3L15 4L14 4L14 5L13 5L13 4L12 4L12 3L11 3L11 2L10 2L10 1L12 1L12 0ZM14 1L14 2L15 2L15 1ZM17 1L17 3L16 3L16 4L19 4L19 5L18 5L18 6L17 6L17 5L16 5L16 6L15 6L15 5L14 5L14 6L13 6L13 8L12 8L12 6L11 6L11 5L12 5L12 4L11 4L11 3L10 3L10 6L9 6L9 7L10 7L10 6L11 6L11 9L13 9L13 10L11 10L11 12L12 12L12 11L13 11L13 13L12 13L12 14L15 14L15 15L16 15L16 17L17 17L17 18L14 18L14 21L13 21L13 17L12 17L12 16L14 16L14 15L11 15L11 14L10 14L10 15L9 15L9 13L8 13L8 12L7 12L7 13L5 13L5 14L3 14L3 15L2 15L2 16L3 16L3 18L4 18L4 17L5 17L5 19L3 19L3 20L1 20L1 21L3 21L3 20L5 20L5 21L6 21L6 22L7 22L7 23L8 23L8 24L7 24L7 25L8 25L8 24L9 24L9 25L11 25L11 24L12 24L12 26L13 26L13 27L15 27L15 28L16 28L16 29L14 29L14 28L12 28L12 29L13 29L13 31L14 31L14 30L16 30L16 31L15 31L15 32L14 32L14 33L16 33L16 31L18 31L18 32L17 32L17 34L16 34L16 35L18 35L18 34L19 34L19 35L20 35L20 33L18 33L18 32L19 32L19 27L21 27L21 28L20 28L20 29L21 29L21 31L22 31L22 32L24 32L24 34L25 34L25 32L29 32L29 31L28 31L28 29L29 29L29 27L28 27L28 29L27 29L27 31L24 31L24 29L23 29L23 28L25 28L25 29L26 29L26 28L27 28L27 27L26 27L26 28L25 28L25 27L24 27L24 26L23 26L23 28L22 28L22 27L21 27L21 24L22 24L22 22L25 22L25 25L26 25L26 26L27 26L27 25L26 25L26 24L28 24L28 25L29 25L29 23L32 23L32 22L33 22L33 21L35 21L35 22L36 22L36 21L35 21L35 20L33 20L33 19L32 19L32 18L34 18L34 17L35 17L35 18L36 18L36 17L35 17L35 14L36 14L36 13L35 13L35 12L33 12L33 13L32 13L32 14L31 14L31 17L32 17L32 18L31 18L31 19L32 19L32 20L33 20L33 21L29 21L29 22L28 22L28 23L26 23L26 22L27 22L27 21L28 21L28 20L29 20L29 19L30 19L30 18L29 18L29 16L27 16L27 17L26 17L26 14L25 14L25 13L26 13L26 12L27 12L27 10L26 10L26 9L29 9L29 10L30 10L30 9L31 9L31 8L30 8L30 9L29 9L29 8L27 8L27 7L28 7L28 6L29 6L29 7L30 7L30 6L31 6L31 7L32 7L32 6L31 6L31 5L30 5L30 6L29 6L29 5L26 5L26 3L25 3L25 5L24 5L24 6L23 6L23 7L22 7L22 6L21 6L21 3L18 3L18 1ZM20 1L20 2L21 2L21 1ZM28 2L28 3L27 3L27 4L29 4L29 2ZM19 5L19 6L18 6L18 7L19 7L19 8L18 8L18 9L15 9L15 10L14 10L14 13L15 13L15 14L16 14L16 13L15 13L15 11L16 11L16 12L17 12L17 14L18 14L18 12L19 12L19 13L20 13L20 14L19 14L19 15L20 15L20 16L19 16L19 17L18 17L18 18L17 18L17 20L18 20L18 21L19 21L19 22L18 22L18 23L17 23L17 21L16 21L16 23L15 23L15 21L14 21L14 25L17 25L17 24L18 24L18 25L19 25L19 26L20 26L20 24L19 24L19 23L20 23L20 22L22 22L22 21L19 21L19 20L22 20L22 19L23 19L23 18L21 18L21 19L19 19L19 20L18 20L18 18L19 18L19 17L20 17L20 16L21 16L21 17L24 17L24 19L25 19L25 21L26 21L26 19L29 19L29 18L28 18L28 17L27 17L27 18L25 18L25 16L24 16L24 15L22 15L22 14L24 14L24 13L25 13L25 12L26 12L26 11L22 11L22 10L21 10L21 9L20 9L20 10L19 10L19 11L18 11L18 12L17 12L17 11L16 11L16 10L18 10L18 9L19 9L19 8L21 8L21 6L20 6L20 5ZM25 5L25 6L24 6L24 8L22 8L22 9L26 9L26 7L27 7L27 6L26 6L26 5ZM14 6L14 7L15 7L15 6ZM16 6L16 8L17 8L17 6ZM19 6L19 7L20 7L20 6ZM25 6L25 7L26 7L26 6ZM8 8L8 9L5 9L5 10L7 10L7 11L10 11L10 10L8 10L8 9L9 9L9 8ZM39 8L39 13L38 13L38 14L39 14L39 13L40 13L40 15L41 15L41 12L40 12L40 11L41 11L41 9L40 9L40 8ZM0 9L0 11L1 11L1 9ZM20 10L20 11L19 11L19 12L20 12L20 13L21 13L21 10ZM37 11L37 12L38 12L38 11ZM22 12L22 13L24 13L24 12ZM7 13L7 14L6 14L6 15L3 15L3 16L6 16L6 17L7 17L7 18L6 18L6 19L7 19L7 20L6 20L6 21L9 21L9 24L10 24L10 22L11 22L11 23L12 23L12 24L13 24L13 23L12 23L12 21L9 21L9 20L8 20L8 18L9 18L9 19L11 19L11 20L12 20L12 19L11 19L11 18L12 18L12 17L11 17L11 15L10 15L10 17L8 17L8 16L9 16L9 15L8 15L8 16L6 16L6 15L7 15L7 14L8 14L8 13ZM33 13L33 14L32 14L32 17L33 17L33 16L34 16L34 14L35 14L35 13ZM17 15L17 16L18 16L18 15ZM40 21L40 23L41 23L41 21ZM4 24L4 25L5 25L5 24ZM7 26L7 27L6 27L6 28L7 28L7 29L8 29L8 30L9 30L9 31L11 31L11 29L10 29L10 27L11 27L11 26L10 26L10 27L9 27L9 26ZM15 26L15 27L16 27L16 28L17 28L17 29L16 29L16 30L17 30L17 29L18 29L18 28L17 28L17 27L16 27L16 26ZM7 27L7 28L9 28L9 27ZM35 27L35 28L33 28L33 29L35 29L35 30L36 30L36 29L35 29L35 28L36 28L36 27ZM21 28L21 29L22 29L22 28ZM22 30L22 31L23 31L23 30ZM6 31L6 32L7 32L7 31ZM28 33L28 34L31 34L31 35L32 35L32 34L31 34L31 33ZM33 33L33 36L36 36L36 33ZM39 33L39 34L40 34L40 35L41 35L41 33ZM34 34L34 35L35 35L35 34ZM13 35L13 37L14 37L14 35ZM39 36L39 41L40 41L40 40L41 40L41 36ZM23 38L23 39L24 39L24 38ZM30 38L30 39L31 39L31 40L32 40L32 39L33 39L33 38L32 38L32 39L31 39L31 38ZM37 38L37 39L38 39L38 38ZM11 40L11 41L12 41L12 40ZM16 40L16 41L17 41L17 40ZM0 0L0 7L7 7L7 0ZM1 1L1 6L6 6L6 1ZM2 2L2 5L5 5L5 2ZM34 0L34 7L41 7L41 0ZM35 1L35 6L40 6L40 1ZM36 2L36 5L39 5L39 2ZM0 34L0 41L7 41L7 34ZM1 35L1 40L6 40L6 35ZM2 36L2 39L5 39L5 36Z" fill="#000000"/></g></g></svg>
