<?xml version="1.0" encoding="UTF-8"?>
<svg xmlns="http://www.w3.org/2000/svg" version="1.1" width="300" height="300" viewBox="0 0 300 300"><rect x="0" y="0" width="300" height="300" fill="#ffffff"/><g transform="scale(7.317)"><g transform="translate(0,0)"><path fill-rule="evenodd" d="M9 0L9 3L10 3L10 4L8 4L8 5L9 5L9 6L8 6L8 8L6 8L6 9L7 9L7 10L6 10L6 11L7 11L7 10L8 10L8 12L6 12L6 13L8 13L8 12L9 12L9 11L10 11L10 13L9 13L9 14L11 14L11 13L13 13L13 14L12 14L12 16L10 16L10 17L11 17L11 18L10 18L10 19L11 19L11 20L12 20L12 21L11 21L11 22L10 22L10 23L11 23L11 25L10 25L10 24L9 24L9 25L8 25L8 26L6 26L6 25L7 25L7 24L8 24L8 23L9 23L9 21L10 21L10 20L9 20L9 19L8 19L8 17L7 17L7 16L5 16L5 17L7 17L7 18L5 18L5 19L4 19L4 18L1 18L1 17L3 17L3 16L4 16L4 14L5 14L5 15L8 15L8 16L9 16L9 15L8 15L8 14L5 14L5 10L3 10L3 12L2 12L2 13L3 13L3 14L1 14L1 15L0 15L0 16L1 16L1 17L0 17L0 18L1 18L1 19L0 19L0 20L2 20L2 22L1 22L1 21L0 21L0 23L2 23L2 22L3 22L3 20L5 20L5 19L7 19L7 20L6 20L6 21L5 21L5 24L2 24L2 25L1 25L1 26L2 26L2 25L4 25L4 27L3 27L3 28L4 28L4 29L3 29L3 30L2 30L2 27L1 27L1 30L0 30L0 31L1 31L1 30L2 30L2 31L3 31L3 30L4 30L4 32L5 32L5 33L7 33L7 32L8 32L8 35L9 35L9 37L8 37L8 39L9 39L9 38L10 38L10 40L12 40L12 41L14 41L14 40L15 40L15 36L14 36L14 35L13 35L13 36L14 36L14 37L11 37L11 36L12 36L12 35L10 35L10 34L11 34L11 33L10 33L10 32L9 32L9 29L8 29L8 28L9 28L9 27L8 27L8 26L11 26L11 25L12 25L12 27L13 27L13 29L11 29L11 28L10 28L10 31L11 31L11 32L12 32L12 34L13 34L13 33L15 33L15 32L14 32L14 31L15 31L15 30L17 30L17 31L16 31L16 32L18 32L18 31L19 31L19 28L21 28L21 29L20 29L20 31L21 31L21 29L22 29L22 30L23 30L23 29L22 29L22 28L21 28L21 27L20 27L20 26L19 26L19 24L20 24L20 25L21 25L21 26L22 26L22 27L23 27L23 28L25 28L25 29L24 29L24 31L26 31L26 32L23 32L23 31L22 31L22 32L23 32L23 33L22 33L22 34L21 34L21 35L20 35L20 36L19 36L19 35L18 35L18 33L16 33L16 37L18 37L18 36L19 36L19 38L18 38L18 39L16 39L16 41L18 41L18 39L19 39L19 40L20 40L20 41L21 41L21 39L24 39L24 40L23 40L23 41L26 41L26 39L27 39L27 41L28 41L28 40L29 40L29 39L27 39L27 38L28 38L28 36L29 36L29 35L26 35L26 34L24 34L24 33L26 33L26 32L27 32L27 33L28 33L28 32L29 32L29 33L30 33L30 32L31 32L31 33L32 33L32 38L33 38L33 37L36 37L36 38L35 38L35 39L36 39L36 40L37 40L37 41L38 41L38 40L37 40L37 39L36 39L36 38L38 38L38 37L39 37L39 38L40 38L40 39L39 39L39 41L40 41L40 39L41 39L41 36L40 36L40 34L41 34L41 31L40 31L40 34L39 34L39 29L38 29L38 26L39 26L39 27L40 27L40 28L41 28L41 26L40 26L40 25L39 25L39 24L40 24L40 22L41 22L41 19L39 19L39 18L40 18L40 17L41 17L41 13L40 13L40 14L39 14L39 12L37 12L37 15L36 15L36 17L38 17L38 16L37 16L37 15L38 15L38 14L39 14L39 15L40 15L40 16L39 16L39 18L38 18L38 19L37 19L37 18L36 18L36 19L35 19L35 20L34 20L34 22L33 22L33 21L32 21L32 20L33 20L33 19L34 19L34 18L33 18L33 16L35 16L35 15L33 15L33 14L36 14L36 11L34 11L34 12L33 12L33 10L35 10L35 8L33 8L33 9L32 9L32 7L33 7L33 6L32 6L32 4L31 4L31 5L29 5L29 3L28 3L28 4L27 4L27 3L26 3L26 4L25 4L25 5L23 5L23 3L25 3L25 2L26 2L26 1L28 1L28 2L29 2L29 0L24 0L24 1L22 1L22 2L20 2L20 3L21 3L21 5L20 5L20 4L18 4L18 3L19 3L19 0L15 0L15 2L14 2L14 1L12 1L12 0ZM30 0L30 2L31 2L31 3L32 3L32 2L31 2L31 0ZM32 0L32 1L33 1L33 0ZM17 1L17 2L18 2L18 1ZM24 1L24 2L25 2L25 1ZM10 2L10 3L11 3L11 4L10 4L10 5L11 5L11 4L12 4L12 6L11 6L11 7L10 7L10 6L9 6L9 8L10 8L10 9L8 9L8 10L10 10L10 11L16 11L16 8L17 8L17 9L18 9L18 10L17 10L17 11L19 11L19 9L20 9L20 10L21 10L21 11L20 11L20 12L18 12L18 13L16 13L16 14L15 14L15 12L14 12L14 14L13 14L13 16L12 16L12 17L14 17L14 18L13 18L13 19L12 19L12 20L13 20L13 21L12 21L12 23L15 23L15 24L14 24L14 27L15 27L15 28L17 28L17 30L18 30L18 28L17 28L17 25L18 25L18 21L19 21L19 22L22 22L22 23L23 23L23 24L24 24L24 23L23 23L23 22L25 22L25 23L26 23L26 25L23 25L23 26L25 26L25 27L26 27L26 28L27 28L27 27L28 27L28 26L27 26L27 25L29 25L29 24L30 24L30 27L29 27L29 28L28 28L28 29L26 29L26 30L27 30L27 31L31 31L31 32L32 32L32 30L33 30L33 31L34 31L34 30L35 30L35 31L36 31L36 30L37 30L37 34L38 34L38 30L37 30L37 29L36 29L36 28L37 28L37 25L38 25L38 24L39 24L39 21L40 21L40 20L39 20L39 21L37 21L37 22L36 22L36 21L35 21L35 22L36 22L36 23L34 23L34 24L32 24L32 23L33 23L33 22L31 22L31 20L30 20L30 21L29 21L29 20L26 20L26 21L27 21L27 22L25 22L25 21L24 21L24 20L25 20L25 16L26 16L26 15L25 15L25 16L23 16L23 15L24 15L24 14L27 14L27 15L28 15L28 16L27 16L27 17L30 17L30 19L32 19L32 18L31 18L31 16L32 16L32 15L29 15L29 13L28 13L28 11L29 11L29 12L30 12L30 13L31 13L31 14L33 14L33 12L32 12L32 13L31 13L31 12L30 12L30 11L32 11L32 10L30 10L30 9L29 9L29 10L28 10L28 8L29 8L29 7L30 7L30 6L29 6L29 7L28 7L28 5L27 5L27 9L26 9L26 10L25 10L25 8L24 8L24 6L23 6L23 8L21 8L21 7L22 7L22 6L21 6L21 7L20 7L20 6L19 6L19 7L18 7L18 6L17 6L17 7L16 7L16 6L15 6L15 7L16 7L16 8L15 8L15 10L10 10L10 9L12 9L12 6L13 6L13 9L14 9L14 6L13 6L13 4L12 4L12 3L13 3L13 2L12 2L12 3L11 3L11 2ZM15 2L15 3L14 3L14 4L15 4L15 3L16 3L16 2ZM17 4L17 5L18 5L18 4ZM25 6L25 7L26 7L26 6ZM31 6L31 7L32 7L32 6ZM19 7L19 8L20 8L20 9L21 9L21 10L22 10L22 12L23 12L23 10L22 10L22 9L21 9L21 8L20 8L20 7ZM2 8L2 9L0 9L0 10L1 10L1 11L2 11L2 9L4 9L4 8ZM23 8L23 9L24 9L24 8ZM36 8L36 10L37 10L37 8ZM38 9L38 11L40 11L40 12L41 12L41 11L40 11L40 9ZM26 10L26 11L27 11L27 10ZM29 10L29 11L30 11L30 10ZM24 11L24 12L25 12L25 13L26 13L26 12L25 12L25 11ZM0 12L0 13L1 13L1 12ZM3 12L3 13L4 13L4 12ZM34 12L34 13L35 13L35 12ZM18 13L18 14L16 14L16 15L15 15L15 14L14 14L14 17L15 17L15 18L16 18L16 19L15 19L15 20L14 20L14 21L13 21L13 22L14 22L14 21L15 21L15 23L16 23L16 25L17 25L17 23L16 23L16 22L17 22L17 19L19 19L19 20L20 20L20 21L21 21L21 20L23 20L23 19L24 19L24 18L23 18L23 16L22 16L22 15L21 15L21 14L23 14L23 13L20 13L20 15L21 15L21 17L20 17L20 16L19 16L19 15L18 15L18 14L19 14L19 13ZM2 15L2 16L3 16L3 15ZM17 15L17 16L15 16L15 17L16 17L16 18L17 18L17 16L18 16L18 15ZM18 17L18 18L19 18L19 19L20 19L20 20L21 20L21 19L22 19L22 18L20 18L20 17ZM26 18L26 19L27 19L27 18ZM28 18L28 19L29 19L29 18ZM2 19L2 20L3 20L3 19ZM36 19L36 20L37 20L37 19ZM8 20L8 21L9 21L9 20ZM15 20L15 21L16 21L16 20ZM6 21L6 22L7 22L7 21ZM28 21L28 23L27 23L27 24L28 24L28 23L29 23L29 21ZM37 22L37 24L38 24L38 22ZM6 23L6 24L5 24L5 25L6 25L6 24L7 24L7 23ZM20 23L20 24L21 24L21 25L22 25L22 24L21 24L21 23ZM30 23L30 24L31 24L31 27L30 27L30 29L29 29L29 30L30 30L30 29L33 29L33 30L34 30L34 29L33 29L33 28L34 28L34 27L35 27L35 28L36 28L36 27L35 27L35 26L34 26L34 27L33 27L33 26L32 26L32 24L31 24L31 23ZM12 24L12 25L13 25L13 24ZM18 26L18 27L19 27L19 26ZM26 26L26 27L27 27L27 26ZM4 27L4 28L5 28L5 29L4 29L4 30L7 30L7 29L6 29L6 28L7 28L7 27L6 27L6 28L5 28L5 27ZM13 29L13 30L11 30L11 31L12 31L12 32L13 32L13 31L14 31L14 29ZM6 31L6 32L7 32L7 31ZM1 32L1 33L2 33L2 32ZM19 32L19 34L20 34L20 33L21 33L21 32ZM33 33L33 36L36 36L36 33ZM23 34L23 35L24 35L24 36L23 36L23 38L24 38L24 37L25 37L25 36L26 36L26 35L24 35L24 34ZM30 34L30 35L31 35L31 34ZM34 34L34 35L35 35L35 34ZM17 35L17 36L18 36L18 35ZM37 35L37 37L38 37L38 36L39 36L39 37L40 37L40 36L39 36L39 35ZM20 36L20 37L21 37L21 38L20 38L20 39L21 39L21 38L22 38L22 37L21 37L21 36ZM30 36L30 37L29 37L29 38L30 38L30 37L31 37L31 36ZM26 37L26 38L25 38L25 39L26 39L26 38L27 38L27 37ZM11 38L11 39L12 39L12 38ZM32 39L32 41L33 41L33 40L34 40L34 39ZM30 40L30 41L31 41L31 40ZM0 0L0 7L7 7L7 0ZM1 1L1 6L6 6L6 1ZM2 2L2 5L5 5L5 2ZM34 0L34 7L41 7L41 0ZM35 1L35 6L40 6L40 1ZM36 2L36 5L39 5L39 2ZM0 34L0 41L7 41L7 34ZM1 35L1 40L6 40L6 35ZM2 36L2 39L5 39L5 36Z" fill="#000000"/></g></g></svg>
