<?xml version="1.0" encoding="UTF-8"?>
<svg xmlns="http://www.w3.org/2000/svg" version="1.1" width="300" height="300" viewBox="0 0 300 300"><rect x="0" y="0" width="300" height="300" fill="#ffffff"/><g transform="scale(7.317)"><g transform="translate(0,0)"><path fill-rule="evenodd" d="M8 0L8 2L9 2L9 3L8 3L8 7L9 7L9 9L10 9L10 10L9 10L9 12L8 12L8 14L9 14L9 15L7 15L7 14L6 14L6 13L7 13L7 12L6 12L6 13L5 13L5 12L3 12L3 13L2 13L2 12L1 12L1 13L2 13L2 15L3 15L3 16L2 16L2 18L1 18L1 16L0 16L0 18L1 18L1 19L0 19L0 22L1 22L1 23L2 23L2 24L1 24L1 25L2 25L2 24L3 24L3 22L4 22L4 24L5 24L5 21L7 21L7 20L8 20L8 22L9 22L9 21L11 21L11 20L10 20L10 19L11 19L11 18L12 18L12 20L13 20L13 19L14 19L14 18L15 18L15 16L13 16L13 14L14 14L14 15L16 15L16 14L17 14L17 16L18 16L18 17L19 17L19 18L18 18L18 19L17 19L17 20L16 20L16 21L15 21L15 20L14 20L14 21L15 21L15 24L14 24L14 22L13 22L13 21L12 21L12 23L11 23L11 22L10 22L10 23L9 23L9 24L10 24L10 25L12 25L12 26L11 26L11 28L10 28L10 29L9 29L9 30L10 30L10 31L9 31L9 32L8 32L8 29L7 29L7 28L8 28L8 27L9 27L9 26L6 26L6 25L7 25L7 24L8 24L8 23L7 23L7 22L6 22L6 23L7 23L7 24L6 24L6 25L3 25L3 26L0 26L0 29L1 29L1 30L0 30L0 31L1 31L1 30L3 30L3 31L2 31L2 32L4 32L4 30L5 30L5 32L6 32L6 33L8 33L8 34L9 34L9 35L10 35L10 34L11 34L11 35L12 35L12 36L13 36L13 37L11 37L11 36L9 36L9 37L8 37L8 38L9 38L9 37L11 37L11 38L10 38L10 40L11 40L11 41L12 41L12 40L11 40L11 39L12 39L12 38L14 38L14 40L15 40L15 38L17 38L17 39L16 39L16 41L17 41L17 39L18 39L18 41L21 41L21 39L23 39L23 40L24 40L24 39L23 39L23 38L22 38L22 37L23 37L23 36L24 36L24 35L25 35L25 36L26 36L26 37L24 37L24 38L25 38L25 39L27 39L27 41L28 41L28 40L29 40L29 41L30 41L30 40L31 40L31 41L33 41L33 40L34 40L34 39L32 39L32 38L30 38L30 37L31 37L31 36L30 36L30 37L29 37L29 36L28 36L28 38L29 38L29 39L27 39L27 38L26 38L26 37L27 37L27 36L26 36L26 34L27 34L27 33L28 33L28 32L27 32L27 33L26 33L26 34L24 34L24 35L21 35L21 32L23 32L23 31L24 31L24 32L26 32L26 30L27 30L27 31L29 31L29 32L30 32L30 33L29 33L29 35L30 35L30 34L31 34L31 35L32 35L32 37L33 37L33 38L35 38L35 37L36 37L36 39L35 39L35 41L37 41L37 40L38 40L38 38L39 38L39 37L40 37L40 36L41 36L41 35L40 35L40 34L41 34L41 32L40 32L40 31L41 31L41 29L39 29L39 32L37 32L37 30L38 30L38 29L37 29L37 30L36 30L36 31L35 31L35 32L32 32L32 31L34 31L34 30L35 30L35 29L36 29L36 28L37 28L37 26L38 26L38 25L37 25L37 26L35 26L35 22L36 22L36 23L37 23L37 24L39 24L39 27L41 27L41 23L40 23L40 22L41 22L41 20L40 20L40 21L39 21L39 20L38 20L38 19L37 19L37 18L36 18L36 19L35 19L35 17L36 17L36 15L37 15L37 16L38 16L38 15L37 15L37 14L38 14L38 12L39 12L39 15L40 15L40 16L39 16L39 17L38 17L38 18L39 18L39 19L41 19L41 14L40 14L40 13L41 13L41 11L40 11L40 10L39 10L39 9L41 9L41 8L39 8L39 9L38 9L38 8L35 8L35 9L32 9L32 10L30 10L30 9L29 9L29 8L33 8L33 5L31 5L31 4L32 4L32 3L31 3L31 0L30 0L30 2L29 2L29 3L28 3L28 4L27 4L27 3L26 3L26 2L28 2L28 1L27 1L27 0L22 0L22 2L25 2L25 3L23 3L23 6L22 6L22 7L23 7L23 6L24 6L24 9L23 9L23 10L22 10L22 9L21 9L21 6L20 6L20 5L19 5L19 3L16 3L16 2L18 2L18 1L19 1L19 2L20 2L20 3L21 3L21 1L20 1L20 0L15 0L15 1L14 1L14 0L12 0L12 1L14 1L14 2L13 2L13 4L12 4L12 2L11 2L11 3L10 3L10 2L9 2L9 1L11 1L11 0ZM15 1L15 2L16 2L16 1ZM32 1L32 2L33 2L33 1ZM15 3L15 4L13 4L13 5L12 5L12 4L11 4L11 5L9 5L9 7L10 7L10 6L11 6L11 8L10 8L10 9L11 9L11 10L10 10L10 15L9 15L9 16L8 16L8 17L9 17L9 18L11 18L11 16L12 16L12 17L13 17L13 16L12 16L12 15L11 15L11 10L14 10L14 12L15 12L15 14L16 14L16 12L17 12L17 11L16 11L16 6L17 6L17 8L19 8L19 7L20 7L20 6L19 6L19 7L18 7L18 6L17 6L17 5L15 5L15 4L16 4L16 3ZM21 4L21 5L22 5L22 4ZM25 4L25 5L26 5L26 6L25 6L25 7L26 7L26 8L25 8L25 10L27 10L27 11L28 11L28 13L29 13L29 12L30 12L30 13L31 13L31 14L26 14L26 15L25 15L25 14L24 14L24 16L23 16L23 18L21 18L21 19L20 19L20 18L19 18L19 19L18 19L18 20L22 20L22 21L20 21L20 22L18 22L18 23L17 23L17 22L16 22L16 25L18 25L18 23L20 23L20 22L22 22L22 23L21 23L21 24L19 24L19 27L18 27L18 26L12 26L12 27L13 27L13 28L12 28L12 29L10 29L10 30L11 30L11 31L12 31L12 32L11 32L11 34L12 34L12 35L13 35L13 36L15 36L15 37L17 37L17 38L18 38L18 39L19 39L19 40L20 40L20 39L21 39L21 37L22 37L22 36L21 36L21 35L19 35L19 36L18 36L18 34L19 34L19 33L20 33L20 32L21 32L21 31L20 31L20 29L21 29L21 30L22 30L22 31L23 31L23 30L24 30L24 31L25 31L25 29L26 29L26 28L27 28L27 27L28 27L28 26L29 26L29 27L30 27L30 30L29 30L29 31L32 31L32 26L31 26L31 24L34 24L34 23L33 23L33 22L34 22L34 20L33 20L33 19L34 19L34 18L33 18L33 17L35 17L35 16L33 16L33 17L32 17L32 16L31 16L31 17L30 17L30 19L32 19L32 20L31 20L31 22L32 22L32 23L31 23L31 24L30 24L30 23L29 23L29 24L30 24L30 26L29 26L29 25L27 25L27 27L25 27L25 26L26 26L26 25L23 25L23 24L24 24L24 23L25 23L25 22L26 22L26 23L27 23L27 24L28 24L28 21L30 21L30 20L29 20L29 19L28 19L28 18L29 18L29 15L32 15L32 13L31 13L31 12L30 12L30 10L28 10L28 8L27 8L27 7L28 7L28 6L29 6L29 7L30 7L30 6L29 6L29 5L28 5L28 6L27 6L27 5L26 5L26 4ZM11 5L11 6L12 6L12 8L11 8L11 9L12 9L12 8L13 8L13 9L14 9L14 10L15 10L15 8L13 8L13 6L14 6L14 7L15 7L15 6L14 6L14 5L13 5L13 6L12 6L12 5ZM26 6L26 7L27 7L27 6ZM31 6L31 7L32 7L32 6ZM3 8L3 9L2 9L2 10L1 10L1 9L0 9L0 10L1 10L1 11L3 11L3 9L4 9L4 8ZM6 8L6 9L7 9L7 10L6 10L6 11L8 11L8 9L7 9L7 8ZM26 8L26 9L27 9L27 8ZM17 9L17 10L18 10L18 9ZM19 9L19 11L20 11L20 10L21 10L21 11L22 11L22 12L23 12L23 13L22 13L22 14L23 14L23 13L25 13L25 12L26 12L26 11L25 11L25 12L24 12L24 11L22 11L22 10L21 10L21 9ZM36 9L36 10L37 10L37 9ZM33 10L33 11L32 11L32 12L33 12L33 15L35 15L35 13L34 13L34 12L35 12L35 10ZM33 11L33 12L34 12L34 11ZM36 11L36 14L37 14L37 12L38 12L38 11ZM39 11L39 12L40 12L40 11ZM12 12L12 13L13 13L13 12ZM18 12L18 13L17 13L17 14L18 14L18 16L19 16L19 15L20 15L20 16L21 16L21 17L22 17L22 15L20 15L20 14L18 14L18 13L20 13L20 12ZM3 13L3 14L4 14L4 16L3 16L3 17L5 17L5 18L7 18L7 17L6 17L6 16L7 16L7 15L6 15L6 14L5 14L5 13ZM0 14L0 15L1 15L1 14ZM5 15L5 16L6 16L6 15ZM10 15L10 16L11 16L11 15ZM27 15L27 16L28 16L28 15ZM24 17L24 18L25 18L25 21L24 21L24 20L23 20L23 19L22 19L22 20L23 20L23 21L22 21L22 22L25 22L25 21L26 21L26 22L27 22L27 20L26 20L26 18L25 18L25 17ZM31 17L31 18L32 18L32 17ZM39 17L39 18L40 18L40 17ZM2 18L2 19L3 19L3 20L4 20L4 21L5 21L5 20L7 20L7 19L4 19L4 18ZM8 19L8 20L9 20L9 19ZM36 19L36 20L35 20L35 21L36 21L36 22L37 22L37 23L38 23L38 22L39 22L39 21L38 21L38 20L37 20L37 19ZM32 21L32 22L33 22L33 21ZM39 23L39 24L40 24L40 23ZM12 24L12 25L13 25L13 24ZM21 24L21 25L20 25L20 26L21 26L21 25L22 25L22 24ZM3 26L3 27L1 27L1 28L2 28L2 29L3 29L3 30L4 30L4 28L7 28L7 27L4 27L4 26ZM22 26L22 27L23 27L23 26ZM30 26L30 27L31 27L31 26ZM33 26L33 27L34 27L34 28L33 28L33 30L34 30L34 29L35 29L35 28L36 28L36 27L34 27L34 26ZM14 27L14 29L15 29L15 30L13 30L13 32L12 32L12 34L13 34L13 35L14 35L14 34L16 34L16 35L17 35L17 34L18 34L18 33L19 33L19 32L20 32L20 31L19 31L19 29L20 29L20 28L21 28L21 29L22 29L22 28L21 28L21 27L20 27L20 28L19 28L19 29L18 29L18 28L17 28L17 29L16 29L16 28L15 28L15 27ZM23 28L23 29L25 29L25 28ZM28 28L28 29L29 29L29 28ZM5 29L5 30L7 30L7 29ZM17 29L17 30L16 30L16 32L19 32L19 31L18 31L18 29ZM6 31L6 32L7 32L7 31ZM14 31L14 32L13 32L13 33L15 33L15 31ZM0 32L0 33L1 33L1 32ZM31 32L31 33L32 33L32 32ZM39 32L39 34L40 34L40 32ZM16 33L16 34L17 34L17 33ZM22 33L22 34L23 34L23 33ZM33 33L33 36L36 36L36 33ZM34 34L34 35L35 35L35 34ZM37 34L37 37L39 37L39 36L40 36L40 35L39 35L39 36L38 36L38 34ZM20 36L20 37L18 37L18 38L20 38L20 37L21 37L21 36ZM40 38L40 39L39 39L39 41L40 41L40 39L41 39L41 38ZM36 39L36 40L37 40L37 39ZM0 0L0 7L7 7L7 0ZM1 1L1 6L6 6L6 1ZM2 2L2 5L5 5L5 2ZM34 0L34 7L41 7L41 0ZM35 1L35 6L40 6L40 1ZM36 2L36 5L39 5L39 2ZM0 34L0 41L7 41L7 34ZM1 35L1 40L6 40L6 35ZM2 36L2 39L5 39L5 36Z" fill="#000000"/></g></g></svg>
