<?xml version="1.0" encoding="UTF-8"?>
<svg xmlns="http://www.w3.org/2000/svg" version="1.1" width="300" height="300" viewBox="0 0 300 300"><rect x="0" y="0" width="300" height="300" fill="#ffffff"/><g transform="scale(7.317)"><g transform="translate(0,0)"><path fill-rule="evenodd" d="M8 0L8 1L9 1L9 2L8 2L8 3L9 3L9 2L10 2L10 1L9 1L9 0ZM14 0L14 1L13 1L13 2L11 2L11 3L10 3L10 4L11 4L11 3L12 3L12 5L11 5L11 6L10 6L10 5L9 5L9 4L8 4L8 5L9 5L9 6L8 6L8 8L9 8L9 6L10 6L10 7L11 7L11 8L10 8L10 9L7 9L7 8L5 8L5 9L7 9L7 10L4 10L4 9L0 9L0 10L2 10L2 11L0 11L0 12L2 12L2 11L3 11L3 12L4 12L4 11L7 11L7 12L6 12L6 13L7 13L7 12L8 12L8 14L9 14L9 16L8 16L8 17L10 17L10 18L8 18L8 19L7 19L7 18L6 18L6 19L5 19L5 17L4 17L4 16L5 16L5 15L7 15L7 14L5 14L5 13L0 13L0 17L1 17L1 18L2 18L2 16L3 16L3 17L4 17L4 18L3 18L3 19L1 19L1 20L0 20L0 22L1 22L1 23L0 23L0 24L1 24L1 25L0 25L0 26L3 26L3 27L1 27L1 28L0 28L0 33L1 33L1 31L2 31L2 32L3 32L3 33L8 33L8 34L10 34L10 36L9 36L9 35L8 35L8 36L9 36L9 41L10 41L10 38L11 38L11 37L12 37L12 36L14 36L14 37L13 37L13 38L14 38L14 39L11 39L11 41L12 41L12 40L13 40L13 41L17 41L17 40L18 40L18 41L19 41L19 40L20 40L20 39L19 39L19 40L18 40L18 39L17 39L17 38L18 38L18 37L19 37L19 38L20 38L20 37L21 37L21 36L22 36L22 33L23 33L23 37L22 37L22 38L23 38L23 39L21 39L21 41L22 41L22 40L23 40L23 39L24 39L24 40L25 40L25 41L27 41L27 39L29 39L29 38L28 38L28 37L30 37L30 39L32 39L32 38L31 38L31 37L35 37L35 38L33 38L33 39L34 39L34 40L33 40L33 41L34 41L34 40L35 40L35 41L39 41L39 39L40 39L40 40L41 40L41 39L40 39L40 38L41 38L41 37L38 37L38 34L37 34L37 33L39 33L39 34L40 34L40 32L41 32L41 28L39 28L39 27L37 27L37 26L38 26L38 24L37 24L37 21L36 21L36 20L38 20L38 23L39 23L39 24L40 24L40 25L41 25L41 23L39 23L39 21L40 21L40 20L41 20L41 16L40 16L40 15L38 15L38 16L37 16L37 14L38 14L38 13L36 13L36 16L35 16L35 17L34 17L34 16L33 16L33 17L32 17L32 16L29 16L29 15L30 15L30 14L27 14L27 12L26 12L26 11L25 11L25 10L27 10L27 11L28 11L28 8L26 8L26 7L27 7L27 5L26 5L26 4L23 4L23 3L24 3L24 2L25 2L25 3L26 3L26 2L27 2L27 4L28 4L28 5L29 5L29 6L28 6L28 7L29 7L29 6L30 6L30 7L31 7L31 8L33 8L33 6L32 6L32 7L31 7L31 6L30 6L30 5L33 5L33 3L32 3L32 4L28 4L28 3L29 3L29 2L30 2L30 3L31 3L31 2L30 2L30 1L32 1L32 2L33 2L33 1L32 1L32 0L29 0L29 1L28 1L28 0L27 0L27 1L25 1L25 0L18 0L18 2L17 2L17 1L16 1L16 0ZM14 1L14 2L15 2L15 1ZM19 1L19 2L20 2L20 1ZM21 1L21 2L22 2L22 3L21 3L21 5L22 5L22 6L21 6L21 7L22 7L22 6L23 6L23 7L24 7L24 8L25 8L25 9L23 9L23 10L25 10L25 9L26 9L26 8L25 8L25 7L26 7L26 5L24 5L24 6L23 6L23 5L22 5L22 3L23 3L23 2L24 2L24 1ZM27 1L27 2L28 2L28 1ZM16 2L16 3L13 3L13 4L15 4L15 5L16 5L16 6L15 6L15 7L14 7L14 5L13 5L13 7L12 7L12 6L11 6L11 7L12 7L12 8L11 8L11 9L10 9L10 10L7 10L7 11L9 11L9 13L11 13L11 14L12 14L12 12L13 12L13 13L14 13L14 10L15 10L15 9L14 9L14 10L13 10L13 11L12 11L12 12L11 12L11 9L13 9L13 8L15 8L15 7L16 7L16 10L17 10L17 9L18 9L18 10L19 10L19 9L18 9L18 8L17 8L17 7L18 7L18 6L19 6L19 7L20 7L20 5L19 5L19 4L20 4L20 3L19 3L19 4L18 4L18 6L17 6L17 5L16 5L16 4L17 4L17 2ZM16 6L16 7L17 7L17 6ZM24 6L24 7L25 7L25 6ZM29 8L29 9L30 9L30 11L31 11L31 10L32 10L32 9L30 9L30 8ZM34 8L34 9L35 9L35 8ZM36 8L36 10L35 10L35 12L33 12L33 11L34 11L34 10L33 10L33 11L32 11L32 15L35 15L35 12L38 12L38 11L37 11L37 8ZM38 8L38 9L39 9L39 11L40 11L40 12L41 12L41 11L40 11L40 9L41 9L41 8L40 8L40 9L39 9L39 8ZM21 9L21 10L20 10L20 11L18 11L18 12L17 12L17 11L16 11L16 14L15 14L15 15L13 15L13 17L12 17L12 15L11 15L11 17L12 17L12 18L10 18L10 19L8 19L8 20L7 20L7 19L6 19L6 20L5 20L5 21L6 21L6 22L3 22L3 21L1 21L1 22L3 22L3 23L6 23L6 24L7 24L7 23L6 23L6 22L7 22L7 21L8 21L8 22L9 22L9 21L8 21L8 20L10 20L10 22L11 22L11 23L12 23L12 24L11 24L11 25L12 25L12 26L11 26L11 28L13 28L13 27L14 27L14 29L16 29L16 30L17 30L17 33L16 33L16 34L17 34L17 35L14 35L14 36L15 36L15 37L14 37L14 38L17 38L17 35L20 35L20 34L19 34L19 33L18 33L18 30L20 30L20 29L21 29L21 31L19 31L19 32L22 32L22 30L24 30L24 29L23 29L23 28L21 28L21 26L20 26L20 25L24 25L24 24L25 24L25 26L24 26L24 27L25 27L25 26L26 26L26 24L27 24L27 25L28 25L28 24L27 24L27 23L26 23L26 22L27 22L27 18L24 18L24 16L26 16L26 17L27 17L27 16L28 16L28 18L29 18L29 20L31 20L31 21L28 21L28 22L31 22L31 23L29 23L29 26L28 26L28 27L27 27L27 28L26 28L26 29L25 29L25 31L23 31L23 33L24 33L24 35L25 35L25 36L24 36L24 39L25 39L25 37L26 37L26 38L27 38L27 37L26 37L26 35L27 35L27 34L26 34L26 35L25 35L25 33L28 33L28 32L27 32L27 31L28 31L28 29L29 29L29 28L30 28L30 29L31 29L31 28L30 28L30 27L29 27L29 26L30 26L30 25L32 25L32 24L31 24L31 23L32 23L32 22L33 22L33 23L34 23L34 22L35 22L35 24L36 24L36 25L37 25L37 24L36 24L36 21L35 21L35 20L36 20L36 19L33 19L33 18L34 18L34 17L33 17L33 18L32 18L32 17L31 17L31 18L29 18L29 16L28 16L28 15L26 15L26 12L25 12L25 11L21 11L21 10L22 10L22 9ZM3 10L3 11L4 11L4 10ZM19 12L19 14L18 14L18 13L17 13L17 14L16 14L16 15L15 15L15 18L14 18L14 19L15 19L15 20L13 20L13 18L12 18L12 20L13 20L13 22L12 22L12 21L11 21L11 22L12 22L12 23L13 23L13 22L14 22L14 25L13 25L13 26L15 26L15 28L17 28L17 29L18 29L18 28L20 28L20 27L19 27L19 26L15 26L15 22L14 22L14 21L16 21L16 20L17 20L17 21L20 21L20 22L19 22L19 23L20 23L20 22L23 22L23 21L21 21L21 16L20 16L20 14L21 14L21 15L22 15L22 17L23 17L23 13L24 13L24 14L25 14L25 13L24 13L24 12L22 12L22 13L20 13L20 12ZM40 13L40 14L41 14L41 13ZM1 14L1 15L2 15L2 14ZM3 14L3 16L4 16L4 14ZM17 15L17 16L16 16L16 17L20 17L20 16L18 16L18 15ZM6 16L6 17L7 17L7 16ZM36 16L36 17L35 17L35 18L36 18L36 17L37 17L37 16ZM39 16L39 17L38 17L38 20L39 20L39 19L40 19L40 18L39 18L39 17L40 17L40 16ZM15 18L15 19L17 19L17 20L19 20L19 18ZM22 18L22 20L25 20L25 22L26 22L26 20L25 20L25 19L23 19L23 18ZM31 18L31 20L32 20L32 18ZM6 20L6 21L7 21L7 20ZM33 20L33 22L34 22L34 20ZM31 21L31 22L32 22L32 21ZM17 22L17 23L18 23L18 22ZM8 23L8 24L10 24L10 23ZM21 23L21 24L22 24L22 23ZM2 24L2 25L3 25L3 26L7 26L7 27L5 27L5 28L4 28L4 27L3 27L3 28L4 28L4 29L5 29L5 30L3 30L3 29L2 29L2 28L1 28L1 30L2 30L2 31L3 31L3 32L4 32L4 31L5 31L5 32L7 32L7 31L8 31L8 32L9 32L9 33L10 33L10 34L12 34L12 33L13 33L13 34L14 34L14 32L12 32L12 31L11 31L11 29L9 29L9 30L8 30L8 29L5 29L5 28L7 28L7 27L8 27L8 28L9 28L9 25L5 25L5 24L4 24L4 25L3 25L3 24ZM17 24L17 25L20 25L20 24ZM33 24L33 26L34 26L34 27L32 27L32 26L31 26L31 27L32 27L32 30L33 30L33 31L32 31L32 32L31 32L31 30L30 30L30 31L29 31L29 32L31 32L31 33L29 33L29 34L28 34L28 36L31 36L31 35L32 35L32 32L33 32L33 31L35 31L35 32L40 32L40 29L39 29L39 30L38 30L38 29L37 29L37 27L36 27L36 26L35 26L35 25L34 25L34 24ZM22 26L22 27L23 27L23 26ZM34 27L34 28L33 28L33 30L35 30L35 31L38 31L38 30L37 30L37 29L36 29L36 27ZM34 28L34 29L35 29L35 30L36 30L36 29L35 29L35 28ZM12 29L12 30L13 30L13 29ZM6 30L6 31L7 31L7 30ZM14 30L14 31L15 31L15 32L16 32L16 31L15 31L15 30ZM10 32L10 33L11 33L11 32ZM33 33L33 36L36 36L36 33ZM29 34L29 35L31 35L31 34ZM34 34L34 35L35 35L35 34ZM39 35L39 36L41 36L41 35ZM19 36L19 37L20 37L20 36ZM36 37L36 38L37 38L37 37ZM38 38L38 39L37 39L37 40L38 40L38 39L39 39L39 38ZM14 39L14 40L15 40L15 39ZM16 39L16 40L17 40L17 39ZM35 39L35 40L36 40L36 39ZM29 40L29 41L30 41L30 40ZM0 0L0 7L7 7L7 0ZM1 1L1 6L6 6L6 1ZM2 2L2 5L5 5L5 2ZM34 0L34 7L41 7L41 0ZM35 1L35 6L40 6L40 1ZM36 2L36 5L39 5L39 2ZM0 34L0 41L7 41L7 34ZM1 35L1 40L6 40L6 35ZM2 36L2 39L5 39L5 36Z" fill="#000000"/></g></g></svg>
