<?xml version="1.0" encoding="UTF-8"?>
<svg xmlns="http://www.w3.org/2000/svg" version="1.1" width="300" height="300" viewBox="0 0 300 300"><rect x="0" y="0" width="300" height="300" fill="#ffffff"/><g transform="scale(7.317)"><g transform="translate(0,0)"><path fill-rule="evenodd" d="M8 0L8 1L10 1L10 0ZM11 0L11 3L10 3L10 2L9 2L9 3L8 3L8 4L9 4L9 5L10 5L10 4L12 4L12 5L13 5L13 6L12 6L12 8L13 8L13 9L14 9L14 10L15 10L15 9L14 9L14 7L15 7L15 5L16 5L16 4L17 4L17 5L18 5L18 7L19 7L19 6L20 6L20 8L18 8L18 10L17 10L17 8L16 8L16 10L17 10L17 11L18 11L18 12L16 12L16 13L15 13L15 11L13 11L13 10L11 10L11 9L10 9L10 7L11 7L11 6L10 6L10 7L9 7L9 6L8 6L8 7L9 7L9 8L8 8L8 9L10 9L10 10L8 10L8 12L5 12L5 11L4 11L4 10L6 10L6 11L7 11L7 10L6 10L6 9L7 9L7 8L4 8L4 10L3 10L3 11L4 11L4 12L3 12L3 13L1 13L1 14L0 14L0 15L1 15L1 14L3 14L3 16L0 16L0 18L1 18L1 19L0 19L0 21L1 21L1 23L3 23L3 24L5 24L5 22L4 22L4 21L2 21L2 20L3 20L3 19L2 19L2 18L1 18L1 17L3 17L3 18L4 18L4 20L5 20L5 19L9 19L9 21L7 21L7 20L6 20L6 21L7 21L7 22L6 22L6 23L7 23L7 24L6 24L6 25L2 25L2 26L0 26L0 27L1 27L1 28L0 28L0 29L1 29L1 28L2 28L2 27L3 27L3 28L6 28L6 29L7 29L7 30L5 30L5 29L4 29L4 30L3 30L3 31L1 31L1 30L0 30L0 31L1 31L1 32L0 32L0 33L1 33L1 32L2 32L2 33L3 33L3 32L5 32L5 33L8 33L8 34L9 34L9 33L10 33L10 35L13 35L13 37L10 37L10 41L12 41L12 40L11 40L11 38L13 38L13 37L14 37L14 38L16 38L16 35L15 35L15 34L14 34L14 33L13 33L13 34L12 34L12 32L13 32L13 31L12 31L12 30L13 30L13 29L14 29L14 30L15 30L15 29L16 29L16 28L15 28L15 26L16 26L16 23L17 23L17 24L18 24L18 25L17 25L17 27L19 27L19 26L20 26L20 29L21 29L21 32L23 32L23 33L21 33L21 34L22 34L22 35L24 35L24 34L25 34L25 35L27 35L27 34L25 34L25 33L24 33L24 32L23 32L23 30L22 30L22 29L24 29L24 30L25 30L25 32L26 32L26 33L28 33L28 32L29 32L29 34L28 34L28 35L29 35L29 36L28 36L28 37L29 37L29 38L30 38L30 39L27 39L27 41L30 41L30 40L32 40L32 41L33 41L33 40L34 40L34 41L38 41L38 39L39 39L39 41L41 41L41 40L40 40L40 39L41 39L41 37L40 37L40 36L41 36L41 29L38 29L38 28L37 28L37 26L36 26L36 28L34 28L34 27L35 27L35 26L34 26L34 25L35 25L35 24L36 24L36 23L37 23L37 24L38 24L38 23L37 23L37 22L38 22L38 21L37 21L37 22L36 22L36 19L37 19L37 18L36 18L36 15L37 15L37 17L38 17L38 15L40 15L40 16L39 16L39 17L40 17L40 18L39 18L39 19L40 19L40 21L39 21L39 23L40 23L40 24L39 24L39 26L38 26L38 27L39 27L39 28L41 28L41 26L40 26L40 25L41 25L41 17L40 17L40 16L41 16L41 13L40 13L40 12L41 12L41 8L40 8L40 11L39 11L39 9L38 9L38 8L37 8L37 10L36 10L36 9L34 9L34 8L33 8L33 6L32 6L32 3L33 3L33 1L31 1L31 0L30 0L30 3L28 3L28 4L27 4L27 2L29 2L29 1L26 1L26 0L24 0L24 1L23 1L23 0L20 0L20 1L19 1L19 0L17 0L17 1L16 1L16 3L15 3L15 4L14 4L14 2L15 2L15 0L13 0L13 1L12 1L12 0ZM13 1L13 2L14 2L14 1ZM17 1L17 4L18 4L18 5L19 5L19 3L18 3L18 2L19 2L19 1ZM22 1L22 2L23 2L23 1ZM24 1L24 3L25 3L25 2L26 2L26 1ZM20 2L20 5L21 5L21 8L20 8L20 9L19 9L19 10L21 10L21 11L20 11L20 12L18 12L18 13L17 13L17 14L18 14L18 13L20 13L20 14L19 14L19 15L18 15L18 16L17 16L17 15L15 15L15 14L14 14L14 13L13 13L13 12L12 12L12 11L10 11L10 13L9 13L9 16L7 16L7 15L8 15L8 14L7 14L7 13L5 13L5 12L4 12L4 13L3 13L3 14L4 14L4 16L3 16L3 17L4 17L4 16L5 16L5 17L6 17L6 18L7 18L7 17L8 17L8 18L9 18L9 17L11 17L11 18L10 18L10 19L11 19L11 18L12 18L12 15L13 15L13 14L14 14L14 15L15 15L15 16L17 16L17 17L18 17L18 18L19 18L19 19L18 19L18 23L19 23L19 20L20 20L20 22L22 22L22 21L25 21L25 22L23 22L23 23L20 23L20 24L19 24L19 25L21 25L21 28L27 28L27 27L28 27L28 25L27 25L27 26L26 26L26 27L25 27L25 25L23 25L23 23L26 23L26 24L28 24L28 23L29 23L29 22L28 22L28 21L29 21L29 20L28 20L28 18L30 18L30 19L31 19L31 24L30 24L30 26L31 26L31 27L30 27L30 29L29 29L29 31L31 31L31 33L32 33L32 32L34 32L34 31L36 31L36 30L37 30L37 31L38 31L38 33L39 33L39 34L40 34L40 32L39 32L39 30L37 30L37 28L36 28L36 30L34 30L34 28L33 28L33 29L31 29L31 28L32 28L32 27L34 27L34 26L32 26L32 25L31 25L31 24L32 24L32 23L33 23L33 24L34 24L34 23L36 23L36 22L34 22L34 20L35 20L35 19L36 19L36 18L35 18L35 19L34 19L34 18L31 18L31 17L28 17L28 16L29 16L29 11L30 11L30 10L31 10L31 11L32 11L32 6L31 6L31 8L30 8L30 10L29 10L29 11L28 11L28 8L29 8L29 7L30 7L30 5L29 5L29 4L28 4L28 6L27 6L27 7L26 7L26 6L25 6L25 12L27 12L27 11L28 11L28 14L24 14L24 12L23 12L23 8L24 8L24 5L23 5L23 3L22 3L22 5L21 5L21 2ZM31 2L31 3L32 3L32 2ZM9 3L9 4L10 4L10 3ZM12 3L12 4L13 4L13 3ZM13 6L13 7L14 7L14 6ZM16 6L16 7L17 7L17 6ZM22 6L22 8L23 8L23 6ZM28 6L28 7L27 7L27 8L28 8L28 7L29 7L29 6ZM2 8L2 9L3 9L3 8ZM21 9L21 10L22 10L22 9ZM0 10L0 12L2 12L2 10ZM26 10L26 11L27 11L27 10ZM33 10L33 11L34 11L34 12L33 12L33 14L30 14L30 15L36 15L36 14L37 14L37 15L38 15L38 14L39 14L39 11L38 11L38 10L37 10L37 11L34 11L34 10ZM21 11L21 13L22 13L22 14L23 14L23 12L22 12L22 11ZM11 12L11 13L10 13L10 14L11 14L11 15L12 15L12 14L13 14L13 13L12 13L12 12ZM30 12L30 13L31 13L31 12ZM34 12L34 14L36 14L36 12ZM37 12L37 13L38 13L38 12ZM4 13L4 14L5 14L5 16L6 16L6 17L7 17L7 16L6 16L6 15L7 15L7 14L5 14L5 13ZM11 13L11 14L12 14L12 13ZM20 14L20 15L19 15L19 17L20 17L20 20L21 20L21 19L22 19L22 20L23 20L23 19L24 19L24 17L26 17L26 18L25 18L25 19L27 19L27 16L28 16L28 15L24 15L24 17L23 17L23 19L22 19L22 18L21 18L21 17L22 17L22 15L21 15L21 14ZM20 15L20 17L21 17L21 15ZM13 16L13 17L14 17L14 18L13 18L13 19L12 19L12 20L10 20L10 21L9 21L9 22L7 22L7 23L8 23L8 24L9 24L9 25L8 25L8 26L7 26L7 25L6 25L6 26L3 26L3 27L6 27L6 28L8 28L8 29L10 29L10 33L11 33L11 32L12 32L12 31L11 31L11 30L12 30L12 29L13 29L13 28L14 28L14 25L13 25L13 24L12 24L12 21L13 21L13 23L15 23L15 22L14 22L14 21L13 21L13 19L14 19L14 20L15 20L15 21L16 21L16 19L17 19L17 18L16 18L16 17L14 17L14 16ZM33 16L33 17L34 17L34 16ZM15 18L15 19L16 19L16 18ZM1 19L1 20L2 20L2 19ZM33 19L33 20L32 20L32 22L33 22L33 23L34 23L34 22L33 22L33 20L34 20L34 19ZM10 21L10 22L11 22L11 21ZM26 21L26 22L27 22L27 21ZM9 23L9 24L10 24L10 26L11 26L11 25L12 25L12 26L13 26L13 25L12 25L12 24L11 24L11 23ZM21 24L21 25L22 25L22 27L24 27L24 26L23 26L23 25L22 25L22 24ZM6 26L6 27L7 27L7 26ZM8 26L8 28L9 28L9 26ZM11 27L11 29L12 29L12 28L13 28L13 27ZM17 28L17 31L14 31L14 32L18 32L18 33L16 33L16 34L17 34L17 35L19 35L19 33L20 33L20 30L19 30L19 29L18 29L18 28ZM26 29L26 32L28 32L28 31L27 31L27 29ZM4 30L4 31L5 31L5 30ZM8 30L8 31L6 31L6 32L8 32L8 33L9 33L9 30ZM32 30L32 31L34 31L34 30ZM18 31L18 32L19 32L19 31ZM23 33L23 34L24 34L24 33ZM33 33L33 36L36 36L36 33ZM13 34L13 35L14 35L14 34ZM29 34L29 35L30 35L30 36L29 36L29 37L30 37L30 38L31 38L31 37L32 37L32 38L33 38L33 39L34 39L34 40L35 40L35 38L36 38L36 37L34 37L34 38L33 38L33 37L32 37L32 34ZM34 34L34 35L35 35L35 34ZM8 35L8 37L9 37L9 35ZM20 35L20 36L17 36L17 37L18 37L18 38L19 38L19 37L21 37L21 38L20 38L20 41L21 41L21 39L23 39L23 40L22 40L22 41L23 41L23 40L24 40L24 38L25 38L25 39L26 39L26 38L25 38L25 37L24 37L24 38L23 38L23 36L21 36L21 35ZM37 35L37 38L38 38L38 37L39 37L39 39L40 39L40 37L39 37L39 36L40 36L40 35ZM14 36L14 37L15 37L15 36ZM30 36L30 37L31 37L31 36ZM8 38L8 39L9 39L9 38ZM14 39L14 40L13 40L13 41L14 41L14 40L15 40L15 39ZM16 39L16 40L17 40L17 39ZM18 39L18 41L19 41L19 39ZM36 39L36 40L37 40L37 39ZM25 40L25 41L26 41L26 40ZM0 0L0 7L7 7L7 0ZM1 1L1 6L6 6L6 1ZM2 2L2 5L5 5L5 2ZM34 0L34 7L41 7L41 0ZM35 1L35 6L40 6L40 1ZM36 2L36 5L39 5L39 2ZM0 34L0 41L7 41L7 34ZM1 35L1 40L6 40L6 35ZM2 36L2 39L5 39L5 36Z" fill="#000000"/></g></g></svg>
