<?xml version="1.0" encoding="UTF-8"?>
<svg xmlns="http://www.w3.org/2000/svg" version="1.1" width="300" height="300" viewBox="0 0 300 300"><rect x="0" y="0" width="300" height="300" fill="#ffffff"/><g transform="scale(7.317)"><g transform="translate(0,0)"><path fill-rule="evenodd" d="M13 0L13 1L12 1L12 3L13 3L13 1L14 1L14 2L15 2L15 3L16 3L16 4L18 4L18 5L17 5L17 6L16 6L16 5L14 5L14 7L15 7L15 9L13 9L13 10L12 10L12 8L13 8L13 6L12 6L12 5L13 5L13 4L10 4L10 2L9 2L9 1L8 1L8 7L9 7L9 6L10 6L10 7L11 7L11 9L9 9L9 8L5 8L5 9L7 9L7 10L6 10L6 11L7 11L7 12L5 12L5 10L4 10L4 9L3 9L3 8L2 8L2 9L0 9L0 10L1 10L1 11L2 11L2 9L3 9L3 10L4 10L4 11L3 11L3 12L5 12L5 13L2 13L2 14L0 14L0 15L1 15L1 16L0 16L0 18L2 18L2 17L4 17L4 18L3 18L3 19L0 19L0 21L1 21L1 20L3 20L3 21L2 21L2 23L1 23L1 26L2 26L2 27L4 27L4 26L3 26L3 25L4 25L4 24L5 24L5 25L9 25L9 26L6 26L6 27L5 27L5 28L3 28L3 30L6 30L6 31L7 31L7 32L6 32L6 33L7 33L7 32L8 32L8 31L7 31L7 30L6 30L6 29L7 29L7 28L9 28L9 29L8 29L8 30L9 30L9 29L10 29L10 26L11 26L11 27L12 27L12 29L13 29L13 30L12 30L12 31L11 31L11 33L10 33L10 35L11 35L11 37L10 37L10 36L9 36L9 33L8 33L8 36L9 36L9 38L8 38L8 39L9 39L9 41L11 41L11 40L12 40L12 38L13 38L13 40L15 40L15 41L16 41L16 40L17 40L17 41L24 41L24 40L22 40L22 39L23 39L23 38L26 38L26 37L27 37L27 39L28 39L28 41L29 41L29 39L30 39L30 40L31 40L31 41L35 41L35 40L33 40L33 39L34 39L34 38L32 38L32 40L31 40L31 38L29 38L29 39L28 39L28 37L35 37L35 38L36 38L36 39L37 39L37 38L38 38L38 39L41 39L41 37L38 37L38 35L39 35L39 36L41 36L41 26L40 26L40 27L39 27L39 26L38 26L38 24L37 24L37 26L36 26L36 24L35 24L35 23L38 23L38 22L39 22L39 21L40 21L40 23L39 23L39 24L40 24L40 25L41 25L41 17L39 17L39 18L40 18L40 19L39 19L39 21L38 21L38 17L37 17L37 18L35 18L35 15L39 15L39 16L41 16L41 13L40 13L40 15L39 15L39 14L38 14L38 13L37 13L37 14L35 14L35 12L36 12L36 11L37 11L37 12L38 12L38 11L39 11L39 9L40 9L40 8L35 8L35 9L34 9L34 8L33 8L33 6L32 6L32 7L31 7L31 3L33 3L33 1L32 1L32 0L29 0L29 1L28 1L28 0L27 0L27 1L25 1L25 0L22 0L22 1L21 1L21 0L17 0L17 1L16 1L16 0ZM17 1L17 2L19 2L19 3L18 3L18 4L19 4L19 7L18 7L18 6L17 6L17 7L16 7L16 6L15 6L15 7L16 7L16 8L17 8L17 7L18 7L18 8L19 8L19 9L20 9L20 10L19 10L19 12L17 12L17 11L18 11L18 10L16 10L16 13L15 13L15 14L13 14L13 13L14 13L14 11L15 11L15 10L14 10L14 11L13 11L13 13L12 13L12 12L11 12L11 11L12 11L12 10L11 10L11 11L10 11L10 10L9 10L9 9L8 9L8 10L9 10L9 13L12 13L12 15L11 15L11 14L10 14L10 17L12 17L12 16L14 16L14 15L15 15L15 17L14 17L14 18L13 18L13 19L12 19L12 18L10 18L10 20L9 20L9 19L8 19L8 18L9 18L9 16L8 16L8 15L6 15L6 14L8 14L8 12L7 12L7 13L5 13L5 14L2 14L2 16L1 16L1 17L2 17L2 16L8 16L8 17L5 17L5 19L6 19L6 20L7 20L7 19L8 19L8 21L6 21L6 22L7 22L7 23L6 23L6 24L7 24L7 23L9 23L9 24L10 24L10 23L11 23L11 21L10 21L10 20L12 20L12 21L13 21L13 19L14 19L14 21L15 21L15 22L14 22L14 23L13 23L13 24L11 24L11 25L14 25L14 23L15 23L15 26L16 26L16 28L15 28L15 30L14 30L14 31L15 31L15 32L14 32L14 34L13 34L13 31L12 31L12 33L11 33L11 35L12 35L12 37L11 37L11 38L12 38L12 37L13 37L13 36L14 36L14 39L15 39L15 38L16 38L16 39L17 39L17 34L16 34L16 35L14 35L14 34L15 34L15 33L17 33L17 32L19 32L19 33L20 33L20 35L21 35L21 36L23 36L23 35L24 35L24 37L26 37L26 36L27 36L27 35L26 35L26 34L27 34L27 33L28 33L28 34L29 34L29 35L28 35L28 36L30 36L30 31L31 31L31 32L33 32L33 31L35 31L35 32L36 32L36 31L35 31L35 30L38 30L38 31L37 31L37 35L38 35L38 33L39 33L39 32L40 32L40 29L39 29L39 27L38 27L38 28L35 28L35 27L33 27L33 26L35 26L35 25L34 25L34 24L33 24L33 26L32 26L32 27L33 27L33 28L35 28L35 30L33 30L33 29L32 29L32 28L31 28L31 27L30 27L30 26L31 26L31 25L32 25L32 24L30 24L30 19L31 19L31 18L32 18L32 20L35 20L35 22L32 22L32 23L35 23L35 22L38 22L38 21L37 21L37 19L33 19L33 18L34 18L34 17L33 17L33 18L32 18L32 15L33 15L33 16L34 16L34 15L35 15L35 14L34 14L34 15L33 15L33 14L32 14L32 11L31 11L31 12L30 12L30 11L26 11L26 12L25 12L25 14L26 14L26 15L24 15L24 14L22 14L22 15L20 15L20 14L21 14L21 13L22 13L22 12L24 12L24 8L22 8L22 9L21 9L21 8L19 8L19 7L20 7L20 5L22 5L22 6L21 6L21 7L22 7L22 6L23 6L23 7L24 7L24 6L23 6L23 5L24 5L24 3L25 3L25 7L26 7L26 10L27 10L27 8L29 8L29 10L31 10L31 8L30 8L30 6L29 6L29 5L30 5L30 3L29 3L29 2L28 2L28 1L27 1L27 2L28 2L28 3L29 3L29 4L27 4L27 7L26 7L26 2L25 2L25 1L22 1L22 2L23 2L23 5L22 5L22 3L21 3L21 2L20 2L20 1ZM31 1L31 2L32 2L32 1ZM9 4L9 5L10 5L10 6L11 6L11 7L12 7L12 6L11 6L11 5L10 5L10 4ZM28 6L28 7L29 7L29 6ZM33 9L33 10L34 10L34 9ZM35 9L35 11L33 11L33 12L35 12L35 11L36 11L36 10L38 10L38 9ZM20 10L20 11L22 11L22 10ZM40 10L40 12L41 12L41 10ZM19 12L19 13L16 13L16 14L15 14L15 15L16 15L16 14L18 14L18 15L19 15L19 16L20 16L20 15L19 15L19 14L20 14L20 13L21 13L21 12ZM26 12L26 14L27 14L27 15L26 15L26 18L27 18L27 24L26 24L26 26L27 26L27 27L28 27L28 31L27 31L27 32L25 32L25 33L24 33L24 30L25 30L25 28L26 28L26 29L27 29L27 28L26 28L26 27L25 27L25 28L24 28L24 27L23 27L23 26L24 26L24 25L25 25L25 23L26 23L26 19L25 19L25 21L24 21L24 19L23 19L23 18L22 18L22 17L19 17L19 18L18 18L18 16L16 16L16 17L15 17L15 18L17 18L17 19L15 19L15 21L16 21L16 23L17 23L17 21L19 21L19 20L21 20L21 18L22 18L22 21L21 21L21 22L20 22L20 23L21 23L21 24L22 24L22 23L24 23L24 25L20 25L20 24L19 24L19 23L18 23L18 24L17 24L17 25L18 25L18 27L17 27L17 28L18 28L18 27L19 27L19 29L18 29L18 31L19 31L19 32L20 32L20 28L22 28L22 29L23 29L23 28L24 28L24 30L22 30L22 32L21 32L21 33L22 33L22 34L26 34L26 33L27 33L27 32L29 32L29 31L30 31L30 29L29 29L29 23L28 23L28 22L29 22L29 21L28 21L28 20L29 20L29 18L30 18L30 17L31 17L31 15L32 15L32 14L31 14L31 13L30 13L30 14L31 14L31 15L30 15L30 17L29 17L29 16L27 16L27 15L28 15L28 14L27 14L27 12ZM23 15L23 16L24 16L24 17L25 17L25 16L24 16L24 15ZM28 17L28 18L29 18L29 17ZM6 18L6 19L7 19L7 18ZM4 20L4 21L3 21L3 23L4 23L4 22L5 22L5 20ZM9 21L9 23L10 23L10 21ZM22 21L22 22L21 22L21 23L22 23L22 22L24 22L24 23L25 23L25 22L24 22L24 21ZM2 24L2 25L3 25L3 24ZM27 24L27 25L28 25L28 24ZM19 25L19 26L20 26L20 25ZM12 26L12 27L13 27L13 26ZM0 27L0 28L1 28L1 27ZM6 27L6 28L7 28L7 27ZM22 27L22 28L23 28L23 27ZM13 28L13 29L14 29L14 28ZM1 29L1 30L0 30L0 31L2 31L2 32L0 32L0 33L4 33L4 32L5 32L5 31L4 31L4 32L3 32L3 31L2 31L2 29ZM16 29L16 30L17 30L17 29ZM31 29L31 31L32 31L32 29ZM38 29L38 30L39 30L39 29ZM22 32L22 33L23 33L23 32ZM31 33L31 34L32 34L32 33ZM33 33L33 36L36 36L36 33ZM12 34L12 35L13 35L13 34ZM18 34L18 35L19 35L19 34ZM34 34L34 35L35 35L35 34ZM39 34L39 35L40 35L40 34ZM25 35L25 36L26 36L26 35ZM18 36L18 39L19 39L19 37L20 37L20 38L21 38L21 39L22 39L22 37L20 37L20 36ZM25 39L25 40L26 40L26 39ZM36 40L36 41L37 41L37 40ZM40 40L40 41L41 41L41 40ZM0 0L0 7L7 7L7 0ZM1 1L1 6L6 6L6 1ZM2 2L2 5L5 5L5 2ZM34 0L34 7L41 7L41 0ZM35 1L35 6L40 6L40 1ZM36 2L36 5L39 5L39 2ZM0 34L0 41L7 41L7 34ZM1 35L1 40L6 40L6 35ZM2 36L2 39L5 39L5 36Z" fill="#000000"/></g></g></svg>
