<?xml version="1.0" encoding="UTF-8"?>
<svg xmlns="http://www.w3.org/2000/svg" version="1.1" width="300" height="300" viewBox="0 0 300 300"><rect x="0" y="0" width="300" height="300" fill="#ffffff"/><g transform="scale(7.317)"><g transform="translate(0,0)"><path fill-rule="evenodd" d="M8 0L8 3L9 3L9 4L10 4L10 3L11 3L11 2L13 2L13 3L12 3L12 5L11 5L11 6L10 6L10 7L9 7L9 5L8 5L8 9L9 9L9 8L10 8L10 10L11 10L11 12L10 12L10 11L9 11L9 10L8 10L8 11L7 11L7 10L6 10L6 9L7 9L7 8L6 8L6 9L5 9L5 8L2 8L2 9L1 9L1 10L0 10L0 17L1 17L1 20L0 20L0 21L2 21L2 22L4 22L4 23L3 23L3 24L2 24L2 23L0 23L0 24L1 24L1 25L0 25L0 33L1 33L1 29L4 29L4 31L3 31L3 30L2 30L2 32L3 32L3 33L8 33L8 34L9 34L9 35L10 35L10 36L11 36L11 35L12 35L12 33L13 33L13 32L14 32L14 30L15 30L15 29L14 29L14 28L15 28L15 27L17 27L17 28L16 28L16 30L17 30L17 29L18 29L18 28L21 28L21 27L22 27L22 26L23 26L23 30L22 30L22 31L21 31L21 32L19 32L19 31L20 31L20 29L19 29L19 30L18 30L18 31L17 31L17 32L18 32L18 34L19 34L19 33L20 33L20 34L21 34L21 35L17 35L17 34L16 34L16 33L14 33L14 34L13 34L13 36L15 36L15 38L14 38L14 37L13 37L13 38L14 38L14 39L10 39L10 38L9 38L9 36L8 36L8 39L10 39L10 40L9 40L9 41L10 41L10 40L11 40L11 41L12 41L12 40L13 40L13 41L17 41L17 40L18 40L18 41L19 41L19 40L21 40L21 41L22 41L22 40L21 40L21 39L19 39L19 40L18 40L18 39L17 39L17 38L18 38L18 37L17 37L17 36L21 36L21 35L22 35L22 37L21 37L21 38L23 38L23 39L24 39L24 40L25 40L25 41L27 41L27 40L29 40L29 41L30 41L30 40L29 40L29 38L27 38L27 37L28 37L28 36L27 36L27 35L28 35L28 34L27 34L27 33L26 33L26 34L25 34L25 33L23 33L23 32L22 32L22 31L24 31L24 32L26 32L26 31L27 31L27 30L32 30L32 28L33 28L33 29L34 29L34 32L32 32L32 31L31 31L31 32L29 32L29 31L28 31L28 33L31 33L31 32L32 32L32 35L31 35L31 34L29 34L29 35L30 35L30 39L32 39L32 40L33 40L33 41L34 41L34 39L36 39L36 40L35 40L35 41L39 41L39 40L40 40L40 38L41 38L41 35L40 35L40 38L39 38L39 36L38 36L38 34L39 34L39 33L40 33L40 34L41 34L41 33L40 33L40 32L41 32L41 31L39 31L39 30L41 30L41 29L40 29L40 28L38 28L38 27L37 27L37 26L38 26L38 25L39 25L39 26L40 26L40 25L39 25L39 24L38 24L38 25L35 25L35 26L36 26L36 27L35 27L35 29L34 29L34 25L32 25L32 24L33 24L33 21L34 21L34 24L35 24L35 21L36 21L36 24L37 24L37 23L38 23L38 21L39 21L39 22L41 22L41 21L40 21L40 20L41 20L41 19L40 19L40 20L38 20L38 19L39 19L39 18L38 18L38 17L39 17L39 16L37 16L37 14L38 14L38 13L39 13L39 14L41 14L41 13L39 13L39 12L38 12L38 11L37 11L37 9L36 9L36 8L33 8L33 6L32 6L32 7L31 7L31 6L30 6L30 5L33 5L33 4L29 4L29 2L30 2L30 3L31 3L31 2L30 2L30 1L31 1L31 0L30 0L30 1L29 1L29 0L27 0L27 1L26 1L26 0L23 0L23 1L25 1L25 3L26 3L26 4L23 4L23 3L24 3L24 2L23 2L23 3L21 3L21 2L22 2L22 1L21 1L21 0L18 0L18 2L16 2L16 5L17 5L17 6L16 6L16 7L17 7L17 8L18 8L18 9L16 9L16 8L13 8L13 9L11 9L11 8L12 8L12 7L13 7L13 5L14 5L14 7L15 7L15 5L14 5L14 4L15 4L15 0L12 0L12 1L10 1L10 0ZM32 0L32 2L33 2L33 0ZM13 1L13 2L14 2L14 1ZM9 2L9 3L10 3L10 2ZM18 2L18 3L17 3L17 4L18 4L18 6L17 6L17 7L18 7L18 6L19 6L19 7L20 7L20 5L19 5L19 3L20 3L20 4L21 4L21 8L22 8L22 6L23 6L23 7L24 7L24 8L25 8L25 9L22 9L22 10L25 10L25 11L22 11L22 12L21 12L21 9L20 9L20 11L18 11L18 14L17 14L17 16L16 16L16 13L17 13L17 11L15 11L15 12L14 12L14 10L13 10L13 11L12 11L12 13L11 13L11 15L12 15L12 13L13 13L13 12L14 12L14 13L15 13L15 15L14 15L14 14L13 14L13 15L14 15L14 16L12 16L12 18L11 18L11 16L10 16L10 14L8 14L8 13L10 13L10 12L7 12L7 11L6 11L6 10L5 10L5 9L3 9L3 10L1 10L1 11L3 11L3 15L2 15L2 14L1 14L1 15L2 15L2 18L3 18L3 15L4 15L4 17L5 17L5 18L4 18L4 19L3 19L3 21L4 21L4 19L5 19L5 18L8 18L8 20L7 20L7 19L6 19L6 20L5 20L5 21L6 21L6 22L5 22L5 25L4 25L4 27L2 27L2 26L3 26L3 25L1 25L1 27L2 27L2 28L5 28L5 29L6 29L6 30L8 30L8 29L6 29L6 28L13 28L13 27L15 27L15 26L13 26L13 24L14 24L14 25L16 25L16 26L19 26L19 27L21 27L21 26L22 26L22 24L26 24L26 25L25 25L25 26L24 26L24 27L25 27L25 26L26 26L26 25L27 25L27 26L28 26L28 27L29 27L29 28L27 28L27 27L26 27L26 29L25 29L25 28L24 28L24 30L27 30L27 29L29 29L29 28L30 28L30 29L31 29L31 28L30 28L30 27L29 27L29 26L30 26L30 25L31 25L31 23L32 23L32 22L31 22L31 21L33 21L33 19L32 19L32 17L33 17L33 16L32 16L32 13L33 13L33 14L34 14L34 13L35 13L35 16L34 16L34 17L35 17L35 18L34 18L34 21L35 21L35 20L36 20L36 21L38 21L38 20L36 20L36 17L37 17L37 16L36 16L36 13L37 13L37 12L36 12L36 13L35 13L35 10L36 10L36 9L35 9L35 10L34 10L34 13L33 13L33 12L32 12L32 11L33 11L33 10L31 10L31 11L30 11L30 9L33 9L33 8L31 8L31 7L30 7L30 6L29 6L29 5L28 5L28 3L27 3L27 2L26 2L26 3L27 3L27 4L26 4L26 5L24 5L24 6L23 6L23 5L22 5L22 4L21 4L21 3L20 3L20 2ZM26 5L26 7L25 7L25 6L24 6L24 7L25 7L25 8L26 8L26 9L25 9L25 10L26 10L26 9L28 9L28 10L27 10L27 12L28 12L28 13L26 13L26 11L25 11L25 12L24 12L24 13L19 13L19 15L18 15L18 17L17 17L17 18L14 18L14 17L13 17L13 18L12 18L12 19L10 19L10 18L9 18L9 19L10 19L10 20L11 20L11 22L9 22L9 21L7 21L7 20L6 20L6 21L7 21L7 22L6 22L6 23L7 23L7 22L9 22L9 24L8 24L8 25L10 25L10 26L6 26L6 27L5 27L5 28L6 28L6 27L11 27L11 26L12 26L12 23L13 23L13 22L14 22L14 24L16 24L16 25L17 25L17 24L16 24L16 23L15 23L15 22L17 22L17 23L18 23L18 22L19 22L19 23L20 23L20 22L19 22L19 21L21 21L21 20L19 20L19 19L18 19L18 20L17 20L17 18L19 18L19 17L20 17L20 16L19 16L19 15L21 15L21 14L23 14L23 15L22 15L22 16L21 16L21 19L23 19L23 20L27 20L27 21L25 21L25 22L26 22L26 23L28 23L28 24L29 24L29 25L28 25L28 26L29 26L29 25L30 25L30 24L29 24L29 23L31 23L31 22L29 22L29 21L31 21L31 20L32 20L32 19L31 19L31 20L29 20L29 19L30 19L30 18L31 18L31 17L32 17L32 16L29 16L29 19L28 19L28 18L27 18L27 17L28 17L28 15L30 15L30 14L28 14L28 13L30 13L30 12L28 12L28 10L29 10L29 9L30 9L30 8L29 8L29 9L28 9L28 7L29 7L29 6L28 6L28 5ZM11 6L11 7L10 7L10 8L11 8L11 7L12 7L12 6ZM27 6L27 7L26 7L26 8L27 8L27 7L28 7L28 6ZM38 8L38 10L39 10L39 9L41 9L41 8ZM15 9L15 10L16 10L16 9ZM18 9L18 10L19 10L19 9ZM3 10L3 11L4 11L4 10ZM5 11L5 12L4 12L4 15L7 15L7 14L6 14L6 13L7 13L7 12L6 12L6 11ZM40 11L40 12L41 12L41 11ZM5 12L5 13L6 13L6 12ZM15 12L15 13L16 13L16 12ZM31 12L31 13L32 13L32 12ZM24 13L24 14L25 14L25 13ZM26 14L26 16L27 16L27 14ZM8 15L8 17L10 17L10 16L9 16L9 15ZM23 15L23 19L26 19L26 17L25 17L25 15ZM40 15L40 18L41 18L41 15ZM6 16L6 17L7 17L7 16ZM35 16L35 17L36 17L36 16ZM37 18L37 19L38 19L38 18ZM12 19L12 22L11 22L11 23L12 23L12 22L13 22L13 19ZM14 19L14 22L15 22L15 20L16 20L16 21L17 21L17 22L18 22L18 21L17 21L17 20L16 20L16 19ZM27 19L27 20L28 20L28 19ZM27 21L27 22L28 22L28 21ZM40 23L40 24L41 24L41 23ZM6 24L6 25L7 25L7 24ZM10 24L10 25L11 25L11 24ZM18 24L18 25L19 25L19 24ZM20 24L20 26L21 26L21 24ZM31 26L31 27L32 27L32 26ZM36 27L36 29L35 29L35 32L39 32L39 31L38 31L38 29L37 29L37 27ZM10 29L10 32L9 32L9 31L8 31L8 32L9 32L9 34L10 34L10 33L11 33L11 30L12 30L12 31L13 31L13 29ZM36 29L36 31L37 31L37 29ZM5 31L5 32L7 32L7 31ZM21 33L21 34L22 34L22 35L24 35L24 34L22 34L22 33ZM33 33L33 36L36 36L36 33ZM37 33L37 34L38 34L38 33ZM34 34L34 35L35 35L35 34ZM15 35L15 36L17 36L17 35ZM23 36L23 37L24 37L24 39L25 39L25 37L27 37L27 36ZM31 36L31 38L32 38L32 39L33 39L33 37L32 37L32 36ZM37 36L37 37L36 37L36 38L37 38L37 37L38 37L38 36ZM16 37L16 38L17 38L17 37ZM19 37L19 38L20 38L20 37ZM34 37L34 38L35 38L35 37ZM38 38L38 39L37 39L37 40L39 40L39 38ZM15 39L15 40L16 40L16 39ZM26 39L26 40L27 40L27 39ZM0 0L0 7L7 7L7 0ZM1 1L1 6L6 6L6 1ZM2 2L2 5L5 5L5 2ZM34 0L34 7L41 7L41 0ZM35 1L35 6L40 6L40 1ZM36 2L36 5L39 5L39 2ZM0 34L0 41L7 41L7 34ZM1 35L1 40L6 40L6 35ZM2 36L2 39L5 39L5 36Z" fill="#000000"/></g></g></svg>
