<?xml version="1.0" encoding="UTF-8"?>
<svg xmlns="http://www.w3.org/2000/svg" version="1.1" width="300" height="300" viewBox="0 0 300 300"><rect x="0" y="0" width="300" height="300" fill="#ffffff"/><g transform="scale(7.317)"><g transform="translate(0,0)"><path fill-rule="evenodd" d="M8 0L8 3L9 3L9 4L10 4L10 5L11 5L11 6L10 6L10 7L9 7L9 5L8 5L8 9L7 9L7 8L6 8L6 9L7 9L7 10L4 10L4 11L5 11L5 12L4 12L4 15L3 15L3 12L2 12L2 13L0 13L0 17L1 17L1 20L0 20L0 22L1 22L1 23L0 23L0 24L2 24L2 25L0 25L0 28L2 28L2 29L4 29L4 31L3 31L3 30L2 30L2 32L3 32L3 33L8 33L8 34L9 34L9 32L10 32L10 35L9 35L9 36L8 36L8 39L10 39L10 40L9 40L9 41L10 41L10 40L11 40L11 41L12 41L12 40L13 40L13 41L17 41L17 40L18 40L18 41L19 41L19 40L21 40L21 41L22 41L22 40L21 40L21 39L19 39L19 40L18 40L18 39L17 39L17 38L18 38L18 37L17 37L17 36L18 36L18 35L19 35L19 38L20 38L20 36L22 36L22 37L21 37L21 38L22 38L22 37L23 37L23 39L24 39L24 40L25 40L25 41L27 41L27 40L29 40L29 41L30 41L30 40L29 40L29 38L27 38L27 37L28 37L28 36L27 36L27 37L25 37L25 39L24 39L24 37L23 37L23 36L25 36L25 35L24 35L24 33L23 33L23 31L21 31L21 30L22 30L22 29L21 29L21 27L22 27L22 26L23 26L23 30L24 30L24 31L27 31L27 30L32 30L32 28L33 28L33 29L34 29L34 32L32 32L32 31L31 31L31 32L29 32L29 31L28 31L28 33L31 33L31 32L32 32L32 35L31 35L31 36L30 36L30 39L32 39L32 40L33 40L33 41L34 41L34 39L36 39L36 40L35 40L35 41L39 41L39 40L40 40L40 38L41 38L41 35L40 35L40 38L39 38L39 36L38 36L38 34L39 34L39 33L40 33L40 34L41 34L41 33L40 33L40 32L41 32L41 31L39 31L39 30L41 30L41 27L39 27L39 28L38 28L38 27L37 27L37 26L38 26L38 25L39 25L39 26L40 26L40 25L39 25L39 24L38 24L38 25L35 25L35 26L36 26L36 27L35 27L35 29L34 29L34 25L32 25L32 24L33 24L33 21L34 21L34 24L35 24L35 21L36 21L36 24L37 24L37 21L36 21L36 20L38 20L38 21L39 21L39 22L38 22L38 23L39 23L39 22L41 22L41 21L40 21L40 20L41 20L41 19L40 19L40 20L38 20L38 19L39 19L39 18L38 18L38 17L39 17L39 16L37 16L37 14L38 14L38 13L39 13L39 14L41 14L41 11L40 11L40 10L41 10L41 8L38 8L38 10L39 10L39 12L38 12L38 11L37 11L37 9L36 9L36 8L33 8L33 6L32 6L32 7L31 7L31 6L30 6L30 5L33 5L33 4L29 4L29 2L30 2L30 3L31 3L31 2L30 2L30 1L31 1L31 0L30 0L30 1L29 1L29 0L24 0L24 2L23 2L23 1L22 1L22 0L21 0L21 1L20 1L20 2L18 2L18 3L21 3L21 1L22 1L22 2L23 2L23 3L22 3L22 5L23 5L23 6L22 6L22 8L21 8L21 4L17 4L17 3L16 3L16 2L17 2L17 1L19 1L19 0L15 0L15 1L16 1L16 2L14 2L14 1L13 1L13 2L11 2L11 1L12 1L12 0L10 0L10 1L9 1L9 0ZM32 0L32 2L33 2L33 0ZM13 2L13 4L15 4L15 7L14 7L14 5L13 5L13 7L12 7L12 6L11 6L11 7L10 7L10 8L9 8L9 9L8 9L8 10L7 10L7 11L6 11L6 12L5 12L5 14L7 14L7 15L4 15L4 17L5 17L5 18L4 18L4 19L3 19L3 20L4 20L4 19L5 19L5 18L8 18L8 20L7 20L7 19L6 19L6 20L5 20L5 21L3 21L3 22L2 22L2 21L1 21L1 22L2 22L2 24L3 24L3 22L4 22L4 23L6 23L6 24L5 24L5 26L7 26L7 27L5 27L5 28L4 28L4 29L5 29L5 28L7 28L7 27L9 27L9 28L12 28L12 29L13 29L13 27L15 27L15 28L14 28L14 29L15 29L15 30L16 30L16 32L15 32L15 33L14 33L14 32L12 32L12 33L11 33L11 34L12 34L12 33L14 33L14 34L13 34L13 36L11 36L11 37L10 37L10 36L9 36L9 38L10 38L10 39L14 39L14 38L15 38L15 37L16 37L16 38L17 38L17 37L16 37L16 36L17 36L17 35L16 35L16 36L15 36L15 37L14 37L14 38L13 38L13 36L14 36L14 34L16 34L16 32L17 32L17 34L19 34L19 35L20 35L20 34L22 34L22 36L23 36L23 34L22 34L22 33L20 33L20 34L19 34L19 33L18 33L18 31L17 31L17 30L19 30L19 31L20 31L20 30L19 30L19 29L20 29L20 28L18 28L18 29L17 29L17 27L15 27L15 26L13 26L13 24L14 24L14 25L16 25L16 26L19 26L19 27L21 27L21 26L22 26L22 24L26 24L26 25L25 25L25 26L24 26L24 27L25 27L25 26L26 26L26 25L27 25L27 26L28 26L28 27L29 27L29 28L27 28L27 27L26 27L26 29L25 29L25 30L27 30L27 29L29 29L29 28L30 28L30 29L31 29L31 28L30 28L30 27L29 27L29 26L30 26L30 25L31 25L31 23L32 23L32 22L31 22L31 21L33 21L33 19L32 19L32 17L33 17L33 16L32 16L32 13L33 13L33 14L34 14L34 13L35 13L35 16L34 16L34 17L35 17L35 18L34 18L34 21L35 21L35 20L36 20L36 17L37 17L37 16L36 16L36 13L37 13L37 12L36 12L36 13L35 13L35 10L36 10L36 9L35 9L35 10L34 10L34 13L33 13L33 12L32 12L32 11L33 11L33 10L31 10L31 11L30 11L30 9L33 9L33 8L31 8L31 7L30 7L30 6L29 6L29 5L28 5L28 3L27 3L27 2L26 2L26 3L25 3L25 2L24 2L24 3L23 3L23 4L26 4L26 5L24 5L24 6L23 6L23 7L24 7L24 8L25 8L25 9L22 9L22 10L25 10L25 11L22 11L22 12L21 12L21 9L20 9L20 11L18 11L18 14L19 14L19 15L20 15L20 16L21 16L21 18L17 18L17 19L18 19L18 21L17 21L17 20L16 20L16 17L19 17L19 16L18 16L18 15L16 15L16 14L15 14L15 15L16 15L16 16L14 16L14 15L12 15L12 16L11 16L11 15L9 15L9 14L10 14L10 12L11 12L11 10L10 10L10 8L11 8L11 9L13 9L13 8L16 8L16 9L15 9L15 10L16 10L16 9L18 9L18 10L19 10L19 9L18 9L18 8L17 8L17 7L18 7L18 6L19 6L19 7L20 7L20 5L18 5L18 6L17 6L17 5L16 5L16 4L15 4L15 3L14 3L14 2ZM10 3L10 4L11 4L11 5L12 5L12 3ZM26 3L26 4L27 4L27 3ZM26 5L26 7L25 7L25 6L24 6L24 7L25 7L25 8L26 8L26 9L25 9L25 10L26 10L26 9L28 9L28 10L27 10L27 12L28 12L28 13L26 13L26 11L25 11L25 13L24 13L24 14L23 14L23 13L22 13L22 14L21 14L21 16L22 16L22 17L24 17L24 18L23 18L23 19L22 19L22 20L25 20L25 22L26 22L26 23L28 23L28 24L29 24L29 25L28 25L28 26L29 26L29 25L30 25L30 24L29 24L29 23L31 23L31 22L29 22L29 21L31 21L31 20L32 20L32 19L31 19L31 20L29 20L29 19L30 19L30 18L31 18L31 17L32 17L32 16L29 16L29 19L28 19L28 18L27 18L27 17L28 17L28 15L30 15L30 14L28 14L28 13L30 13L30 12L28 12L28 10L29 10L29 9L30 9L30 8L29 8L29 9L28 9L28 7L29 7L29 6L28 6L28 5ZM16 6L16 7L17 7L17 6ZM27 6L27 7L26 7L26 8L27 8L27 7L28 7L28 6ZM11 7L11 8L12 8L12 7ZM2 8L2 9L1 9L1 10L0 10L0 11L1 11L1 10L2 10L2 11L3 11L3 10L2 10L2 9L5 9L5 8ZM39 9L39 10L40 10L40 9ZM13 10L13 11L12 11L12 12L14 12L14 13L15 13L15 12L17 12L17 11L15 11L15 12L14 12L14 10ZM7 11L7 12L6 12L6 13L8 13L8 14L9 14L9 13L8 13L8 12L10 12L10 11ZM20 12L20 13L19 13L19 14L20 14L20 13L21 13L21 12ZM31 12L31 13L32 13L32 12ZM39 12L39 13L40 13L40 12ZM12 13L12 14L13 14L13 13ZM25 13L25 16L26 16L26 17L25 17L25 18L24 18L24 19L26 19L26 20L28 20L28 19L27 19L27 18L26 18L26 17L27 17L27 16L26 16L26 13ZM1 14L1 15L2 15L2 18L3 18L3 15L2 15L2 14ZM8 15L8 17L9 17L9 18L10 18L10 20L9 20L9 21L8 21L8 22L9 22L9 23L8 23L8 24L6 24L6 25L8 25L8 24L9 24L9 25L10 25L10 26L9 26L9 27L11 27L11 26L12 26L12 23L13 23L13 22L14 22L14 24L16 24L16 25L17 25L17 24L16 24L16 23L15 23L15 22L17 22L17 23L18 23L18 22L17 22L17 21L16 21L16 20L14 20L14 19L15 19L15 18L14 18L14 17L13 17L13 16L12 16L12 17L11 17L11 16L9 16L9 15ZM22 15L22 16L23 16L23 15ZM40 15L40 18L41 18L41 15ZM6 16L6 17L7 17L7 16ZM35 16L35 17L36 17L36 16ZM12 17L12 18L13 18L13 17ZM37 18L37 19L38 19L38 18ZM11 19L11 21L12 21L12 22L11 22L11 23L12 23L12 22L13 22L13 20L12 20L12 19ZM19 19L19 21L21 21L21 19ZM6 20L6 21L5 21L5 22L6 22L6 23L7 23L7 22L6 22L6 21L7 21L7 20ZM9 21L9 22L10 22L10 21ZM14 21L14 22L15 22L15 21ZM22 21L22 22L23 22L23 21ZM26 21L26 22L28 22L28 21ZM19 22L19 23L20 23L20 22ZM40 23L40 24L41 24L41 23ZM10 24L10 25L11 25L11 24ZM18 24L18 25L19 25L19 24ZM20 24L20 26L21 26L21 24ZM2 26L2 28L3 28L3 26ZM31 26L31 27L32 27L32 26ZM36 27L36 29L35 29L35 32L39 32L39 31L38 31L38 29L37 29L37 27ZM0 29L0 33L1 33L1 29ZM6 29L6 30L8 30L8 29ZM10 29L10 30L9 30L9 31L8 31L8 32L9 32L9 31L10 31L10 32L11 32L11 31L14 31L14 30L11 30L11 29ZM16 29L16 30L17 30L17 29ZM36 29L36 31L37 31L37 29ZM10 30L10 31L11 31L11 30ZM5 31L5 32L7 32L7 31ZM25 33L25 34L26 34L26 35L28 35L28 34L26 34L26 33ZM33 33L33 36L36 36L36 33ZM37 33L37 34L38 34L38 33ZM34 34L34 35L35 35L35 34ZM31 36L31 38L32 38L32 39L33 39L33 37L32 37L32 36ZM37 36L37 37L36 37L36 38L37 38L37 37L38 37L38 36ZM34 37L34 38L35 38L35 37ZM38 38L38 39L37 39L37 40L39 40L39 38ZM15 39L15 40L16 40L16 39ZM26 39L26 40L27 40L27 39ZM0 0L0 7L7 7L7 0ZM1 1L1 6L6 6L6 1ZM2 2L2 5L5 5L5 2ZM34 0L34 7L41 7L41 0ZM35 1L35 6L40 6L40 1ZM36 2L36 5L39 5L39 2ZM0 34L0 41L7 41L7 34ZM1 35L1 40L6 40L6 35ZM2 36L2 39L5 39L5 36Z" fill="#000000"/></g></g></svg>
