<?xml version="1.0" encoding="UTF-8"?>
<svg xmlns="http://www.w3.org/2000/svg" version="1.1" width="300" height="300" viewBox="0 0 300 300"><rect x="0" y="0" width="300" height="300" fill="#ffffff"/><g transform="scale(6.122)"><g transform="translate(0,0)"><path fill-rule="evenodd" d="M8 0L8 1L9 1L9 2L8 2L8 3L9 3L9 2L10 2L10 3L13 3L13 1L14 1L14 3L15 3L15 4L14 4L14 5L13 5L13 4L11 4L11 5L10 5L10 9L9 9L9 10L8 10L8 12L6 12L6 11L7 11L7 10L5 10L5 11L4 11L4 9L2 9L2 10L1 10L1 9L0 9L0 10L1 10L1 12L0 12L0 13L1 13L1 14L4 14L4 15L5 15L5 16L4 16L4 17L5 17L5 18L3 18L3 16L1 16L1 15L0 15L0 19L3 19L3 20L2 20L2 21L1 21L1 20L0 20L0 23L1 23L1 24L0 24L0 25L1 25L1 24L2 24L2 25L3 25L3 24L4 24L4 27L3 27L3 26L2 26L2 27L1 27L1 26L0 26L0 27L1 27L1 28L0 28L0 29L2 29L2 30L3 30L3 29L4 29L4 31L7 31L7 30L6 30L6 29L8 29L8 34L9 34L9 33L10 33L10 34L11 34L11 36L13 36L13 37L14 37L14 38L11 38L11 40L10 40L10 39L9 39L9 38L5 38L5 37L9 37L9 36L6 36L6 35L7 35L7 34L6 34L6 35L5 35L5 34L4 34L4 33L7 33L7 32L4 32L4 33L3 33L3 32L2 32L2 33L3 33L3 34L2 34L2 35L0 35L0 36L2 36L2 35L3 35L3 38L5 38L5 39L8 39L8 40L6 40L6 41L8 41L8 42L9 42L9 41L10 41L10 42L12 42L12 43L11 43L11 44L9 44L9 43L8 43L8 44L9 44L9 46L11 46L11 47L9 47L9 49L10 49L10 48L12 48L12 49L13 49L13 48L12 48L12 47L14 47L14 46L13 46L13 44L14 44L14 45L16 45L16 44L18 44L18 43L16 43L16 42L20 42L20 43L19 43L19 44L20 44L20 46L16 46L16 47L18 47L18 48L17 48L17 49L18 49L18 48L19 48L19 49L20 49L20 48L22 48L22 46L23 46L23 45L29 45L29 44L30 44L30 45L32 45L32 46L29 46L29 47L28 47L28 48L30 48L30 49L33 49L33 48L34 48L34 49L35 49L35 45L37 45L37 46L36 46L36 47L37 47L37 48L36 48L36 49L37 49L37 48L39 48L39 45L37 45L37 44L39 44L39 42L38 42L38 43L37 43L37 44L35 44L35 42L37 42L37 41L38 41L38 40L39 40L39 41L40 41L40 48L41 48L41 49L45 49L45 47L46 47L46 46L47 46L47 47L48 47L48 49L49 49L49 45L48 45L48 46L47 46L47 44L46 44L46 43L47 43L47 42L46 42L46 41L45 41L45 38L44 38L44 37L45 37L45 36L42 36L42 37L41 37L41 36L40 36L40 35L44 35L44 34L45 34L45 35L46 35L46 34L47 34L47 33L46 33L46 31L48 31L48 33L49 33L49 30L48 30L48 29L49 29L49 24L47 24L47 26L48 26L48 27L45 27L45 24L46 24L46 23L49 23L49 22L47 22L47 21L48 21L48 19L49 19L49 18L48 18L48 17L49 17L49 14L47 14L47 13L45 13L45 11L46 11L46 10L47 10L47 12L48 12L48 11L49 11L49 8L48 8L48 10L47 10L47 8L46 8L46 10L45 10L45 8L44 8L44 9L43 9L43 8L42 8L42 9L41 9L41 6L40 6L40 7L39 7L39 5L38 5L38 3L35 3L35 5L34 5L34 7L33 7L33 2L35 2L35 0L34 0L34 1L33 1L33 2L32 2L32 1L30 1L30 0L29 0L29 1L28 1L28 3L27 3L27 2L26 2L26 0L25 0L25 2L23 2L23 1L24 1L24 0L20 0L20 1L19 1L19 0L18 0L18 1L17 1L17 2L18 2L18 3L16 3L16 2L15 2L15 0L13 0L13 1L11 1L11 2L10 2L10 1L9 1L9 0ZM36 0L36 2L39 2L39 4L40 4L40 3L41 3L41 0L40 0L40 1L37 1L37 0ZM18 1L18 2L19 2L19 3L18 3L18 4L17 4L17 7L16 7L16 5L14 5L14 6L13 6L13 8L14 8L14 9L12 9L12 6L11 6L11 9L10 9L10 10L14 10L14 12L12 12L12 11L11 11L11 12L12 12L12 13L13 13L13 14L11 14L11 15L10 15L10 18L9 18L9 17L8 17L8 16L9 16L9 15L8 15L8 16L7 16L7 15L6 15L6 16L5 16L5 17L6 17L6 18L5 18L5 20L4 20L4 21L3 21L3 22L2 22L2 24L3 24L3 23L4 23L4 21L5 21L5 20L7 20L7 21L6 21L6 22L9 22L9 23L10 23L10 24L9 24L9 27L10 27L10 28L9 28L9 29L11 29L11 30L10 30L10 31L11 31L11 34L12 34L12 33L14 33L14 32L15 32L15 36L14 36L14 37L15 37L15 38L16 38L16 35L17 35L17 34L16 34L16 33L17 33L17 31L16 31L16 32L15 32L15 31L13 31L13 29L12 29L12 28L13 28L13 27L14 27L14 30L16 30L16 28L17 28L17 30L18 30L18 31L20 31L20 32L23 32L23 34L22 34L22 33L21 33L21 34L19 34L19 33L18 33L18 35L20 35L20 36L21 36L21 35L22 35L22 36L23 36L23 35L26 35L26 36L24 36L24 39L23 39L23 37L22 37L22 39L20 39L20 38L21 38L21 37L19 37L19 38L18 38L18 39L13 39L13 40L12 40L12 42L13 42L13 43L12 43L12 44L11 44L11 45L12 45L12 44L13 44L13 43L14 43L14 41L15 41L15 42L16 42L16 41L18 41L18 40L19 40L19 39L20 39L20 40L24 40L24 39L25 39L25 40L28 40L28 41L27 41L27 42L28 42L28 43L27 43L27 44L28 44L28 43L29 43L29 42L28 42L28 41L29 41L29 40L28 40L28 38L29 38L29 39L30 39L30 40L31 40L31 41L30 41L30 44L32 44L32 45L33 45L33 44L32 44L32 43L34 43L34 42L35 42L35 40L34 40L34 39L36 39L36 35L38 35L38 32L39 32L39 31L40 31L40 33L39 33L39 35L40 35L40 34L41 34L41 31L40 31L40 29L39 29L39 28L38 28L38 26L39 26L39 27L40 27L40 26L39 26L39 25L40 25L40 24L39 24L39 23L40 23L40 20L41 20L41 22L42 22L42 17L41 17L41 16L42 16L42 14L41 14L41 13L42 13L42 12L43 12L43 13L44 13L44 11L45 11L45 10L43 10L43 11L42 11L42 10L40 10L40 8L39 8L39 7L38 7L38 6L37 6L37 10L38 10L38 8L39 8L39 10L40 10L40 11L38 11L38 12L40 12L40 13L36 13L36 15L38 15L38 16L37 16L37 17L36 17L36 18L37 18L37 17L38 17L38 16L39 16L39 23L38 23L38 22L37 22L37 21L36 21L36 23L33 23L33 21L35 21L35 20L37 20L37 19L32 19L32 18L33 18L33 15L32 15L32 14L34 14L34 16L35 16L35 13L34 13L34 12L35 12L35 11L36 11L36 12L37 12L37 11L36 11L36 10L34 10L34 11L33 11L33 7L32 7L32 5L30 5L30 4L31 4L31 3L32 3L32 2L30 2L30 3L28 3L28 6L27 6L27 7L28 7L28 6L29 6L29 8L28 8L28 9L29 9L29 10L28 10L28 11L29 11L29 12L27 12L27 11L26 11L26 10L27 10L27 9L24 9L24 11L23 11L23 9L22 9L22 10L21 10L21 9L20 9L20 5L22 5L22 4L23 4L23 3L22 3L22 2L21 2L21 3L22 3L22 4L19 4L19 3L20 3L20 2L19 2L19 1ZM24 3L24 4L25 4L25 3ZM26 3L26 4L27 4L27 3ZM8 4L8 5L9 5L9 4ZM18 4L18 8L16 8L16 7L15 7L15 6L14 6L14 8L16 8L16 9L18 9L18 10L16 10L16 12L17 12L17 13L16 13L16 14L15 14L15 15L16 15L16 14L18 14L18 13L19 13L19 16L18 16L18 15L17 15L17 17L19 17L19 18L18 18L18 20L19 20L19 21L16 21L16 20L17 20L17 18L16 18L16 17L15 17L15 18L16 18L16 19L15 19L15 20L14 20L14 21L13 21L13 22L12 22L12 20L13 20L13 19L12 19L12 18L14 18L14 16L13 16L13 17L12 17L12 15L11 15L11 17L12 17L12 18L11 18L11 19L12 19L12 20L10 20L10 21L9 21L9 20L8 20L8 19L9 19L9 18L8 18L8 19L7 19L7 18L6 18L6 19L7 19L7 20L8 20L8 21L9 21L9 22L12 22L12 23L13 23L13 25L12 25L12 24L11 24L11 26L10 26L10 27L11 27L11 28L12 28L12 26L14 26L14 25L15 25L15 26L16 26L16 27L15 27L15 28L16 28L16 27L17 27L17 28L18 28L18 25L17 25L17 24L18 24L18 22L19 22L19 21L20 21L20 22L21 22L21 23L19 23L19 29L18 29L18 30L19 30L19 29L20 29L20 24L21 24L21 23L22 23L22 27L21 27L21 29L22 29L22 27L23 27L23 30L20 30L20 31L23 31L23 32L24 32L24 31L23 31L23 30L25 30L25 31L27 31L27 33L28 33L28 34L26 34L26 35L27 35L27 36L26 36L26 37L25 37L25 38L26 38L26 39L27 39L27 38L26 38L26 37L27 37L27 36L28 36L28 34L29 34L29 33L28 33L28 32L30 32L30 34L31 34L31 35L30 35L30 36L29 36L29 38L30 38L30 36L31 36L31 38L32 38L32 37L33 37L33 39L34 39L34 38L35 38L35 37L34 37L34 36L35 36L35 35L36 35L36 34L35 34L35 33L36 33L36 32L38 32L38 31L36 31L36 32L34 32L34 34L31 34L31 33L33 33L33 32L30 32L30 28L29 28L29 26L28 26L28 25L29 25L29 24L28 24L28 23L29 23L29 22L30 22L30 23L31 23L31 25L30 25L30 27L31 27L31 26L32 26L32 25L33 25L33 27L32 27L32 28L31 28L31 29L32 29L32 30L33 30L33 31L34 31L34 29L33 29L33 27L37 27L37 26L34 26L34 24L32 24L32 23L31 23L31 22L32 22L32 20L31 20L31 18L30 18L30 19L29 19L29 20L30 20L30 21L29 21L29 22L28 22L28 20L27 20L27 18L28 18L28 14L27 14L27 13L26 13L26 12L21 12L21 13L20 13L20 12L19 12L19 11L18 11L18 10L20 10L20 9L18 9L18 8L19 8L19 4ZM36 4L36 5L35 5L35 7L34 7L34 9L36 9L36 8L35 8L35 7L36 7L36 5L37 5L37 4ZM23 5L23 8L26 8L26 5ZM8 6L8 8L9 8L9 6ZM21 6L21 8L22 8L22 6ZM24 6L24 7L25 7L25 6ZM30 6L30 8L29 8L29 9L31 9L31 6ZM5 8L5 9L7 9L7 8ZM2 10L2 13L4 13L4 14L7 14L7 13L4 13L4 11L3 11L3 10ZM30 10L30 12L29 12L29 14L32 14L32 13L33 13L33 12L32 12L32 13L30 13L30 12L31 12L31 10ZM41 11L41 12L42 12L42 11ZM8 12L8 14L10 14L10 13L9 13L9 12ZM21 13L21 15L20 15L20 16L19 16L19 17L20 17L20 18L21 18L21 19L20 19L20 20L21 20L21 22L23 22L23 21L22 21L22 20L21 20L21 19L23 19L23 20L25 20L25 22L26 22L26 20L25 20L25 17L26 17L26 18L27 18L27 16L26 16L26 15L27 15L27 14L25 14L25 17L24 17L24 19L23 19L23 16L24 16L24 13ZM13 14L13 15L14 15L14 14ZM22 14L22 15L21 15L21 16L23 16L23 14ZM38 14L38 15L39 15L39 16L40 16L40 15L41 15L41 14L40 14L40 15L39 15L39 14ZM43 14L43 15L44 15L44 16L43 16L43 18L44 18L44 19L45 19L45 18L46 18L46 17L48 17L48 15L46 15L46 17L45 17L45 14ZM29 15L29 16L30 16L30 15ZM6 16L6 17L7 17L7 16ZM31 16L31 17L32 17L32 16ZM1 17L1 18L2 18L2 17ZM21 17L21 18L22 18L22 17ZM44 17L44 18L45 18L45 17ZM40 18L40 19L41 19L41 18ZM47 18L47 19L46 19L46 20L44 20L44 21L43 21L43 22L44 22L44 21L45 21L45 23L46 23L46 20L47 20L47 19L48 19L48 18ZM30 21L30 22L31 22L31 21ZM14 22L14 23L15 23L15 22ZM27 22L27 23L28 23L28 22ZM5 23L5 26L8 26L8 23ZM16 23L16 24L15 24L15 25L16 25L16 26L17 26L17 25L16 25L16 24L17 24L17 23ZM23 23L23 26L26 26L26 23ZM41 23L41 26L44 26L44 23ZM6 24L6 25L7 25L7 24ZM24 24L24 25L25 25L25 24ZM27 24L27 25L28 25L28 24ZM36 24L36 25L39 25L39 24ZM42 24L42 25L43 25L43 24ZM27 26L27 27L25 27L25 28L24 28L24 29L25 29L25 30L26 30L26 28L27 28L27 29L28 29L28 30L27 30L27 31L28 31L28 30L29 30L29 28L27 28L27 27L28 27L28 26ZM6 27L6 28L7 28L7 27ZM42 27L42 28L41 28L41 30L42 30L42 29L46 29L46 30L47 30L47 29L48 29L48 28L47 28L47 29L46 29L46 28L43 28L43 27ZM2 28L2 29L3 29L3 28ZM4 28L4 29L5 29L5 28ZM35 28L35 30L36 30L36 29L37 29L37 30L38 30L38 29L37 29L37 28ZM0 30L0 31L1 31L1 30ZM11 30L11 31L12 31L12 32L13 32L13 31L12 31L12 30ZM44 30L44 31L45 31L45 30ZM42 31L42 32L43 32L43 34L44 34L44 32L43 32L43 31ZM0 33L0 34L1 34L1 33ZM24 33L24 34L25 34L25 33ZM45 33L45 34L46 34L46 33ZM13 34L13 35L14 35L14 34ZM48 34L48 35L47 35L47 36L48 36L48 37L47 37L47 39L46 39L46 40L47 40L47 41L48 41L48 40L49 40L49 38L48 38L48 37L49 37L49 34ZM4 35L4 37L5 37L5 35ZM32 35L32 36L33 36L33 35ZM17 36L17 37L18 37L18 36ZM37 36L37 37L38 37L38 39L37 39L37 40L38 40L38 39L39 39L39 38L40 38L40 39L41 39L41 40L44 40L44 39L42 39L42 38L43 38L43 37L42 37L42 38L41 38L41 37L38 37L38 36ZM0 37L0 38L1 38L1 40L0 40L0 41L3 41L3 40L4 40L4 39L2 39L2 37ZM31 39L31 40L32 40L32 39ZM15 40L15 41L16 41L16 40ZM21 41L21 42L22 42L22 41ZM23 41L23 44L26 44L26 41ZM31 41L31 42L32 42L32 41ZM41 41L41 44L44 44L44 41ZM24 42L24 43L25 43L25 42ZM42 42L42 43L43 43L43 42ZM48 42L48 44L49 44L49 42ZM20 43L20 44L22 44L22 43ZM34 44L34 45L35 45L35 44ZM45 44L45 45L43 45L43 46L41 46L41 47L43 47L43 48L44 48L44 47L45 47L45 45L46 45L46 44ZM25 46L25 47L24 47L24 48L26 48L26 47L27 47L27 46ZM37 46L37 47L38 47L38 46ZM43 46L43 47L44 47L44 46ZM19 47L19 48L20 48L20 47ZM31 47L31 48L32 48L32 47ZM14 48L14 49L16 49L16 48ZM0 0L0 7L7 7L7 0ZM1 1L1 6L6 6L6 1ZM2 2L2 5L5 5L5 2ZM42 0L42 7L49 7L49 0ZM43 1L43 6L48 6L48 1ZM44 2L44 5L47 5L47 2ZM0 42L0 49L7 49L7 42ZM1 43L1 48L6 48L6 43ZM2 44L2 47L5 47L5 44Z" fill="#000000"/></g></g></svg>
