<?xml version="1.0" encoding="UTF-8"?>
<svg xmlns="http://www.w3.org/2000/svg" version="1.1" width="300" height="300" viewBox="0 0 300 300"><rect x="0" y="0" width="300" height="300" fill="#ffffff"/><g transform="scale(6.122)"><g transform="translate(0,0)"><path fill-rule="evenodd" d="M8 0L8 1L9 1L9 0ZM13 0L13 1L10 1L10 2L11 2L11 3L10 3L10 4L11 4L11 6L10 6L10 5L9 5L9 4L8 4L8 5L9 5L9 6L8 6L8 8L9 8L9 9L11 9L11 8L9 8L9 6L10 6L10 7L11 7L11 6L12 6L12 9L15 9L15 8L16 8L16 9L18 9L18 10L16 10L16 12L17 12L17 13L16 13L16 14L15 14L15 15L16 15L16 14L18 14L18 13L19 13L19 16L18 16L18 15L17 15L17 17L19 17L19 18L18 18L18 20L19 20L19 19L21 19L21 20L20 20L20 22L21 22L21 25L22 25L22 26L21 26L21 27L23 27L23 29L22 29L22 28L21 28L21 29L22 29L22 30L20 30L20 31L19 31L19 29L20 29L20 24L19 24L19 27L18 27L18 25L17 25L17 24L18 24L18 22L19 22L19 21L15 21L15 20L14 20L14 21L12 21L12 20L10 20L10 21L9 21L9 20L8 20L8 19L9 19L9 18L10 18L10 15L11 15L11 16L12 16L12 15L11 15L11 14L13 14L13 15L14 15L14 14L13 14L13 13L12 13L12 12L14 12L14 10L9 10L9 11L8 11L8 12L6 12L6 11L7 11L7 10L6 10L6 11L5 11L5 9L7 9L7 8L5 8L5 9L4 9L4 10L2 10L2 9L1 9L1 12L0 12L0 13L1 13L1 14L3 14L3 15L2 15L2 16L1 16L1 15L0 15L0 19L3 19L3 20L2 20L2 21L1 21L1 20L0 20L0 23L1 23L1 24L0 24L0 25L1 25L1 24L2 24L2 25L3 25L3 24L4 24L4 27L3 27L3 26L1 26L1 27L0 27L0 30L3 30L3 29L4 29L4 31L7 31L7 30L6 30L6 29L8 29L8 34L9 34L9 31L12 31L12 32L13 32L13 33L12 33L12 34L11 34L11 36L13 36L13 37L14 37L14 38L11 38L11 40L10 40L10 39L9 39L9 38L8 38L8 36L9 36L9 35L8 35L8 36L6 36L6 35L7 35L7 34L6 34L6 35L5 35L5 34L4 34L4 33L7 33L7 32L2 32L2 31L0 31L0 32L2 32L2 33L1 33L1 34L2 34L2 35L0 35L0 36L2 36L2 37L0 37L0 38L1 38L1 40L0 40L0 41L3 41L3 40L4 40L4 39L2 39L2 37L3 37L3 38L5 38L5 39L7 39L7 38L8 38L8 39L9 39L9 40L6 40L6 41L8 41L8 42L9 42L9 41L10 41L10 42L11 42L11 41L12 41L12 43L13 43L13 44L9 44L9 43L8 43L8 44L9 44L9 46L11 46L11 47L9 47L9 49L10 49L10 48L11 48L11 47L12 47L12 46L13 46L13 47L14 47L14 46L13 46L13 44L14 44L14 45L15 45L15 46L16 46L16 47L18 47L18 48L17 48L17 49L18 49L18 48L19 48L19 49L20 49L20 48L19 48L19 47L21 47L21 48L22 48L22 46L23 46L23 45L32 45L32 46L29 46L29 47L28 47L28 48L30 48L30 49L33 49L33 48L34 48L34 49L35 49L35 45L37 45L37 46L36 46L36 47L37 47L37 48L36 48L36 49L37 49L37 48L39 48L39 45L37 45L37 44L39 44L39 42L38 42L38 43L37 43L37 44L35 44L35 42L37 42L37 41L38 41L38 40L39 40L39 41L40 41L40 48L41 48L41 49L45 49L45 47L46 47L46 46L47 46L47 47L48 47L48 49L49 49L49 45L48 45L48 46L47 46L47 44L46 44L46 43L47 43L47 42L46 42L46 41L45 41L45 38L44 38L44 37L45 37L45 36L42 36L42 37L41 37L41 36L40 36L40 35L43 35L43 32L44 32L44 35L46 35L46 34L47 34L47 33L46 33L46 31L48 31L48 33L49 33L49 30L48 30L48 29L49 29L49 24L47 24L47 26L48 26L48 27L45 27L45 24L46 24L46 23L49 23L49 22L47 22L47 21L48 21L48 19L49 19L49 18L48 18L48 17L49 17L49 14L47 14L47 13L45 13L45 11L46 11L46 10L47 10L47 12L48 12L48 11L49 11L49 8L48 8L48 10L47 10L47 8L46 8L46 10L45 10L45 8L44 8L44 9L43 9L43 8L42 8L42 9L41 9L41 6L40 6L40 7L39 7L39 5L38 5L38 3L35 3L35 5L34 5L34 7L33 7L33 2L35 2L35 0L34 0L34 1L33 1L33 2L32 2L32 1L30 1L30 0L29 0L29 1L28 1L28 2L26 2L26 0L22 0L22 1L21 1L21 0L20 0L20 1L19 1L19 0L18 0L18 1L17 1L17 3L16 3L16 2L15 2L15 4L14 4L14 2L13 2L13 1L15 1L15 0ZM36 0L36 2L39 2L39 4L40 4L40 3L41 3L41 0L40 0L40 1L37 1L37 0ZM24 1L24 2L23 2L23 3L22 3L22 2L21 2L21 3L22 3L22 4L19 4L19 3L20 3L20 2L18 2L18 5L17 5L17 7L16 7L16 5L15 5L15 7L14 7L14 6L13 6L13 7L14 7L14 8L15 8L15 7L16 7L16 8L17 8L17 7L18 7L18 9L20 9L20 10L18 10L18 11L19 11L19 12L20 12L20 13L21 13L21 15L20 15L20 18L21 18L21 19L23 19L23 20L25 20L25 22L26 22L26 20L28 20L28 22L27 22L27 23L28 23L28 24L27 24L27 25L28 25L28 26L27 26L27 27L25 27L25 28L24 28L24 29L26 29L26 31L27 31L27 32L25 32L25 30L22 30L22 31L20 31L20 32L23 32L23 31L24 31L24 33L23 33L23 34L22 34L22 33L21 33L21 34L19 34L19 31L18 31L18 30L17 30L17 31L16 31L16 32L14 32L14 31L15 31L15 30L16 30L16 28L18 28L18 29L19 29L19 28L18 28L18 27L16 27L16 26L17 26L17 25L16 25L16 24L17 24L17 22L16 22L16 24L15 24L15 25L14 25L14 26L15 26L15 27L16 27L16 28L14 28L14 27L13 27L13 26L12 26L12 28L11 28L11 29L10 29L10 26L11 26L11 24L12 24L12 25L13 25L13 24L12 24L12 23L13 23L13 22L12 22L12 23L11 23L11 22L9 22L9 21L8 21L8 20L7 20L7 19L8 19L8 18L9 18L9 17L8 17L8 16L9 16L9 15L8 15L8 16L7 16L7 15L6 15L6 16L5 16L5 15L3 15L3 18L5 18L5 20L4 20L4 21L3 21L3 22L2 22L2 24L3 24L3 23L4 23L4 21L5 21L5 20L7 20L7 21L6 21L6 22L9 22L9 23L10 23L10 24L9 24L9 30L12 30L12 31L13 31L13 32L14 32L14 34L13 34L13 35L14 35L14 34L15 34L15 36L14 36L14 37L15 37L15 38L16 38L16 35L17 35L17 34L18 34L18 35L20 35L20 36L21 36L21 35L22 35L22 36L23 36L23 37L22 37L22 39L20 39L20 38L21 38L21 37L19 37L19 38L18 38L18 39L13 39L13 40L12 40L12 41L13 41L13 43L14 43L14 41L15 41L15 42L16 42L16 40L17 40L17 41L18 41L18 40L19 40L19 39L20 39L20 40L23 40L23 39L24 39L24 40L28 40L28 41L27 41L27 42L28 42L28 43L27 43L27 44L28 44L28 43L29 43L29 42L28 42L28 41L30 41L30 40L31 40L31 41L32 41L32 42L30 42L30 43L31 43L31 44L32 44L32 45L33 45L33 44L32 44L32 43L34 43L34 42L35 42L35 40L34 40L34 39L36 39L36 35L38 35L38 32L39 32L39 31L40 31L40 33L39 33L39 35L40 35L40 34L41 34L41 31L40 31L40 29L39 29L39 28L38 28L38 26L39 26L39 27L40 27L40 26L39 26L39 25L40 25L40 24L39 24L39 23L40 23L40 20L41 20L41 22L42 22L42 17L41 17L41 16L42 16L42 14L41 14L41 13L42 13L42 12L43 12L43 13L44 13L44 11L45 11L45 10L43 10L43 11L42 11L42 10L40 10L40 8L39 8L39 7L38 7L38 6L37 6L37 10L38 10L38 8L39 8L39 10L40 10L40 11L38 11L38 12L40 12L40 13L36 13L36 15L35 15L35 13L34 13L34 12L35 12L35 11L36 11L36 12L37 12L37 11L36 11L36 10L35 10L35 11L34 11L34 9L33 9L33 10L32 10L32 11L31 11L31 12L30 12L30 10L31 10L31 9L32 9L32 8L33 8L33 7L32 7L32 3L31 3L31 2L30 2L30 3L29 3L29 2L28 2L28 3L26 3L26 4L27 4L27 5L28 5L28 6L27 6L27 7L28 7L28 8L27 8L27 9L22 9L22 10L21 10L21 9L20 9L20 5L22 5L22 4L25 4L25 1ZM8 2L8 3L9 3L9 2ZM11 3L11 4L13 4L13 5L14 5L14 4L13 4L13 3ZM28 3L28 5L29 5L29 3ZM30 4L30 5L31 5L31 4ZM36 4L36 5L35 5L35 7L36 7L36 5L37 5L37 4ZM18 5L18 7L19 7L19 5ZM23 5L23 8L26 8L26 5ZM21 6L21 8L22 8L22 6ZM24 6L24 7L25 7L25 6ZM28 6L28 7L29 7L29 6ZM30 6L30 8L28 8L28 9L27 9L27 10L26 10L26 11L27 11L27 12L29 12L29 14L32 14L32 15L33 15L33 18L32 18L32 19L36 19L36 18L35 18L35 17L37 17L37 20L35 20L35 21L33 21L33 23L36 23L36 21L37 21L37 22L38 22L38 23L39 23L39 16L40 16L40 15L41 15L41 14L40 14L40 15L39 15L39 14L38 14L38 15L36 15L36 16L34 16L34 14L32 14L32 13L33 13L33 12L32 12L32 13L30 13L30 12L29 12L29 10L28 10L28 9L31 9L31 8L32 8L32 7L31 7L31 6ZM35 8L35 9L36 9L36 8ZM3 11L3 12L2 12L2 13L3 13L3 14L5 14L5 12L4 12L4 11ZM11 11L11 12L12 12L12 11ZM41 11L41 12L42 12L42 11ZM8 12L8 14L10 14L10 13L9 13L9 12ZM21 12L21 13L24 13L24 16L23 16L23 14L22 14L22 15L21 15L21 16L23 16L23 19L24 19L24 17L25 17L25 19L27 19L27 18L28 18L28 14L27 14L27 13L26 13L26 12ZM6 13L6 14L7 14L7 13ZM25 14L25 17L26 17L26 18L27 18L27 16L26 16L26 15L27 15L27 14ZM43 14L43 15L44 15L44 16L43 16L43 18L44 18L44 19L45 19L45 18L46 18L46 17L48 17L48 15L46 15L46 17L45 17L45 14ZM30 15L30 16L29 16L29 17L30 17L30 16L31 16L31 17L32 17L32 16L31 16L31 15ZM38 15L38 16L37 16L37 17L38 17L38 16L39 16L39 15ZM4 16L4 17L5 17L5 18L6 18L6 19L7 19L7 18L6 18L6 17L7 17L7 16L6 16L6 17L5 17L5 16ZM13 16L13 18L12 18L12 17L11 17L11 18L12 18L12 19L13 19L13 18L14 18L14 16ZM15 16L15 18L16 18L16 16ZM1 17L1 18L2 18L2 17ZM21 17L21 18L22 18L22 17ZM44 17L44 18L45 18L45 17ZM29 18L29 22L28 22L28 23L29 23L29 22L32 22L32 20L30 20L30 18ZM40 18L40 19L41 19L41 18ZM47 18L47 19L46 19L46 20L44 20L44 21L43 21L43 22L44 22L44 21L45 21L45 23L46 23L46 20L47 20L47 19L48 19L48 18ZM16 19L16 20L17 20L17 19ZM21 20L21 21L22 21L22 20ZM14 22L14 23L15 23L15 22ZM5 23L5 26L8 26L8 23ZM23 23L23 26L26 26L26 23ZM31 23L31 25L30 25L30 27L31 27L31 26L32 26L32 25L33 25L33 27L32 27L32 28L31 28L31 29L32 29L32 30L33 30L33 31L34 31L34 29L33 29L33 27L37 27L37 26L34 26L34 24L32 24L32 23ZM41 23L41 26L44 26L44 23ZM6 24L6 25L7 25L7 24ZM24 24L24 25L25 25L25 24ZM28 24L28 25L29 25L29 24ZM36 24L36 25L39 25L39 24ZM42 24L42 25L43 25L43 24ZM15 25L15 26L16 26L16 25ZM28 26L28 27L27 27L27 28L26 28L26 29L27 29L27 31L28 31L28 32L30 32L30 34L31 34L31 35L30 35L30 36L29 36L29 38L28 38L28 40L29 40L29 38L30 38L30 36L31 36L31 38L32 38L32 37L33 37L33 39L34 39L34 38L35 38L35 37L34 37L34 36L35 36L35 35L36 35L36 34L35 34L35 33L36 33L36 32L38 32L38 31L36 31L36 32L30 32L30 28L29 28L29 30L28 30L28 29L27 29L27 28L28 28L28 27L29 27L29 26ZM6 27L6 28L7 28L7 27ZM42 27L42 28L41 28L41 30L42 30L42 29L46 29L46 30L47 30L47 29L48 29L48 28L47 28L47 29L46 29L46 28L43 28L43 27ZM1 28L1 29L3 29L3 28ZM4 28L4 29L5 29L5 28ZM12 28L12 29L14 29L14 28ZM35 28L35 30L36 30L36 29L37 29L37 30L38 30L38 29L37 29L37 28ZM13 30L13 31L14 31L14 30ZM44 30L44 31L45 31L45 30ZM42 31L42 32L43 32L43 31ZM10 32L10 33L11 33L11 32ZM2 33L2 34L3 34L3 35L4 35L4 37L6 37L6 38L7 38L7 37L6 37L6 36L5 36L5 35L4 35L4 34L3 34L3 33ZM16 33L16 34L17 34L17 33ZM31 33L31 34L34 34L34 33ZM45 33L45 34L46 34L46 33ZM23 34L23 36L24 36L24 35L25 35L25 36L26 36L26 37L24 37L24 39L25 39L25 38L26 38L26 39L27 39L27 38L26 38L26 37L27 37L27 36L28 36L28 35L27 35L27 34L26 34L26 35L25 35L25 34ZM48 34L48 35L47 35L47 36L48 36L48 37L47 37L47 39L46 39L46 40L47 40L47 41L48 41L48 40L49 40L49 38L48 38L48 37L49 37L49 34ZM26 35L26 36L27 36L27 35ZM32 35L32 36L33 36L33 35ZM17 36L17 37L18 37L18 36ZM37 36L37 37L38 37L38 39L37 39L37 40L38 40L38 39L39 39L39 38L40 38L40 39L41 39L41 40L44 40L44 39L42 39L42 38L43 38L43 37L42 37L42 38L41 38L41 37L38 37L38 36ZM31 39L31 40L32 40L32 39ZM19 41L19 42L17 42L17 43L16 43L16 44L15 44L15 45L16 45L16 46L19 46L19 45L21 45L21 44L22 44L22 43L20 43L20 42L22 42L22 41ZM23 41L23 44L26 44L26 41ZM41 41L41 44L44 44L44 41ZM24 42L24 43L25 43L25 42ZM42 42L42 43L43 43L43 42ZM48 42L48 44L49 44L49 42ZM17 43L17 44L16 44L16 45L17 45L17 44L18 44L18 43ZM19 43L19 44L20 44L20 43ZM34 44L34 45L35 45L35 44ZM45 44L45 45L43 45L43 46L41 46L41 47L43 47L43 48L44 48L44 47L45 47L45 45L46 45L46 44ZM11 45L11 46L12 46L12 45ZM25 46L25 47L24 47L24 48L26 48L26 47L27 47L27 46ZM37 46L37 47L38 47L38 46ZM43 46L43 47L44 47L44 46ZM31 47L31 48L32 48L32 47ZM12 48L12 49L13 49L13 48ZM14 48L14 49L16 49L16 48ZM0 0L0 7L7 7L7 0ZM1 1L1 6L6 6L6 1ZM2 2L2 5L5 5L5 2ZM42 0L42 7L49 7L49 0ZM43 1L43 6L48 6L48 1ZM44 2L44 5L47 5L47 2ZM0 42L0 49L7 49L7 42ZM1 43L1 48L6 48L6 43ZM2 44L2 47L5 47L5 44Z" fill="#000000"/></g></g></svg>
