<?xml version="1.0" encoding="UTF-8"?>
<svg xmlns="http://www.w3.org/2000/svg" version="1.1" width="300" height="300" viewBox="0 0 300 300"><rect x="0" y="0" width="300" height="300" fill="#ffffff"/><g transform="scale(6.122)"><g transform="translate(0,0)"><path fill-rule="evenodd" d="M8 0L8 3L9 3L9 0ZM10 0L10 1L11 1L11 2L10 2L10 3L13 3L13 4L11 4L11 6L10 6L10 8L9 8L9 5L8 5L8 10L9 10L9 11L8 11L8 13L7 13L7 12L6 12L6 11L7 11L7 10L6 10L6 9L7 9L7 8L6 8L6 9L5 9L5 8L2 8L2 9L1 9L1 12L0 12L0 13L1 13L1 14L2 14L2 16L1 16L1 15L0 15L0 19L1 19L1 17L2 17L2 18L3 18L3 19L4 19L4 20L2 20L2 21L1 21L1 20L0 20L0 23L1 23L1 24L0 24L0 25L2 25L2 21L3 21L3 22L4 22L4 25L3 25L3 26L0 26L0 27L3 27L3 26L4 26L4 27L5 27L5 29L4 29L4 28L3 28L3 29L1 29L1 28L0 28L0 29L1 29L1 30L2 30L2 31L3 31L3 32L2 32L2 33L4 33L4 35L5 35L5 36L2 36L2 35L0 35L0 36L1 36L1 37L0 37L0 38L1 38L1 40L0 40L0 41L3 41L3 40L4 40L4 39L2 39L2 37L4 37L4 38L5 38L5 39L7 39L7 40L6 40L6 41L8 41L8 42L10 42L10 43L9 43L9 44L8 44L8 47L9 47L9 45L11 45L11 46L12 46L12 44L14 44L14 46L13 46L13 47L12 47L12 48L11 48L11 47L10 47L10 48L9 48L9 49L14 49L14 48L13 48L13 47L14 47L14 46L15 46L15 44L18 44L18 42L19 42L19 41L21 41L21 42L20 42L20 43L19 43L19 46L17 46L17 47L18 47L18 48L20 48L20 49L21 49L21 47L22 47L22 46L21 46L21 45L26 45L26 46L25 46L25 47L24 47L24 48L22 48L22 49L24 49L24 48L25 48L25 49L27 49L27 48L28 48L28 49L31 49L31 47L32 47L32 48L33 48L33 47L34 47L34 48L35 48L35 49L39 49L39 48L40 48L40 49L41 49L41 48L42 48L42 49L43 49L43 47L44 47L44 48L46 48L46 49L49 49L49 45L48 45L48 46L47 46L47 47L48 47L48 48L46 48L46 46L45 46L45 43L46 43L46 42L45 42L45 40L46 40L46 39L45 39L45 38L46 38L46 37L47 37L47 41L48 41L48 40L49 40L49 38L48 38L48 37L49 37L49 34L48 34L48 35L47 35L47 36L46 36L46 32L45 32L45 31L46 31L46 30L45 30L45 29L42 29L42 31L41 31L41 33L40 33L40 32L38 32L38 31L39 31L39 30L41 30L41 28L42 28L42 27L43 27L43 28L44 28L44 27L45 27L45 26L46 26L46 25L47 25L47 26L48 26L48 27L47 27L47 28L46 28L46 29L47 29L47 30L48 30L48 33L49 33L49 30L48 30L48 29L49 29L49 24L48 24L48 25L47 25L47 24L46 24L46 25L45 25L45 22L46 22L46 23L49 23L49 22L46 22L46 21L48 21L48 19L49 19L49 18L48 18L48 17L49 17L49 14L47 14L47 13L48 13L48 11L49 11L49 8L46 8L46 9L45 9L45 11L44 11L44 12L42 12L42 11L43 11L43 10L44 10L44 8L41 8L41 6L40 6L40 9L39 9L39 8L38 8L38 9L39 9L39 10L37 10L37 6L38 6L38 7L39 7L39 5L38 5L38 3L33 3L33 2L32 2L32 1L33 1L33 0L31 0L31 1L29 1L29 0L28 0L28 1L27 1L27 0L26 0L26 1L25 1L25 0L23 0L23 1L22 1L22 0L21 0L21 1L20 1L20 0L16 0L16 1L14 1L14 3L13 3L13 1L12 1L12 0ZM35 0L35 1L34 1L34 2L35 2L35 1L36 1L36 2L39 2L39 4L40 4L40 3L41 3L41 0L40 0L40 1L38 1L38 0ZM16 1L16 3L14 3L14 4L13 4L13 5L14 5L14 6L13 6L13 7L14 7L14 6L15 6L15 9L16 9L16 8L17 8L17 10L18 10L18 11L19 11L19 13L18 13L18 12L17 12L17 13L18 13L18 14L16 14L16 15L18 15L18 16L19 16L19 13L20 13L20 12L21 12L21 11L22 11L22 14L21 14L21 16L20 16L20 18L21 18L21 20L18 20L18 19L17 19L17 20L16 20L16 21L19 21L19 22L18 22L18 26L17 26L17 24L11 24L11 23L13 23L13 21L14 21L14 23L17 23L17 22L15 22L15 21L14 21L14 20L15 20L15 19L16 19L16 18L19 18L19 17L15 17L15 16L14 16L14 15L15 15L15 13L16 13L16 12L15 12L15 11L16 11L16 10L14 10L14 9L12 9L12 6L11 6L11 10L14 10L14 12L15 12L15 13L13 13L13 12L12 12L12 11L11 11L11 12L10 12L10 11L9 11L9 12L10 12L10 13L13 13L13 14L11 14L11 15L12 15L12 17L11 17L11 16L10 16L10 15L9 15L9 16L10 16L10 17L8 17L8 16L7 16L7 15L6 15L6 14L7 14L7 13L6 13L6 12L5 12L5 13L4 13L4 14L3 14L3 17L4 17L4 19L5 19L5 20L4 20L4 22L5 22L5 20L7 20L7 21L6 21L6 22L8 22L8 20L9 20L9 25L10 25L10 28L11 28L11 30L10 30L10 29L9 29L9 30L8 30L8 29L6 29L6 30L3 30L3 31L4 31L4 32L7 32L7 33L5 33L5 35L6 35L6 36L7 36L7 37L6 37L6 38L7 38L7 39L8 39L8 40L10 40L10 39L11 39L11 38L14 38L14 36L12 36L12 37L10 37L10 36L11 36L11 34L12 34L12 33L13 33L13 32L14 32L14 31L15 31L15 33L14 33L14 34L13 34L13 35L14 35L14 34L15 34L15 35L17 35L17 30L20 30L20 32L21 32L21 31L23 31L23 30L22 30L22 29L21 29L21 28L23 28L23 27L22 27L22 24L21 24L21 25L20 25L20 24L19 24L19 23L22 23L22 22L23 22L23 21L22 21L22 18L23 18L23 20L25 20L25 22L27 22L27 28L26 28L26 27L25 27L25 28L24 28L24 29L25 29L25 30L24 30L24 32L25 32L25 35L26 35L26 38L25 38L25 39L24 39L24 38L23 38L23 36L24 36L24 37L25 37L25 36L24 36L24 33L22 33L22 34L21 34L21 33L20 33L20 34L18 34L18 35L20 35L20 36L19 36L19 38L18 38L18 39L17 39L17 41L18 41L18 40L19 40L19 39L20 39L20 38L22 38L22 39L24 39L24 40L26 40L26 38L27 38L27 39L28 39L28 41L29 41L29 43L31 43L31 44L29 44L29 46L27 46L27 47L26 47L26 48L27 48L27 47L29 47L29 46L30 46L30 45L31 45L31 46L35 46L35 48L37 48L37 47L38 47L38 46L39 46L39 47L40 47L40 46L41 46L41 47L43 47L43 46L44 46L44 47L45 47L45 46L44 46L44 45L43 45L43 46L41 46L41 45L40 45L40 44L37 44L37 42L38 42L38 43L40 43L40 42L39 42L39 40L45 40L45 39L42 39L42 38L43 38L43 37L44 37L44 38L45 38L45 37L46 37L46 36L45 36L45 33L44 33L44 32L43 32L43 31L44 31L44 30L43 30L43 31L42 31L42 32L43 32L43 34L44 34L44 35L40 35L40 34L39 34L39 33L38 33L38 32L36 32L36 31L37 31L37 29L38 29L38 30L39 30L39 28L41 28L41 27L40 27L40 22L42 22L42 19L41 19L41 18L42 18L42 17L41 17L41 16L42 16L42 14L41 14L41 13L40 13L40 14L39 14L39 11L38 11L38 12L37 12L37 11L36 11L36 10L35 10L35 9L36 9L36 8L35 8L35 9L34 9L34 6L33 6L33 7L32 7L32 4L33 4L33 5L35 5L35 7L36 7L36 5L37 5L37 4L36 4L36 5L35 5L35 4L33 4L33 3L32 3L32 2L30 2L30 3L28 3L28 2L27 2L27 1L26 1L26 2L27 2L27 3L28 3L28 4L29 4L29 5L28 5L28 6L27 6L27 7L28 7L28 8L27 8L27 9L28 9L28 8L30 8L30 6L31 6L31 7L32 7L32 8L33 8L33 9L32 9L32 10L31 10L31 9L29 9L29 13L28 13L28 10L27 10L27 11L26 11L26 9L25 9L25 11L23 11L23 10L24 10L24 9L23 9L23 10L22 10L22 9L21 9L21 10L19 10L19 9L20 9L20 5L21 5L21 7L22 7L22 2L21 2L21 3L20 3L20 2L18 2L18 1ZM23 1L23 3L25 3L25 1ZM17 2L17 4L15 4L15 6L16 6L16 7L17 7L17 8L18 8L18 9L19 9L19 5L18 5L18 4L20 4L20 3L18 3L18 2ZM30 4L30 5L31 5L31 4ZM17 5L17 7L18 7L18 5ZM23 5L23 8L26 8L26 5ZM24 6L24 7L25 7L25 6ZM28 6L28 7L29 7L29 6ZM2 9L2 11L3 11L3 12L4 12L4 11L5 11L5 9L4 9L4 10L3 10L3 9ZM40 9L40 12L41 12L41 11L42 11L42 10L41 10L41 9ZM46 9L46 12L44 12L44 13L45 13L45 14L43 14L43 15L45 15L45 16L43 16L43 19L44 19L44 17L45 17L45 16L46 16L46 17L48 17L48 15L47 15L47 16L46 16L46 15L45 15L45 14L46 14L46 12L47 12L47 10L48 10L48 9ZM30 10L30 12L31 12L31 13L29 13L29 14L32 14L32 16L31 16L31 15L30 15L30 16L29 16L29 15L28 15L28 13L27 13L27 12L26 12L26 13L25 13L25 12L24 12L24 16L23 16L23 18L24 18L24 17L25 17L25 18L26 18L26 17L25 17L25 14L27 14L27 15L28 15L28 16L27 16L27 17L28 17L28 16L29 16L29 17L30 17L30 18L28 18L28 19L25 19L25 20L27 20L27 21L28 21L28 23L30 23L30 22L33 22L33 25L37 25L37 24L34 24L34 23L36 23L36 21L37 21L37 22L38 22L38 23L39 23L39 22L40 22L40 21L41 21L41 20L40 20L40 19L37 19L37 18L40 18L40 17L39 17L39 14L38 14L38 15L36 15L36 13L37 13L37 12L36 12L36 11L35 11L35 12L34 12L34 10L32 10L32 11L33 11L33 14L32 14L32 12L31 12L31 10ZM1 12L1 13L2 13L2 12ZM35 12L35 13L34 13L34 15L33 15L33 16L32 16L32 17L31 17L31 18L32 18L32 19L28 19L28 21L29 21L29 22L30 22L30 20L32 20L32 21L33 21L33 22L35 22L35 20L37 20L37 19L36 19L36 17L35 17L35 18L34 18L34 17L33 17L33 16L34 16L34 15L35 15L35 16L36 16L36 15L35 15L35 13L36 13L36 12ZM5 13L5 14L4 14L4 17L5 17L5 19L7 19L7 20L8 20L8 18L6 18L6 17L7 17L7 16L6 16L6 15L5 15L5 14L6 14L6 13ZM8 13L8 14L9 14L9 13ZM13 14L13 15L14 15L14 14ZM22 14L22 15L23 15L23 14ZM40 14L40 16L41 16L41 14ZM5 16L5 17L6 17L6 16ZM13 16L13 17L12 17L12 18L10 18L10 19L9 19L9 20L10 20L10 21L11 21L11 22L12 22L12 21L13 21L13 20L12 20L12 19L15 19L15 18L14 18L14 16ZM37 16L37 17L38 17L38 16ZM33 18L33 20L34 20L34 18ZM46 18L46 19L45 19L45 20L44 20L44 21L43 21L43 22L45 22L45 21L46 21L46 20L47 20L47 18ZM10 19L10 20L11 20L11 21L12 21L12 20L11 20L11 19ZM39 20L39 21L38 21L38 22L39 22L39 21L40 21L40 20ZM5 23L5 26L8 26L8 23ZM23 23L23 26L26 26L26 23ZM31 23L31 24L32 24L32 23ZM41 23L41 26L44 26L44 23ZM6 24L6 25L7 25L7 24ZM10 24L10 25L11 25L11 28L12 28L12 29L13 29L13 28L12 28L12 26L13 26L13 27L15 27L15 26L14 26L14 25L11 25L11 24ZM24 24L24 25L25 25L25 24ZM29 24L29 25L30 25L30 27L31 27L31 26L32 26L32 25L30 25L30 24ZM42 24L42 25L43 25L43 24ZM19 25L19 26L18 26L18 27L19 27L19 29L20 29L20 28L21 28L21 27L20 27L20 25ZM16 26L16 29L14 29L14 30L15 30L15 31L16 31L16 30L17 30L17 29L18 29L18 28L17 28L17 26ZM28 26L28 28L27 28L27 29L29 29L29 30L30 30L30 28L29 28L29 26ZM33 26L33 28L31 28L31 29L32 29L32 30L31 30L31 31L33 31L33 32L30 32L30 31L26 31L26 30L25 30L25 31L26 31L26 32L27 32L27 33L26 33L26 35L27 35L27 34L28 34L28 35L29 35L29 34L28 34L28 32L30 32L30 34L31 34L31 35L30 35L30 36L32 36L32 35L34 35L34 36L33 36L33 37L34 37L34 38L33 38L33 39L30 39L30 40L29 40L29 41L30 41L30 40L34 40L34 38L35 38L35 37L36 37L36 39L35 39L35 43L34 43L34 44L33 44L33 42L34 42L34 41L33 41L33 42L32 42L32 41L31 41L31 43L32 43L32 44L31 44L31 45L32 45L32 44L33 44L33 45L34 45L34 44L35 44L35 45L37 45L37 46L36 46L36 47L37 47L37 46L38 46L38 45L37 45L37 44L35 44L35 43L36 43L36 42L37 42L37 41L38 41L38 40L37 40L37 39L38 39L38 36L39 36L39 39L40 39L40 36L39 36L39 34L38 34L38 35L36 35L36 34L34 34L34 33L36 33L36 32L34 32L34 31L36 31L36 29L37 29L37 28L35 28L35 27L37 27L37 26ZM38 26L38 27L39 27L39 26ZM6 27L6 28L7 28L7 27ZM8 27L8 28L9 28L9 27ZM33 28L33 30L35 30L35 28ZM47 28L47 29L48 29L48 28ZM6 30L6 31L8 31L8 32L9 32L9 31L10 31L10 34L11 34L11 31L10 31L10 30L9 30L9 31L8 31L8 30ZM0 31L0 34L1 34L1 31ZM12 31L12 32L13 32L13 31ZM18 32L18 33L19 33L19 32ZM7 33L7 34L6 34L6 35L7 35L7 36L10 36L10 35L9 35L9 34L8 34L8 33ZM15 33L15 34L16 34L16 33ZM31 33L31 34L32 34L32 33ZM7 34L7 35L8 35L8 34ZM35 35L35 36L36 36L36 35ZM15 36L15 37L17 37L17 36ZM21 36L21 37L22 37L22 36ZM28 36L28 37L27 37L27 38L28 38L28 39L29 39L29 38L30 38L30 37L29 37L29 36ZM41 36L41 38L42 38L42 37L43 37L43 36ZM7 37L7 38L8 38L8 37ZM9 37L9 38L10 38L10 37ZM28 37L28 38L29 38L29 37ZM31 37L31 38L32 38L32 37ZM13 39L13 40L12 40L12 41L11 41L11 43L10 43L10 44L11 44L11 43L13 43L13 42L14 42L14 43L15 43L15 42L14 42L14 41L16 41L16 40L14 40L14 39ZM12 41L12 42L13 42L13 41ZM23 41L23 44L26 44L26 41ZM41 41L41 44L44 44L44 41ZM16 42L16 43L17 43L17 42ZM24 42L24 43L25 43L25 42ZM42 42L42 43L43 43L43 42ZM47 42L47 43L48 43L48 44L49 44L49 42ZM20 43L20 45L21 45L21 43ZM46 44L46 45L47 45L47 44ZM39 45L39 46L40 46L40 45ZM15 48L15 49L17 49L17 48ZM0 0L0 7L7 7L7 0ZM1 1L1 6L6 6L6 1ZM2 2L2 5L5 5L5 2ZM42 0L42 7L49 7L49 0ZM43 1L43 6L48 6L48 1ZM44 2L44 5L47 5L47 2ZM0 42L0 49L7 49L7 42ZM1 43L1 48L6 48L6 43ZM2 44L2 47L5 47L5 44Z" fill="#000000"/></g></g></svg>
