<?xml version="1.0" encoding="UTF-8"?>
<svg xmlns="http://www.w3.org/2000/svg" version="1.1" width="300" height="300" viewBox="0 0 300 300"><rect x="0" y="0" width="300" height="300" fill="#ffffff"/><g transform="scale(6.122)"><g transform="translate(0,0)"><path fill-rule="evenodd" d="M8 0L8 1L9 1L9 2L8 2L8 3L9 3L9 4L8 4L8 5L9 5L9 6L8 6L8 8L10 8L10 9L11 9L11 6L12 6L12 9L15 9L15 8L16 8L16 9L18 9L18 10L16 10L16 12L17 12L17 13L16 13L16 14L15 14L15 15L16 15L16 14L18 14L18 13L19 13L19 16L18 16L18 15L17 15L17 16L15 16L15 18L16 18L16 20L14 20L14 21L13 21L13 20L12 20L12 21L11 21L11 20L10 20L10 21L9 21L9 20L8 20L8 19L9 19L9 18L10 18L10 15L11 15L11 19L12 19L12 17L13 17L13 18L14 18L14 16L12 16L12 15L11 15L11 14L13 14L13 15L14 15L14 14L13 14L13 13L12 13L12 12L14 12L14 10L9 10L9 11L8 11L8 12L6 12L6 11L7 11L7 10L6 10L6 9L7 9L7 8L5 8L5 9L1 9L1 12L0 12L0 13L1 13L1 14L2 14L2 15L3 15L3 16L1 16L1 15L0 15L0 19L3 19L3 20L2 20L2 21L1 21L1 20L0 20L0 23L1 23L1 24L0 24L0 25L1 25L1 24L2 24L2 25L3 25L3 24L4 24L4 27L3 27L3 26L0 26L0 27L2 27L2 28L3 28L3 29L1 29L1 28L0 28L0 29L1 29L1 31L0 31L0 32L1 32L1 33L0 33L0 34L2 34L2 35L0 35L0 36L3 36L3 38L5 38L5 39L7 39L7 40L6 40L6 41L8 41L8 42L9 42L9 41L10 41L10 42L13 42L13 39L18 39L18 38L19 38L19 37L21 37L21 38L20 38L20 39L19 39L19 40L18 40L18 41L17 41L17 40L15 40L15 41L14 41L14 43L13 43L13 44L14 44L14 45L15 45L15 46L17 46L17 47L18 47L18 48L17 48L17 49L18 49L18 48L19 48L19 49L20 49L20 48L22 48L22 46L23 46L23 45L29 45L29 43L30 43L30 42L29 42L29 41L30 41L30 40L32 40L32 39L30 39L30 40L29 40L29 38L30 38L30 36L31 36L31 38L32 38L32 37L33 37L33 39L34 39L34 40L35 40L35 42L34 42L34 43L32 43L32 44L30 44L30 46L31 46L31 47L28 47L28 48L30 48L30 49L33 49L33 48L34 48L34 49L35 49L35 45L37 45L37 46L36 46L36 47L37 47L37 48L36 48L36 49L37 49L37 48L39 48L39 45L37 45L37 44L39 44L39 42L38 42L38 43L37 43L37 44L35 44L35 42L37 42L37 41L38 41L38 40L39 40L39 41L40 41L40 48L41 48L41 49L45 49L45 47L46 47L46 46L47 46L47 47L48 47L48 49L49 49L49 45L48 45L48 46L47 46L47 44L46 44L46 43L47 43L47 42L46 42L46 41L45 41L45 38L44 38L44 37L45 37L45 36L42 36L42 37L41 37L41 36L40 36L40 35L44 35L44 34L45 34L45 35L46 35L46 34L47 34L47 33L46 33L46 31L48 31L48 33L49 33L49 30L48 30L48 29L49 29L49 24L47 24L47 26L48 26L48 27L45 27L45 24L46 24L46 23L49 23L49 22L47 22L47 21L48 21L48 19L49 19L49 18L48 18L48 17L49 17L49 14L47 14L47 13L45 13L45 11L46 11L46 10L47 10L47 12L48 12L48 11L49 11L49 8L48 8L48 10L47 10L47 8L46 8L46 10L45 10L45 8L44 8L44 9L43 9L43 8L42 8L42 9L41 9L41 6L40 6L40 7L39 7L39 5L38 5L38 3L35 3L35 5L34 5L34 7L33 7L33 6L32 6L32 7L31 7L31 6L30 6L30 8L28 8L28 9L31 9L31 10L30 10L30 12L29 12L29 10L28 10L28 11L27 11L27 10L26 10L26 11L27 11L27 12L29 12L29 14L32 14L32 15L33 15L33 18L32 18L32 19L37 19L37 20L35 20L35 21L33 21L33 23L36 23L36 21L37 21L37 22L38 22L38 23L39 23L39 24L36 24L36 25L39 25L39 26L38 26L38 28L39 28L39 29L40 29L40 31L39 31L39 32L38 32L38 31L36 31L36 32L30 32L30 28L27 28L27 29L29 29L29 31L28 31L28 32L27 32L27 31L26 31L26 28L25 28L25 27L27 27L27 26L28 26L28 27L29 27L29 26L28 26L28 25L29 25L29 24L28 24L28 23L29 23L29 22L30 22L30 23L31 23L31 25L30 25L30 27L31 27L31 26L32 26L32 25L33 25L33 27L32 27L32 28L31 28L31 29L32 29L32 30L33 30L33 31L34 31L34 29L33 29L33 27L37 27L37 26L34 26L34 24L32 24L32 23L31 23L31 22L32 22L32 20L30 20L30 21L29 21L29 22L28 22L28 20L27 20L27 18L28 18L28 14L27 14L27 13L26 13L26 12L21 12L21 13L20 13L20 12L19 12L19 11L18 11L18 10L20 10L20 9L21 9L21 10L22 10L22 9L24 9L24 10L23 10L23 11L25 11L25 9L27 9L27 6L28 6L28 7L29 7L29 3L30 3L30 2L31 2L31 3L32 3L32 4L30 4L30 5L33 5L33 3L32 3L32 1L30 1L30 0L29 0L29 1L28 1L28 2L29 2L29 3L27 3L27 2L26 2L26 0L25 0L25 3L23 3L23 2L24 2L24 0L20 0L20 1L19 1L19 0L18 0L18 2L17 2L17 3L16 3L16 2L15 2L15 0L13 0L13 1L11 1L11 2L10 2L10 1L9 1L9 0ZM34 0L34 1L33 1L33 2L35 2L35 0ZM36 0L36 2L39 2L39 4L40 4L40 3L41 3L41 0L40 0L40 1L37 1L37 0ZM13 1L13 3L11 3L11 4L9 4L9 5L11 5L11 4L13 4L13 5L15 5L15 7L16 7L16 8L17 8L17 7L18 7L18 9L20 9L20 5L22 5L22 4L23 4L23 3L22 3L22 2L21 2L21 3L22 3L22 4L18 4L18 5L19 5L19 7L18 7L18 6L17 6L17 7L16 7L16 5L15 5L15 4L13 4L13 3L14 3L14 1ZM9 2L9 3L10 3L10 2ZM18 2L18 3L20 3L20 2ZM26 3L26 4L27 4L27 5L28 5L28 4L27 4L27 3ZM36 4L36 5L35 5L35 7L36 7L36 5L37 5L37 4ZM23 5L23 8L26 8L26 5ZM9 6L9 7L10 7L10 6ZM13 6L13 8L14 8L14 6ZM21 6L21 8L22 8L22 6ZM24 6L24 7L25 7L25 6ZM37 6L37 10L38 10L38 8L39 8L39 10L40 10L40 11L36 11L36 10L34 10L34 12L35 12L35 11L36 11L36 12L38 12L38 13L36 13L36 15L35 15L35 13L32 13L32 12L33 12L33 11L32 11L32 10L31 10L31 12L30 12L30 13L32 13L32 14L34 14L34 16L36 16L36 15L38 15L38 16L37 16L37 17L38 17L38 16L39 16L39 23L40 23L40 20L41 20L41 22L42 22L42 17L41 17L41 16L42 16L42 14L41 14L41 13L42 13L42 12L43 12L43 13L44 13L44 11L45 11L45 10L43 10L43 11L42 11L42 10L40 10L40 8L39 8L39 7L38 7L38 6ZM32 7L32 8L33 8L33 9L34 9L34 8L33 8L33 7ZM35 8L35 9L36 9L36 8ZM3 10L3 11L2 11L2 13L3 13L3 15L4 15L4 16L3 16L3 18L5 18L5 20L4 20L4 21L3 21L3 22L2 22L2 24L3 24L3 23L4 23L4 21L5 21L5 20L7 20L7 21L6 21L6 22L9 22L9 23L10 23L10 24L9 24L9 26L10 26L10 27L9 27L9 28L10 28L10 27L11 27L11 23L13 23L13 21L12 21L12 22L9 22L9 21L8 21L8 20L7 20L7 19L8 19L8 18L9 18L9 17L8 17L8 16L9 16L9 15L8 15L8 16L7 16L7 15L6 15L6 16L5 16L5 14L7 14L7 13L6 13L6 12L4 12L4 11L5 11L5 10ZM11 11L11 12L12 12L12 11ZM41 11L41 12L42 12L42 11ZM3 12L3 13L4 13L4 12ZM8 12L8 14L10 14L10 13L9 13L9 12ZM39 12L39 13L40 13L40 12ZM21 13L21 15L20 15L20 16L19 16L19 17L17 17L17 20L16 20L16 21L15 21L15 22L14 22L14 23L15 23L15 25L14 25L14 26L15 26L15 27L16 27L16 28L14 28L14 27L13 27L13 26L12 26L12 28L11 28L11 30L10 30L10 31L9 31L9 32L11 32L11 33L10 33L10 34L9 34L9 33L3 33L3 32L8 32L8 29L6 29L6 30L7 30L7 31L4 31L4 29L5 29L5 28L4 28L4 29L3 29L3 30L2 30L2 31L1 31L1 32L2 32L2 33L3 33L3 34L5 34L5 35L3 35L3 36L4 36L4 37L6 37L6 38L7 38L7 39L10 39L10 40L11 40L11 41L12 41L12 40L11 40L11 38L14 38L14 37L15 37L15 38L16 38L16 35L17 35L17 34L18 34L18 35L20 35L20 36L21 36L21 35L22 35L22 36L23 36L23 37L22 37L22 39L20 39L20 41L21 41L21 42L22 42L22 41L21 41L21 40L23 40L23 39L24 39L24 40L28 40L28 41L27 41L27 42L28 42L28 43L27 43L27 44L28 44L28 43L29 43L29 42L28 42L28 41L29 41L29 40L28 40L28 38L29 38L29 36L30 36L30 35L31 35L31 34L34 34L34 33L31 33L31 34L30 34L30 32L28 32L28 33L27 33L27 32L26 32L26 31L25 31L25 30L23 30L23 29L22 29L22 30L21 30L21 27L22 27L22 26L21 26L21 25L22 25L22 22L20 22L20 21L22 21L22 20L20 20L20 19L23 19L23 20L25 20L25 22L26 22L26 21L27 21L27 20L25 20L25 17L26 17L26 18L27 18L27 16L26 16L26 15L27 15L27 14L25 14L25 17L24 17L24 19L23 19L23 16L24 16L24 13ZM22 14L22 15L21 15L21 16L20 16L20 17L21 17L21 18L22 18L22 17L21 17L21 16L23 16L23 14ZM38 14L38 15L39 15L39 16L40 16L40 15L41 15L41 14L40 14L40 15L39 15L39 14ZM43 14L43 15L44 15L44 16L43 16L43 18L44 18L44 19L45 19L45 18L46 18L46 17L48 17L48 15L46 15L46 17L45 17L45 14ZM30 15L30 16L29 16L29 17L30 17L30 19L31 19L31 17L32 17L32 16L31 16L31 15ZM4 16L4 17L5 17L5 18L6 18L6 19L7 19L7 18L6 18L6 17L7 17L7 16L6 16L6 17L5 17L5 16ZM1 17L1 18L2 18L2 17ZM35 17L35 18L36 18L36 17ZM44 17L44 18L45 18L45 17ZM18 18L18 20L19 20L19 18ZM40 18L40 19L41 19L41 18ZM47 18L47 19L46 19L46 20L44 20L44 21L43 21L43 22L44 22L44 21L45 21L45 23L46 23L46 20L47 20L47 19L48 19L48 18ZM17 21L17 23L16 23L16 25L15 25L15 26L16 26L16 27L17 27L17 26L18 26L18 27L19 27L19 29L20 29L20 24L21 24L21 23L19 23L19 26L18 26L18 25L17 25L17 24L18 24L18 22L19 22L19 21ZM27 22L27 23L28 23L28 22ZM5 23L5 26L8 26L8 23ZM23 23L23 26L26 26L26 23ZM41 23L41 26L44 26L44 23ZM6 24L6 25L7 25L7 24ZM12 24L12 25L13 25L13 24ZM24 24L24 25L25 25L25 24ZM27 24L27 25L28 25L28 24ZM39 24L39 25L40 25L40 24ZM42 24L42 25L43 25L43 24ZM16 25L16 26L17 26L17 25ZM39 26L39 27L40 27L40 26ZM6 27L6 28L7 28L7 27ZM42 27L42 28L41 28L41 30L42 30L42 29L46 29L46 30L47 30L47 29L48 29L48 28L47 28L47 29L46 29L46 28L43 28L43 27ZM12 28L12 29L13 29L13 28ZM16 28L16 30L15 30L15 29L14 29L14 30L15 30L15 32L13 32L13 31L12 31L12 30L11 30L11 31L12 31L12 32L13 32L13 33L12 33L12 34L11 34L11 36L13 36L13 37L14 37L14 36L15 36L15 32L16 32L16 31L17 31L17 29L18 29L18 28ZM24 28L24 29L25 29L25 28ZM35 28L35 30L36 30L36 29L37 29L37 30L38 30L38 29L37 29L37 28ZM20 30L20 31L18 31L18 34L21 34L21 33L22 33L22 34L25 34L25 32L24 32L24 31L23 31L23 30L22 30L22 31L23 31L23 32L20 32L20 31L21 31L21 30ZM44 30L44 31L45 31L45 30ZM40 31L40 33L39 33L39 35L40 35L40 34L41 34L41 31ZM42 31L42 32L43 32L43 34L44 34L44 32L43 32L43 31ZM23 32L23 33L24 33L24 32ZM36 32L36 33L35 33L35 34L36 34L36 35L35 35L35 36L34 36L34 37L35 37L35 38L34 38L34 39L36 39L36 35L38 35L38 32ZM16 33L16 34L17 34L17 33ZM28 33L28 35L27 35L27 34L26 34L26 35L23 35L23 36L26 36L26 37L23 37L23 38L24 38L24 39L25 39L25 38L26 38L26 39L27 39L27 38L26 38L26 37L27 37L27 36L28 36L28 35L29 35L29 33ZM45 33L45 34L46 34L46 33ZM6 34L6 35L5 35L5 36L6 36L6 37L7 37L7 38L8 38L8 37L9 37L9 34ZM13 34L13 35L14 35L14 34ZM48 34L48 35L47 35L47 36L48 36L48 37L47 37L47 39L46 39L46 40L47 40L47 41L48 41L48 40L49 40L49 38L48 38L48 37L49 37L49 34ZM6 35L6 36L7 36L7 35ZM26 35L26 36L27 36L27 35ZM32 35L32 36L33 36L33 35ZM17 36L17 37L18 37L18 36ZM37 36L37 37L38 37L38 39L37 39L37 40L38 40L38 39L39 39L39 38L40 38L40 39L41 39L41 40L44 40L44 39L42 39L42 38L43 38L43 37L42 37L42 38L41 38L41 37L38 37L38 36ZM0 37L0 38L1 38L1 40L0 40L0 41L3 41L3 40L4 40L4 39L2 39L2 37ZM15 41L15 42L16 42L16 43L18 43L18 44L15 44L15 45L17 45L17 46L19 46L19 44L20 44L20 46L21 46L21 44L22 44L22 43L19 43L19 42L17 42L17 41ZM23 41L23 44L26 44L26 41ZM31 41L31 42L32 42L32 41ZM41 41L41 44L44 44L44 41ZM24 42L24 43L25 43L25 42ZM42 42L42 43L43 43L43 42ZM48 42L48 44L49 44L49 42ZM8 43L8 44L9 44L9 46L12 46L12 44L9 44L9 43ZM32 44L32 45L31 45L31 46L32 46L32 45L33 45L33 44ZM34 44L34 45L35 45L35 44ZM45 44L45 45L43 45L43 46L41 46L41 47L43 47L43 48L44 48L44 47L45 47L45 45L46 45L46 44ZM13 46L13 47L12 47L12 49L13 49L13 47L14 47L14 46ZM25 46L25 47L24 47L24 48L26 48L26 47L27 47L27 46ZM37 46L37 47L38 47L38 46ZM43 46L43 47L44 47L44 46ZM9 47L9 49L10 49L10 48L11 48L11 47ZM15 47L15 48L14 48L14 49L16 49L16 47ZM31 47L31 48L32 48L32 47ZM0 0L0 7L7 7L7 0ZM1 1L1 6L6 6L6 1ZM2 2L2 5L5 5L5 2ZM42 0L42 7L49 7L49 0ZM43 1L43 6L48 6L48 1ZM44 2L44 5L47 5L47 2ZM0 42L0 49L7 49L7 42ZM1 43L1 48L6 48L6 43ZM2 44L2 47L5 47L5 44Z" fill="#000000"/></g></g></svg>
