<?xml version="1.0" encoding="UTF-8"?>
<svg xmlns="http://www.w3.org/2000/svg" version="1.1" width="300" height="300" viewBox="0 0 300 300"><rect x="0" y="0" width="300" height="300" fill="#ffffff"/><g transform="scale(6.122)"><g transform="translate(0,0)"><path fill-rule="evenodd" d="M13 0L13 1L15 1L15 0ZM18 0L18 1L19 1L19 2L18 2L18 3L19 3L19 4L17 4L17 5L16 5L16 3L17 3L17 2L15 2L15 5L16 5L16 7L15 7L15 6L14 6L14 7L15 7L15 8L14 8L14 11L13 11L13 8L11 8L11 6L12 6L12 7L13 7L13 6L12 6L12 5L13 5L13 2L12 2L12 1L11 1L11 2L10 2L10 3L9 3L9 1L8 1L8 7L9 7L9 8L5 8L5 9L4 9L4 11L0 11L0 14L1 14L1 15L2 15L2 16L5 16L5 18L3 18L3 17L2 17L2 18L0 18L0 21L1 21L1 22L0 22L0 27L1 27L1 28L2 28L2 30L3 30L3 29L4 29L4 31L7 31L7 30L6 30L6 29L7 29L7 28L8 28L8 27L9 27L9 29L8 29L8 32L9 32L9 31L10 31L10 32L11 32L11 33L10 33L10 35L11 35L11 36L12 36L12 35L13 35L13 37L12 37L12 39L11 39L11 38L10 38L10 39L9 39L9 38L8 38L8 37L9 37L9 35L8 35L8 37L7 37L7 36L6 36L6 35L7 35L7 34L5 34L5 33L4 33L4 32L2 32L2 31L0 31L0 32L2 32L2 34L1 34L1 33L0 33L0 34L1 34L1 36L2 36L2 37L1 37L1 40L0 40L0 41L3 41L3 40L4 40L4 39L2 39L2 38L3 38L3 36L4 36L4 38L5 38L5 39L7 39L7 40L6 40L6 41L7 41L7 40L9 40L9 41L8 41L8 44L9 44L9 46L8 46L8 47L9 47L9 49L10 49L10 48L12 48L12 49L13 49L13 47L12 47L12 46L13 46L13 45L14 45L14 47L15 47L15 46L16 46L16 47L17 47L17 45L18 45L18 47L19 47L19 49L20 49L20 48L22 48L22 47L24 47L24 46L25 46L25 45L26 45L26 46L27 46L27 45L28 45L28 48L30 48L30 49L33 49L33 48L34 48L34 49L35 49L35 47L36 47L36 49L37 49L37 48L39 48L39 47L38 47L38 45L39 45L39 42L38 42L38 43L36 43L36 46L35 46L35 47L34 47L34 45L35 45L35 42L36 42L36 41L37 41L37 40L36 40L36 39L37 39L37 38L38 38L38 39L39 39L39 40L38 40L38 41L40 41L40 45L41 45L41 47L40 47L40 48L41 48L41 49L45 49L45 47L47 47L47 46L46 46L46 45L45 45L45 44L46 44L46 43L47 43L47 42L46 42L46 41L47 41L47 40L48 40L48 39L49 39L49 36L48 36L48 35L49 35L49 32L46 32L46 31L49 31L49 28L48 28L48 27L49 27L49 26L48 26L48 25L49 25L49 21L48 21L48 24L47 24L47 26L46 26L46 27L45 27L45 24L46 24L46 23L45 23L45 22L40 22L40 23L39 23L39 24L37 24L37 23L38 23L38 21L37 21L37 20L39 20L39 17L38 17L38 16L40 16L40 17L41 17L41 15L43 15L43 16L42 16L42 17L44 17L44 18L42 18L42 19L43 19L43 20L41 20L41 21L43 21L43 20L44 20L44 21L45 21L45 20L46 20L46 19L47 19L47 20L49 20L49 16L47 16L47 15L46 15L46 14L47 14L47 13L45 13L45 11L47 11L47 12L49 12L49 10L48 10L48 11L47 11L47 10L44 10L44 9L48 9L48 8L43 8L43 10L42 10L42 8L41 8L41 6L40 6L40 7L39 7L39 5L37 5L37 6L36 6L36 7L35 7L35 4L36 4L36 2L35 2L35 0L34 0L34 1L33 1L33 2L34 2L34 7L33 7L33 3L30 3L30 4L29 4L29 3L28 3L28 2L30 2L30 0L29 0L29 1L28 1L28 2L27 2L27 3L24 3L24 1L25 1L25 2L26 2L26 0L24 0L24 1L23 1L23 3L21 3L21 4L20 4L20 2L22 2L22 0L20 0L20 1L19 1L19 0ZM36 0L36 1L37 1L37 4L38 4L38 2L39 2L39 4L40 4L40 3L41 3L41 0L40 0L40 1L37 1L37 0ZM31 1L31 2L32 2L32 1ZM11 2L11 3L10 3L10 4L9 4L9 7L10 7L10 4L11 4L11 5L12 5L12 2ZM23 3L23 4L24 4L24 3ZM21 4L21 5L22 5L22 4ZM27 4L27 7L28 7L28 9L27 9L27 10L26 10L26 9L25 9L25 10L26 10L26 11L25 11L25 12L26 12L26 13L27 13L27 14L29 14L29 12L30 12L30 17L31 17L31 19L29 19L29 17L28 17L28 18L27 18L27 17L26 17L26 18L27 18L27 20L26 20L26 19L25 19L25 18L24 18L24 19L23 19L23 17L24 17L24 16L27 16L27 15L23 15L23 14L25 14L25 13L21 13L21 12L24 12L24 9L23 9L23 11L22 11L22 10L21 10L21 11L19 11L19 8L20 8L20 9L21 9L21 8L22 8L22 6L21 6L21 8L20 8L20 5L19 5L19 7L18 7L18 6L17 6L17 7L16 7L16 8L15 8L15 11L14 11L14 12L13 12L13 11L12 11L12 9L11 9L11 8L9 8L9 10L8 10L8 11L6 11L6 10L7 10L7 9L6 9L6 10L5 10L5 11L4 11L4 13L2 13L2 15L3 15L3 14L4 14L4 15L5 15L5 14L4 14L4 13L6 13L6 14L7 14L7 15L6 15L6 16L7 16L7 15L9 15L9 14L10 14L10 15L11 15L11 14L10 14L10 13L9 13L9 12L8 12L8 11L9 11L9 10L10 10L10 11L11 11L11 12L12 12L12 15L13 15L13 17L14 17L14 18L12 18L12 16L11 16L11 17L10 17L10 18L9 18L9 16L8 16L8 17L6 17L6 18L5 18L5 21L3 21L3 19L1 19L1 20L2 20L2 22L1 22L1 23L2 23L2 24L1 24L1 26L2 26L2 28L3 28L3 27L4 27L4 28L5 28L5 29L6 29L6 28L7 28L7 27L6 27L6 28L5 28L5 27L4 27L4 24L3 24L3 23L4 23L4 22L5 22L5 21L6 21L6 22L8 22L8 21L10 21L10 22L9 22L9 23L10 23L10 24L9 24L9 27L10 27L10 29L9 29L9 30L10 30L10 29L11 29L11 30L12 30L12 31L11 31L11 32L12 32L12 33L11 33L11 35L12 35L12 34L14 34L14 35L15 35L15 36L14 36L14 37L13 37L13 39L12 39L12 40L10 40L10 41L9 41L9 44L10 44L10 46L9 46L9 47L10 47L10 46L11 46L11 44L12 44L12 43L14 43L14 41L12 41L12 40L14 40L14 39L15 39L15 41L16 41L16 39L17 39L17 40L18 40L18 39L19 39L19 38L20 38L20 39L21 39L21 40L20 40L20 43L19 43L19 41L18 41L18 42L17 42L17 43L19 43L19 44L18 44L18 45L20 45L20 46L19 46L19 47L20 47L20 46L21 46L21 44L22 44L22 43L21 43L21 42L22 42L22 41L21 41L21 40L22 40L22 39L21 39L21 37L18 37L18 36L19 36L19 34L17 34L17 33L16 33L16 32L17 32L17 31L16 31L16 32L15 32L15 30L16 30L16 29L17 29L17 30L18 30L18 33L20 33L20 34L21 34L21 35L20 35L20 36L21 36L21 35L22 35L22 36L24 36L24 37L22 37L22 38L23 38L23 40L24 40L24 37L26 37L26 39L25 39L25 40L26 40L26 39L27 39L27 40L29 40L29 42L28 42L28 41L27 41L27 42L28 42L28 43L27 43L27 44L28 44L28 45L29 45L29 46L30 46L30 44L31 44L31 47L30 47L30 48L32 48L32 47L33 47L33 45L32 45L32 43L34 43L34 42L35 42L35 41L36 41L36 40L35 40L35 39L33 39L33 41L32 41L32 42L31 42L31 38L30 38L30 39L29 39L29 36L30 36L30 37L31 37L31 35L32 35L32 36L33 36L33 34L34 34L34 35L35 35L35 36L34 36L34 37L35 37L35 38L37 38L37 37L38 37L38 38L41 38L41 37L42 37L42 34L43 34L43 36L45 36L45 37L44 37L44 38L43 38L43 40L45 40L45 41L46 41L46 40L47 40L47 39L48 39L48 38L47 38L47 37L48 37L48 36L47 36L47 35L44 35L44 34L48 34L48 33L45 33L45 32L44 32L44 33L42 33L42 32L41 32L41 31L40 31L40 29L41 29L41 30L43 30L43 28L42 28L42 29L41 29L41 27L40 27L40 26L39 26L39 25L40 25L40 24L39 24L39 25L37 25L37 26L38 26L38 27L37 27L37 28L39 28L39 27L40 27L40 29L38 29L38 30L35 30L35 29L36 29L36 23L37 23L37 22L35 22L35 21L36 21L36 19L32 19L32 18L33 18L33 17L32 17L32 15L33 15L33 14L35 14L35 16L34 16L34 17L36 17L36 16L37 16L37 14L38 14L38 15L41 15L41 13L42 13L42 14L43 14L43 13L44 13L44 11L43 11L43 13L42 13L42 12L41 12L41 11L39 11L39 10L41 10L41 8L39 8L39 7L38 7L38 6L37 6L37 7L36 7L36 8L38 8L38 9L36 9L36 10L37 10L37 11L38 11L38 13L37 13L37 14L35 14L35 13L34 13L34 12L35 12L35 11L32 11L32 10L33 10L33 7L32 7L32 6L31 6L31 7L30 7L30 5L29 5L29 4ZM31 4L31 5L32 5L32 4ZM23 5L23 8L26 8L26 5ZM28 5L28 7L29 7L29 5ZM24 6L24 7L25 7L25 6ZM2 8L2 9L1 9L1 10L2 10L2 9L3 9L3 8ZM17 8L17 9L16 9L16 10L18 10L18 8ZM30 8L30 10L29 10L29 9L28 9L28 11L27 11L27 12L29 12L29 11L31 11L31 9L32 9L32 8ZM34 8L34 10L35 10L35 8ZM10 9L10 10L11 10L11 9ZM16 11L16 12L17 12L17 13L16 13L16 14L14 14L14 17L15 17L15 19L16 19L16 20L15 20L15 21L16 21L16 22L14 22L14 20L13 20L13 19L12 19L12 18L11 18L11 19L12 19L12 20L11 20L11 21L12 21L12 22L10 22L10 23L11 23L11 26L12 26L12 24L13 24L13 27L11 27L11 29L12 29L12 30L13 30L13 33L14 33L14 34L15 34L15 33L14 33L14 30L15 30L15 28L17 28L17 29L19 29L19 28L20 28L20 29L22 29L22 30L24 30L24 29L23 29L23 28L24 28L24 27L25 27L25 28L26 28L26 29L25 29L25 31L23 31L23 32L25 32L25 33L26 33L26 34L22 34L22 35L25 35L25 36L26 36L26 37L27 37L27 36L28 36L28 35L30 35L30 34L29 34L29 33L31 33L31 31L30 31L30 30L31 30L31 29L28 29L28 30L26 30L26 29L27 29L27 28L26 28L26 27L27 27L27 26L28 26L28 25L29 25L29 24L28 24L28 23L27 23L27 22L29 22L29 23L30 23L30 24L31 24L31 26L29 26L29 27L28 27L28 28L29 28L29 27L30 27L30 28L31 28L31 27L34 27L34 29L32 29L32 30L33 30L33 31L34 31L34 33L35 33L35 31L34 31L34 29L35 29L35 27L34 27L34 24L32 24L32 23L34 23L34 21L35 21L35 20L34 20L34 21L33 21L33 20L32 20L32 21L31 21L31 22L29 22L29 20L27 20L27 21L26 21L26 20L25 20L25 19L24 19L24 21L23 21L23 22L22 22L22 21L21 21L21 24L22 24L22 27L23 27L23 28L21 28L21 26L20 26L20 24L19 24L19 23L20 23L20 20L23 20L23 19L20 19L20 17L19 17L19 16L22 16L22 17L21 17L21 18L22 18L22 17L23 17L23 16L22 16L22 15L18 15L18 14L21 14L21 13L20 13L20 12L18 12L18 11ZM6 12L6 13L7 13L7 14L8 14L8 12ZM32 12L32 13L31 13L31 15L32 15L32 13L33 13L33 12ZM39 12L39 13L40 13L40 12ZM48 13L48 15L49 15L49 13ZM15 15L15 17L17 17L17 20L18 20L18 22L16 22L16 23L15 23L15 25L14 25L14 26L15 26L15 27L17 27L17 28L18 28L18 27L20 27L20 26L18 26L18 27L17 27L17 25L19 25L19 24L17 24L17 23L19 23L19 20L20 20L20 19L18 19L18 16L16 16L16 15ZM0 16L0 17L1 17L1 16ZM45 17L45 18L44 18L44 19L45 19L45 18L46 18L46 17ZM6 18L6 19L7 19L7 20L6 20L6 21L8 21L8 19L9 19L9 18L8 18L8 19L7 19L7 18ZM40 18L40 19L41 19L41 18ZM47 18L47 19L48 19L48 18ZM12 20L12 21L13 21L13 20ZM24 21L24 22L26 22L26 21ZM2 22L2 23L3 23L3 22ZM12 22L12 23L14 23L14 22ZM5 23L5 26L8 26L8 23ZM23 23L23 26L26 26L26 23ZM41 23L41 26L44 26L44 23ZM2 24L2 25L3 25L3 24ZM6 24L6 25L7 25L7 24ZM16 24L16 25L15 25L15 26L16 26L16 25L17 25L17 24ZM24 24L24 25L25 25L25 24ZM27 24L27 25L28 25L28 24ZM42 24L42 25L43 25L43 24ZM32 25L32 26L33 26L33 25ZM13 27L13 30L14 30L14 27ZM44 27L44 28L45 28L45 29L46 29L46 30L47 30L47 27L46 27L46 28L45 28L45 27ZM20 30L20 31L19 31L19 32L20 32L20 31L21 31L21 30ZM44 30L44 31L45 31L45 30ZM25 31L25 32L28 32L28 31ZM37 31L37 33L36 33L36 34L37 34L37 36L36 36L36 37L37 37L37 36L38 36L38 37L41 37L41 36L40 36L40 35L38 35L38 34L37 34L37 33L38 33L38 31ZM39 31L39 33L40 33L40 34L42 34L42 33L41 33L41 32L40 32L40 31ZM6 32L6 33L7 33L7 32ZM21 32L21 33L22 33L22 32ZM32 33L32 34L33 34L33 33ZM3 34L3 35L4 35L4 36L5 36L5 34ZM16 34L16 38L15 38L15 37L14 37L14 38L15 38L15 39L16 39L16 38L18 38L18 37L17 37L17 36L18 36L18 35L17 35L17 34ZM26 34L26 36L27 36L27 34ZM5 37L5 38L7 38L7 39L8 39L8 38L7 38L7 37ZM32 37L32 38L33 38L33 37ZM46 38L46 39L47 39L47 38ZM40 39L40 40L42 40L42 39ZM34 40L34 41L35 41L35 40ZM10 41L10 42L11 42L11 41ZM23 41L23 44L26 44L26 41ZM41 41L41 44L44 44L44 41ZM48 41L48 43L49 43L49 41ZM24 42L24 43L25 43L25 42ZM29 42L29 43L28 43L28 44L30 44L30 43L31 43L31 42ZM42 42L42 43L43 43L43 42ZM15 43L15 44L14 44L14 45L15 45L15 44L16 44L16 45L17 45L17 44L16 44L16 43ZM20 43L20 44L21 44L21 43ZM47 44L47 45L48 45L48 44ZM22 45L22 46L24 46L24 45ZM42 45L42 48L44 48L44 45ZM48 46L48 47L49 47L49 46ZM25 47L25 48L26 48L26 47ZM14 48L14 49L16 49L16 48ZM17 48L17 49L18 49L18 48ZM48 48L48 49L49 49L49 48ZM0 0L0 7L7 7L7 0ZM1 1L1 6L6 6L6 1ZM2 2L2 5L5 5L5 2ZM42 0L42 7L49 7L49 0ZM43 1L43 6L48 6L48 1ZM44 2L44 5L47 5L47 2ZM0 42L0 49L7 49L7 42ZM1 43L1 48L6 48L6 43ZM2 44L2 47L5 47L5 44Z" fill="#000000"/></g></g></svg>
