<?xml version="1.0" encoding="UTF-8"?>
<svg xmlns="http://www.w3.org/2000/svg" version="1.1" width="300" height="300" viewBox="0 0 300 300"><rect x="0" y="0" width="300" height="300" fill="#ffffff"/><g transform="scale(6.122)"><g transform="translate(0,0)"><path fill-rule="evenodd" d="M9 0L9 1L8 1L8 2L9 2L9 1L10 1L10 3L9 3L9 5L8 5L8 8L4 8L4 9L7 9L7 10L5 10L5 12L6 12L6 13L8 13L8 14L5 14L5 13L4 13L4 12L3 12L3 11L4 11L4 10L2 10L2 9L0 9L0 13L2 13L2 12L3 12L3 13L4 13L4 14L3 14L3 17L5 17L5 18L3 18L3 19L5 19L5 22L4 22L4 24L2 24L2 22L3 22L3 21L2 21L2 20L1 20L1 19L0 19L0 22L1 22L1 23L0 23L0 25L1 25L1 26L0 26L0 27L1 27L1 28L0 28L0 30L1 30L1 29L3 29L3 28L2 28L2 27L3 27L3 25L4 25L4 28L5 28L5 29L4 29L4 31L3 31L3 30L2 30L2 31L3 31L3 32L4 32L4 33L1 33L1 34L0 34L0 35L1 35L1 36L2 36L2 38L1 38L1 37L0 37L0 38L1 38L1 40L0 40L0 41L3 41L3 40L4 40L4 39L2 39L2 38L5 38L5 39L7 39L7 38L6 38L6 37L8 37L8 40L9 40L9 37L12 37L12 36L11 36L11 32L12 32L12 31L13 31L13 32L14 32L14 30L15 30L15 31L16 31L16 32L15 32L15 33L16 33L16 32L18 32L18 30L19 30L19 32L20 32L20 30L21 30L21 32L22 32L22 33L23 33L23 34L22 34L22 36L23 36L23 37L24 37L24 38L22 38L22 37L21 37L21 36L20 36L20 35L19 35L19 33L17 33L17 34L16 34L16 35L15 35L15 34L14 34L14 33L12 33L12 34L14 34L14 35L13 35L13 39L14 39L14 40L10 40L10 42L11 42L11 41L13 41L13 42L12 42L12 43L13 43L13 44L11 44L11 43L9 43L9 41L8 41L8 45L9 45L9 46L10 46L10 47L11 47L11 48L10 48L10 49L13 49L13 47L14 47L14 44L15 44L15 46L17 46L17 44L16 44L16 43L14 43L14 41L16 41L16 42L18 42L18 44L19 44L19 45L20 45L20 46L19 46L19 47L22 47L22 48L21 48L21 49L24 49L24 47L25 47L25 48L26 48L26 47L27 47L27 49L34 49L34 48L33 48L33 47L34 47L34 45L33 45L33 41L34 41L34 40L35 40L35 42L34 42L34 43L35 43L35 45L38 45L38 47L36 47L36 46L35 46L35 49L37 49L37 48L39 48L39 49L41 49L41 48L40 48L40 47L39 47L39 45L41 45L41 47L44 47L44 48L42 48L42 49L49 49L49 48L48 48L48 47L47 47L47 46L46 46L46 45L47 45L47 44L48 44L48 43L47 43L47 42L46 42L46 40L47 40L47 41L48 41L48 40L47 40L47 38L48 38L48 37L49 37L49 36L47 36L47 35L48 35L48 34L45 34L45 33L44 33L44 32L45 32L45 31L46 31L46 32L48 32L48 33L49 33L49 32L48 32L48 29L49 29L49 28L48 28L48 29L47 29L47 27L48 27L48 26L49 26L49 23L46 23L46 24L45 24L45 21L48 21L48 20L49 20L49 19L48 19L48 20L47 20L47 18L48 18L48 17L49 17L49 16L48 16L48 15L47 15L47 16L48 16L48 17L46 17L46 18L44 18L44 17L45 17L45 15L46 15L46 14L47 14L47 13L48 13L48 12L49 12L49 11L48 11L48 12L47 12L47 10L45 10L45 9L44 9L44 8L42 8L42 9L41 9L41 8L39 8L39 9L38 9L38 8L36 8L36 9L35 9L35 8L34 8L34 9L35 9L35 11L33 11L33 12L32 12L32 17L31 17L31 18L29 18L29 19L27 19L27 20L29 20L29 21L26 21L26 20L25 20L25 18L24 18L24 17L26 17L26 18L28 18L28 17L27 17L27 16L24 16L24 14L25 14L25 13L26 13L26 12L25 12L25 10L26 10L26 11L28 11L28 10L29 10L29 12L27 12L27 13L29 13L29 14L27 14L27 15L29 15L29 17L30 17L30 15L31 15L31 13L29 13L29 12L30 12L30 10L29 10L29 9L32 9L32 10L31 10L31 11L32 11L32 10L33 10L33 9L32 9L32 7L33 7L33 6L32 6L32 4L33 4L33 5L34 5L34 7L35 7L35 5L36 5L36 7L37 7L37 5L36 5L36 4L35 4L35 5L34 5L34 3L37 3L37 4L38 4L38 3L37 3L37 0L35 0L35 1L34 1L34 0L33 0L33 1L32 1L32 2L31 2L31 1L29 1L29 0L27 0L27 1L26 1L26 0L22 0L22 1L24 1L24 2L23 2L23 4L20 4L20 3L21 3L21 2L20 2L20 3L19 3L19 0L13 0L13 1L12 1L12 0ZM20 0L20 1L21 1L21 0ZM40 0L40 1L38 1L38 2L39 2L39 4L40 4L40 3L41 3L41 0ZM15 1L15 2L14 2L14 3L15 3L15 4L14 4L14 5L13 5L13 7L12 7L12 6L11 6L11 4L10 4L10 6L9 6L9 8L8 8L8 10L7 10L7 11L6 11L6 12L8 12L8 13L9 13L9 14L10 14L10 15L9 15L9 16L8 16L8 17L10 17L10 18L8 18L8 22L9 22L9 24L10 24L10 22L11 22L11 23L12 23L12 24L11 24L11 25L9 25L9 27L8 27L8 28L7 28L7 27L5 27L5 28L7 28L7 29L6 29L6 30L7 30L7 29L8 29L8 31L6 31L6 32L7 32L7 33L5 33L5 34L4 34L4 35L2 35L2 34L1 34L1 35L2 35L2 36L3 36L3 37L4 37L4 35L5 35L5 36L7 36L7 35L5 35L5 34L8 34L8 37L9 37L9 35L10 35L10 33L9 33L9 34L8 34L8 31L9 31L9 30L10 30L10 32L11 32L11 30L13 30L13 29L14 29L14 28L17 28L17 27L18 27L18 29L20 29L20 28L19 28L19 27L18 27L18 26L20 26L20 27L21 27L21 28L24 28L24 29L25 29L25 31L26 31L26 32L27 32L27 30L26 30L26 29L25 29L25 28L26 28L26 27L21 27L21 26L22 26L22 23L21 23L21 22L19 22L19 24L18 24L18 22L17 22L17 21L19 21L19 18L20 18L20 21L21 21L21 20L23 20L23 16L22 16L22 15L23 15L23 14L24 14L24 12L21 12L21 11L22 11L22 10L21 10L21 9L22 9L22 8L20 8L20 6L21 6L21 7L22 7L22 6L21 6L21 5L20 5L20 6L19 6L19 4L18 4L18 2L17 2L17 1ZM25 1L25 2L26 2L26 1ZM27 1L27 4L29 4L29 7L30 7L30 8L31 8L31 7L32 7L32 6L31 6L31 5L30 5L30 4L29 4L29 3L30 3L30 2L28 2L28 1ZM35 1L35 2L36 2L36 1ZM11 2L11 3L13 3L13 2ZM15 2L15 3L16 3L16 8L15 8L15 6L14 6L14 9L13 9L13 8L12 8L12 7L11 7L11 6L10 6L10 7L11 7L11 8L12 8L12 9L13 9L13 12L14 12L14 9L16 9L16 10L17 10L17 9L20 9L20 8L19 8L19 6L18 6L18 7L17 7L17 5L18 5L18 4L17 4L17 2ZM33 2L33 3L34 3L34 2ZM23 5L23 8L26 8L26 5ZM38 5L38 7L39 7L39 5ZM24 6L24 7L25 7L25 6ZM27 6L27 8L28 8L28 6ZM30 6L30 7L31 7L31 6ZM40 6L40 7L41 7L41 6ZM9 8L9 11L8 11L8 12L9 12L9 11L10 11L10 10L11 10L11 9L10 9L10 8ZM47 8L47 9L48 9L48 10L49 10L49 9L48 9L48 8ZM23 9L23 10L25 10L25 9ZM26 9L26 10L27 10L27 9ZM39 9L39 10L41 10L41 9ZM43 9L43 10L42 10L42 11L41 11L41 12L42 12L42 11L43 11L43 14L42 14L42 16L43 16L43 15L45 15L45 13L44 13L44 11L45 11L45 10L44 10L44 9ZM18 10L18 11L19 11L19 10ZM36 10L36 11L35 11L35 13L33 13L33 14L35 14L35 15L33 15L33 17L34 17L34 16L35 16L35 15L36 15L36 16L37 16L37 15L38 15L38 14L37 14L37 13L39 13L39 16L38 16L38 17L35 17L35 18L37 18L37 19L40 19L40 18L41 18L41 19L42 19L42 20L41 20L41 21L39 21L39 20L37 20L37 21L36 21L36 22L35 22L35 20L34 20L34 23L36 23L36 22L37 22L37 24L40 24L40 22L42 22L42 20L43 20L43 21L44 21L44 20L43 20L43 19L44 19L44 18L42 18L42 17L41 17L41 13L40 13L40 12L39 12L39 11L37 11L37 10ZM11 11L11 12L12 12L12 11ZM15 11L15 13L10 13L10 14L11 14L11 15L12 15L12 16L11 16L11 19L9 19L9 22L10 22L10 21L11 21L11 22L12 22L12 23L13 23L13 25L11 25L11 26L12 26L12 29L13 29L13 27L15 27L15 26L16 26L16 24L17 24L17 26L18 26L18 24L17 24L17 22L16 22L16 20L18 20L18 19L17 19L17 18L16 18L16 17L15 17L15 16L16 16L16 15L18 15L18 16L17 16L17 17L19 17L19 16L20 16L20 17L21 17L21 18L22 18L22 16L21 16L21 14L18 14L18 13L20 13L20 12L18 12L18 13L17 13L17 12L16 12L16 11ZM36 11L36 13L35 13L35 14L36 14L36 15L37 15L37 14L36 14L36 13L37 13L37 11ZM15 13L15 14L14 14L14 15L13 15L13 18L12 18L12 19L11 19L11 20L12 20L12 21L13 21L13 22L14 22L14 23L15 23L15 24L16 24L16 23L15 23L15 22L14 22L14 21L15 21L15 20L16 20L16 18L15 18L15 19L13 19L13 18L14 18L14 15L15 15L15 14L16 14L16 13ZM0 14L0 15L1 15L1 14ZM4 15L4 16L5 16L5 17L6 17L6 18L5 18L5 19L6 19L6 20L7 20L7 19L6 19L6 18L7 18L7 17L6 17L6 16L7 16L7 15ZM0 16L0 18L2 18L2 17L1 17L1 16ZM39 16L39 17L40 17L40 16ZM32 18L32 19L29 19L29 20L30 20L30 23L32 23L32 24L33 24L33 25L34 25L34 31L36 31L36 33L34 33L34 32L33 32L33 31L31 31L31 33L32 33L32 34L34 34L34 35L32 35L32 36L33 36L33 37L34 37L34 36L35 36L35 35L36 35L36 36L37 36L37 38L36 38L36 37L35 37L35 38L36 38L36 39L35 39L35 40L37 40L37 41L38 41L38 40L39 40L39 42L38 42L38 43L40 43L40 39L39 39L39 38L41 38L41 36L40 36L40 35L43 35L43 36L45 36L45 34L44 34L44 35L43 35L43 34L40 34L40 33L41 33L41 32L42 32L42 31L44 31L44 30L45 30L45 29L43 29L43 28L42 28L42 27L41 27L41 30L42 30L42 31L41 31L41 32L40 32L40 26L39 26L39 27L38 27L38 26L37 26L37 25L34 25L34 24L33 24L33 21L32 21L32 20L33 20L33 18ZM45 19L45 20L46 20L46 19ZM13 20L13 21L14 21L14 20ZM1 21L1 22L2 22L2 21ZM6 21L6 22L7 22L7 21ZM22 21L22 22L23 22L23 21ZM38 21L38 23L39 23L39 21ZM27 22L27 24L28 24L28 26L27 26L27 27L29 27L29 26L30 26L30 27L31 27L31 28L30 28L30 30L31 30L31 29L32 29L32 30L33 30L33 26L32 26L32 25L31 25L31 24L30 24L30 25L29 25L29 24L28 24L28 23L29 23L29 22ZM5 23L5 26L8 26L8 23ZM23 23L23 26L26 26L26 23ZM41 23L41 26L44 26L44 23ZM1 24L1 25L2 25L2 24ZM6 24L6 25L7 25L7 24ZM19 24L19 25L20 25L20 26L21 26L21 25L20 25L20 24ZM24 24L24 25L25 25L25 24ZM42 24L42 25L43 25L43 24ZM47 24L47 25L45 25L45 27L44 27L44 28L46 28L46 26L47 26L47 25L48 25L48 24ZM13 25L13 26L14 26L14 25ZM30 25L30 26L31 26L31 25ZM9 27L9 29L11 29L11 27ZM35 27L35 30L36 30L36 31L37 31L37 34L36 34L36 35L37 35L37 36L38 36L38 38L37 38L37 39L38 39L38 38L39 38L39 33L38 33L38 31L39 31L39 28L37 28L37 27ZM28 28L28 33L26 33L26 34L25 34L25 33L24 33L24 34L23 34L23 35L24 35L24 37L25 37L25 38L24 38L24 39L22 39L22 40L19 40L19 41L21 41L21 42L20 42L20 43L19 43L19 44L20 44L20 43L21 43L21 42L22 42L22 40L24 40L24 39L25 39L25 40L26 40L26 36L28 36L28 33L29 33L29 34L30 34L30 31L29 31L29 28ZM15 29L15 30L16 30L16 29ZM21 29L21 30L22 30L22 32L24 32L24 30L22 30L22 29ZM36 29L36 30L38 30L38 29ZM42 29L42 30L43 30L43 29ZM46 29L46 30L47 30L47 29ZM20 33L20 34L21 34L21 33ZM17 34L17 35L16 35L16 37L15 37L15 36L14 36L14 38L16 38L16 41L18 41L18 40L17 40L17 39L18 39L18 38L16 38L16 37L17 37L17 36L19 36L19 35L18 35L18 34ZM24 34L24 35L25 35L25 36L26 36L26 35L27 35L27 34L26 34L26 35L25 35L25 34ZM37 34L37 35L38 35L38 34ZM30 35L30 36L29 36L29 37L27 37L27 39L29 39L29 37L30 37L30 38L31 38L31 39L33 39L33 38L32 38L32 37L31 37L31 35ZM42 37L42 39L43 39L43 40L45 40L45 39L46 39L46 38L47 38L47 37L45 37L45 39L43 39L43 38L44 38L44 37ZM10 38L10 39L11 39L11 38ZM19 38L19 39L20 39L20 38ZM6 40L6 41L7 41L7 40ZM27 40L27 42L28 42L28 44L27 44L27 45L26 45L26 46L27 46L27 47L28 47L28 48L32 48L32 47L28 47L28 44L29 44L29 42L28 42L28 41L30 41L30 40ZM23 41L23 44L26 44L26 41ZM31 41L31 42L32 42L32 41ZM41 41L41 44L44 44L44 41ZM24 42L24 43L25 43L25 42ZM35 42L35 43L36 43L36 42ZM42 42L42 43L43 43L43 42ZM31 43L31 45L29 45L29 46L31 46L31 45L32 45L32 43ZM45 43L45 44L46 44L46 43ZM9 44L9 45L10 45L10 46L11 46L11 47L12 47L12 45L10 45L10 44ZM21 44L21 45L22 45L22 46L25 46L25 45L22 45L22 44ZM44 45L44 47L45 47L45 45ZM48 45L48 46L49 46L49 45ZM15 47L15 48L14 48L14 49L15 49L15 48L16 48L16 49L17 49L17 48L18 48L18 47ZM19 48L19 49L20 49L20 48ZM0 0L0 7L7 7L7 0ZM1 1L1 6L6 6L6 1ZM2 2L2 5L5 5L5 2ZM42 0L42 7L49 7L49 0ZM43 1L43 6L48 6L48 1ZM44 2L44 5L47 5L47 2ZM0 42L0 49L7 49L7 42ZM1 43L1 48L6 48L6 43ZM2 44L2 47L5 47L5 44Z" fill="#000000"/></g></g></svg>
