<?xml version="1.0" encoding="UTF-8"?>
<svg xmlns="http://www.w3.org/2000/svg" version="1.1" width="300" height="300" viewBox="0 0 300 300"><rect x="0" y="0" width="300" height="300" fill="#ffffff"/><g transform="scale(7.317)"><g transform="translate(0,0)"><path fill-rule="evenodd" d="M9 0L9 1L10 1L10 3L9 3L9 4L8 4L8 5L10 5L10 7L11 7L11 6L12 6L12 7L13 7L13 6L14 6L14 7L15 7L15 6L16 6L16 9L14 9L14 8L12 8L12 9L11 9L11 8L9 8L9 6L8 6L8 8L6 8L6 9L7 9L7 10L6 10L6 11L7 11L7 12L5 12L5 11L4 11L4 10L5 10L5 9L4 9L4 8L2 8L2 9L0 9L0 10L3 10L3 11L0 11L0 20L1 20L1 22L3 22L3 21L4 21L4 22L6 22L6 23L7 23L7 22L8 22L8 24L9 24L9 25L8 25L8 28L6 28L6 27L7 27L7 26L6 26L6 25L7 25L7 24L6 24L6 25L4 25L4 24L5 24L5 23L4 23L4 24L3 24L3 23L2 23L2 24L0 24L0 26L1 26L1 29L2 29L2 32L1 32L1 33L2 33L2 32L6 32L6 33L8 33L8 35L9 35L9 34L10 34L10 36L11 36L11 37L13 37L13 39L12 39L12 38L10 38L10 39L9 39L9 37L8 37L8 39L9 39L9 41L10 41L10 40L11 40L11 39L12 39L12 41L13 41L13 39L14 39L14 40L15 40L15 41L17 41L17 40L18 40L18 41L20 41L20 39L19 39L19 40L18 40L18 37L17 37L17 38L16 38L16 37L15 37L15 36L16 36L16 34L14 34L14 33L11 33L11 34L10 34L10 33L8 33L8 31L11 31L11 32L13 32L13 31L12 31L12 29L11 29L11 28L12 28L12 27L13 27L13 30L17 30L17 29L18 29L18 30L19 30L19 32L18 32L18 31L14 31L14 32L15 32L15 33L18 33L18 34L19 34L19 33L20 33L20 34L21 34L21 35L22 35L22 34L23 34L23 36L22 36L22 37L21 37L21 36L20 36L20 37L19 37L19 38L23 38L23 37L24 37L24 38L25 38L25 39L24 39L24 41L28 41L28 40L29 40L29 39L27 39L27 38L33 38L33 37L36 37L36 38L35 38L35 39L36 39L36 40L37 40L37 41L40 41L40 39L41 39L41 36L40 36L40 34L41 34L41 33L40 33L40 32L41 32L41 31L39 31L39 30L40 30L40 28L41 28L41 25L40 25L40 27L39 27L39 29L38 29L38 26L39 26L39 25L37 25L37 26L36 26L36 27L35 27L35 25L34 25L34 27L33 27L33 26L32 26L32 24L33 24L33 23L34 23L34 24L35 24L35 23L36 23L36 24L37 24L37 21L39 21L39 24L41 24L41 23L40 23L40 22L41 22L41 19L39 19L39 18L40 18L40 17L39 17L39 18L38 18L38 16L37 16L37 15L38 15L38 14L39 14L39 16L40 16L40 15L41 15L41 11L40 11L40 10L39 10L39 9L38 9L38 11L39 11L39 12L37 12L37 11L36 11L36 12L35 12L35 10L37 10L37 8L36 8L36 9L35 9L35 8L33 8L33 9L32 9L32 7L33 7L33 6L32 6L32 4L31 4L31 3L33 3L33 0L32 0L32 2L30 2L30 1L31 1L31 0L30 0L30 1L29 1L29 2L27 2L27 3L26 3L26 5L24 5L24 8L23 8L23 10L22 10L22 11L21 11L21 9L20 9L20 7L21 7L21 6L20 6L20 7L19 7L19 5L18 5L18 7L17 7L17 4L16 4L16 3L15 3L15 2L16 2L16 1L17 1L17 2L18 2L18 4L19 4L19 2L18 2L18 1L20 1L20 2L22 2L22 3L20 3L20 4L25 4L25 3L24 3L24 1L25 1L25 2L26 2L26 1L27 1L27 0L24 0L24 1L23 1L23 2L22 2L22 1L20 1L20 0L15 0L15 1L14 1L14 3L13 3L13 0L12 0L12 1L11 1L11 0ZM29 2L29 3L28 3L28 5L26 5L26 6L25 6L25 8L26 8L26 6L27 6L27 7L28 7L28 8L27 8L27 10L26 10L26 9L24 9L24 10L23 10L23 11L22 11L22 12L21 12L21 11L20 11L20 9L18 9L18 8L19 8L19 7L18 7L18 8L17 8L17 9L16 9L16 10L15 10L15 11L14 11L14 12L13 12L13 11L11 11L11 10L10 10L10 9L8 9L8 11L9 11L9 13L8 13L8 12L7 12L7 13L5 13L5 14L4 14L4 15L5 15L5 14L7 14L7 15L6 15L6 16L5 16L5 17L6 17L6 18L7 18L7 19L5 19L5 21L6 21L6 22L7 22L7 21L6 21L6 20L7 20L7 19L8 19L8 18L10 18L10 19L9 19L9 21L11 21L11 19L12 19L12 18L13 18L13 20L12 20L12 22L13 22L13 20L15 20L15 21L14 21L14 23L13 23L13 24L12 24L12 25L13 25L13 27L14 27L14 28L15 28L15 26L18 26L18 27L16 27L16 28L18 28L18 27L21 27L21 30L23 30L23 29L22 29L22 28L24 28L24 29L26 29L26 28L27 28L27 27L28 27L28 26L27 26L27 27L26 27L26 25L25 25L25 28L24 28L24 26L23 26L23 25L24 25L24 24L23 24L23 23L22 23L22 22L23 22L23 21L22 21L22 22L21 22L21 21L20 21L20 20L21 20L21 19L22 19L22 17L24 17L24 18L26 18L26 19L25 19L25 20L26 20L26 21L27 21L27 22L26 22L26 23L27 23L27 24L28 24L28 25L29 25L29 24L30 24L30 27L29 27L29 28L28 28L28 29L27 29L27 31L30 31L30 30L31 30L31 32L32 32L32 31L34 31L34 30L35 30L35 31L36 31L36 30L37 30L37 33L38 33L38 30L37 30L37 29L36 29L36 28L35 28L35 27L34 27L34 28L32 28L32 29L30 29L30 27L31 27L31 24L32 24L32 23L33 23L33 22L34 22L34 20L35 20L35 22L36 22L36 20L37 20L37 19L38 19L38 18L37 18L37 17L36 17L36 15L37 15L37 12L36 12L36 14L32 14L32 15L31 15L31 14L30 14L30 15L29 15L29 13L28 13L28 11L29 11L29 12L30 12L30 13L31 13L31 12L30 12L30 11L32 11L32 10L30 10L30 9L29 9L29 10L28 10L28 8L29 8L29 7L30 7L30 6L29 6L29 7L28 7L28 5L31 5L31 4L30 4L30 2ZM11 3L11 5L13 5L13 3ZM14 3L14 6L15 6L15 3ZM22 5L22 7L23 7L23 5ZM31 6L31 7L32 7L32 6ZM3 9L3 10L4 10L4 9ZM12 9L12 10L13 10L13 9ZM9 10L9 11L10 11L10 15L9 15L9 16L6 16L6 17L10 17L10 18L11 18L11 17L12 17L12 16L13 16L13 18L14 18L14 19L16 19L16 18L17 18L17 17L15 17L15 18L14 18L14 16L15 16L15 15L16 15L16 16L18 16L18 15L19 15L19 16L20 16L20 14L22 14L22 13L24 13L24 14L23 14L23 15L22 15L22 16L21 16L21 17L20 17L20 18L21 18L21 17L22 17L22 16L23 16L23 15L24 15L24 17L26 17L26 16L28 16L28 17L27 17L27 19L26 19L26 20L27 20L27 21L28 21L28 23L29 23L29 21L28 21L28 20L29 20L29 19L30 19L30 17L31 17L31 18L32 18L32 19L31 19L31 20L30 20L30 22L33 22L33 21L31 21L31 20L32 20L32 19L34 19L34 18L33 18L33 16L35 16L35 15L33 15L33 16L32 16L32 17L31 17L31 16L28 16L28 15L26 15L26 14L27 14L27 13L26 13L26 14L25 14L25 13L24 13L24 11L23 11L23 12L22 12L22 13L20 13L20 14L19 14L19 10L18 10L18 11L17 11L17 10L16 10L16 11L17 11L17 12L18 12L18 13L16 13L16 12L15 12L15 13L14 13L14 14L13 14L13 12L12 12L12 14L13 14L13 15L11 15L11 11L10 11L10 10ZM25 10L25 11L26 11L26 12L27 12L27 11L26 11L26 10ZM29 10L29 11L30 11L30 10ZM3 11L3 12L4 12L4 11ZM1 12L1 16L2 16L2 17L1 17L1 18L2 18L2 19L1 19L1 20L2 20L2 21L3 21L3 20L2 20L2 19L4 19L4 17L3 17L3 16L2 16L2 15L3 15L3 13L2 13L2 12ZM34 12L34 13L35 13L35 12ZM39 12L39 13L40 13L40 12ZM14 14L14 15L15 15L15 14ZM16 14L16 15L18 15L18 14ZM24 14L24 15L25 15L25 16L26 16L26 15L25 15L25 14ZM10 15L10 17L11 17L11 15ZM2 17L2 18L3 18L3 17ZM18 17L18 19L19 19L19 20L18 20L18 21L19 21L19 20L20 20L20 19L19 19L19 17ZM36 18L36 19L35 19L35 20L36 20L36 19L37 19L37 18ZM27 19L27 20L28 20L28 19ZM39 20L39 21L40 21L40 20ZM16 21L16 22L15 22L15 23L18 23L18 24L19 24L19 23L18 23L18 22L17 22L17 21ZM24 21L24 23L25 23L25 21ZM9 22L9 23L10 23L10 24L11 24L11 23L10 23L10 22ZM20 23L20 26L22 26L22 27L23 27L23 26L22 26L22 23ZM30 23L30 24L31 24L31 23ZM13 24L13 25L15 25L15 24ZM16 24L16 25L17 25L17 24ZM1 25L1 26L2 26L2 29L3 29L3 30L4 30L4 29L6 29L6 30L5 30L5 31L6 31L6 32L7 32L7 31L6 31L6 30L7 30L7 29L6 29L6 28L5 28L5 27L6 27L6 26L5 26L5 27L4 27L4 26L2 26L2 25ZM9 25L9 26L10 26L10 27L12 27L12 26L11 26L11 25ZM3 27L3 28L4 28L4 27ZM8 28L8 29L10 29L10 30L11 30L11 29L10 29L10 28ZM19 29L19 30L20 30L20 29ZM33 29L33 30L34 30L34 29ZM0 30L0 31L1 31L1 30ZM25 30L25 31L26 31L26 30ZM21 31L21 32L22 32L22 33L23 33L23 32L22 32L22 31ZM24 32L24 33L25 33L25 35L24 35L24 36L25 36L25 37L26 37L26 38L27 38L27 35L28 35L28 37L30 37L30 35L31 35L31 34L32 34L32 33L31 33L31 34L30 34L30 32L29 32L29 33L27 33L27 32L26 32L26 33L25 33L25 32ZM26 33L26 35L25 35L25 36L26 36L26 35L27 35L27 33ZM33 33L33 36L36 36L36 33ZM39 33L39 34L38 34L38 35L37 35L37 38L36 38L36 39L38 39L38 40L39 40L39 39L40 39L40 38L39 38L39 37L40 37L40 36L39 36L39 34L40 34L40 33ZM13 34L13 35L11 35L11 36L13 36L13 37L14 37L14 36L15 36L15 35L14 35L14 34ZM28 34L28 35L30 35L30 34ZM34 34L34 35L35 35L35 34ZM13 35L13 36L14 36L14 35ZM17 35L17 36L18 36L18 35ZM31 36L31 37L32 37L32 36ZM38 36L38 37L39 37L39 36ZM14 38L14 39L15 39L15 40L17 40L17 39L16 39L16 38ZM25 39L25 40L26 40L26 39ZM32 39L32 41L33 41L33 40L34 40L34 39ZM22 40L22 41L23 41L23 40ZM30 40L30 41L31 41L31 40ZM0 0L0 7L7 7L7 0ZM1 1L1 6L6 6L6 1ZM2 2L2 5L5 5L5 2ZM34 0L34 7L41 7L41 0ZM35 1L35 6L40 6L40 1ZM36 2L36 5L39 5L39 2ZM0 34L0 41L7 41L7 34ZM1 35L1 40L6 40L6 35ZM2 36L2 39L5 39L5 36Z" fill="#000000"/></g></g></svg>
