<?xml version="1.0" encoding="UTF-8"?>
<svg xmlns="http://www.w3.org/2000/svg" version="1.1" width="300" height="300" viewBox="0 0 300 300"><rect x="0" y="0" width="300" height="300" fill="#ffffff"/><g transform="scale(7.317)"><g transform="translate(0,0)"><path fill-rule="evenodd" d="M8 0L8 2L9 2L9 1L10 1L10 0ZM12 0L12 1L11 1L11 2L14 2L14 3L15 3L15 4L14 4L14 5L13 5L13 3L10 3L10 4L9 4L9 3L8 3L8 7L9 7L9 9L10 9L10 10L9 10L9 13L8 13L8 14L6 14L6 13L7 13L7 12L8 12L8 11L7 11L7 10L6 10L6 9L7 9L7 8L6 8L6 9L5 9L5 10L3 10L3 9L4 9L4 8L3 8L3 9L2 9L2 10L3 10L3 12L4 12L4 11L7 11L7 12L5 12L5 14L6 14L6 15L7 15L7 16L5 16L5 15L4 15L4 14L3 14L3 13L2 13L2 14L1 14L1 13L0 13L0 14L1 14L1 16L3 16L3 18L1 18L1 17L0 17L0 23L3 23L3 24L4 24L4 27L3 27L3 28L4 28L4 27L7 27L7 28L6 28L6 29L7 29L7 30L6 30L6 31L5 31L5 33L7 33L7 32L11 32L11 33L14 33L14 32L12 32L12 31L13 31L13 30L14 30L14 31L15 31L15 32L16 32L16 33L17 33L17 32L18 32L18 31L17 31L17 29L16 29L16 27L17 27L17 28L18 28L18 27L20 27L20 28L21 28L21 27L20 27L20 26L18 26L18 27L17 27L17 25L16 25L16 24L17 24L17 22L18 22L18 24L19 24L19 23L20 23L20 21L21 21L21 22L22 22L22 27L23 27L23 28L22 28L22 29L21 29L21 30L19 30L19 29L18 29L18 30L19 30L19 32L20 32L20 33L19 33L19 34L18 34L18 35L16 35L16 34L14 34L14 35L13 35L13 36L11 36L11 34L9 34L9 33L8 33L8 34L9 34L9 35L10 35L10 36L9 36L9 37L8 37L8 38L10 38L10 39L9 39L9 41L10 41L10 40L11 40L11 41L12 41L12 39L13 39L13 41L14 41L14 40L15 40L15 41L18 41L18 40L19 40L19 39L20 39L20 37L17 37L17 36L18 36L18 35L20 35L20 36L21 36L21 37L22 37L22 38L23 38L23 40L22 40L22 41L24 41L24 39L25 39L25 40L26 40L26 41L28 41L28 40L29 40L29 41L30 41L30 40L31 40L31 41L33 41L33 40L34 40L34 39L32 39L32 37L33 37L33 38L35 38L35 37L36 37L36 39L35 39L35 41L40 41L40 39L41 39L41 38L40 38L40 39L39 39L39 37L40 37L40 36L41 36L41 35L40 35L40 34L41 34L41 33L40 33L40 32L37 32L37 30L38 30L38 29L37 29L37 30L36 30L36 31L35 31L35 32L32 32L32 33L31 33L31 34L30 34L30 32L31 32L31 30L30 30L30 31L29 31L29 29L30 29L30 27L31 27L31 26L32 26L32 28L34 28L34 27L36 27L36 26L34 26L34 25L35 25L35 24L34 24L34 23L35 23L35 22L36 22L36 19L37 19L37 20L38 20L38 21L37 21L37 22L38 22L38 21L39 21L39 23L38 23L38 25L37 25L37 26L38 26L38 25L39 25L39 26L40 26L40 27L39 27L39 29L40 29L40 30L39 30L39 31L41 31L41 29L40 29L40 28L41 28L41 26L40 26L40 25L41 25L41 24L39 24L39 23L40 23L40 22L41 22L41 20L40 20L40 21L39 21L39 20L38 20L38 19L37 19L37 18L39 18L39 19L41 19L41 17L40 17L40 18L39 18L39 17L37 17L37 18L36 18L36 19L35 19L35 17L36 17L36 15L37 15L37 16L38 16L38 15L37 15L37 14L38 14L38 12L39 12L39 13L40 13L40 12L39 12L39 11L40 11L40 10L39 10L39 9L41 9L41 8L39 8L39 9L38 9L38 8L35 8L35 9L32 9L32 10L30 10L30 9L29 9L29 8L33 8L33 5L31 5L31 4L32 4L32 3L33 3L33 2L32 2L32 3L31 3L31 2L29 2L29 0L27 0L27 1L26 1L26 0L24 0L24 1L23 1L23 0L17 0L17 1L16 1L16 2L17 2L17 3L18 3L18 4L16 4L16 3L15 3L15 0ZM30 0L30 1L31 1L31 0ZM19 1L19 2L18 2L18 3L19 3L19 2L20 2L20 3L21 3L21 4L20 4L20 5L19 5L19 7L18 7L18 5L15 5L15 7L16 7L16 8L14 8L14 6L13 6L13 7L12 7L12 6L11 6L11 4L10 4L10 6L9 6L9 7L10 7L10 6L11 6L11 8L12 8L12 9L11 9L11 10L10 10L10 14L8 14L8 16L7 16L7 17L6 17L6 18L7 18L7 19L5 19L5 17L4 17L4 19L1 19L1 22L2 22L2 21L3 21L3 23L4 23L4 24L5 24L5 25L6 25L6 26L9 26L9 25L11 25L11 24L10 24L10 22L8 22L8 20L11 20L11 23L13 23L13 24L12 24L12 25L13 25L13 26L12 26L12 27L11 27L11 26L10 26L10 27L11 27L11 28L12 28L12 27L13 27L13 29L14 29L14 30L16 30L16 29L14 29L14 28L15 28L15 26L14 26L14 25L15 25L15 24L14 24L14 23L15 23L15 22L16 22L16 21L17 21L17 20L18 20L18 21L19 21L19 19L20 19L20 18L21 18L21 16L22 16L22 18L23 18L23 16L22 16L22 15L23 15L23 14L22 14L22 13L23 13L23 12L22 12L22 10L24 10L24 9L26 9L26 8L27 8L27 10L25 10L25 11L24 11L24 12L25 12L25 13L24 13L24 14L25 14L25 15L28 15L28 16L24 16L24 18L25 18L25 17L27 17L27 19L26 19L26 20L23 20L23 19L21 19L21 20L22 20L22 22L23 22L23 23L24 23L24 21L25 21L25 23L26 23L26 25L25 25L25 26L24 26L24 28L23 28L23 30L21 30L21 31L22 31L22 33L21 33L21 34L20 34L20 35L21 35L21 34L22 34L22 33L23 33L23 35L22 35L22 37L23 37L23 38L24 38L24 37L23 37L23 35L24 35L24 36L25 36L25 37L26 37L26 38L25 38L25 39L26 39L26 38L27 38L27 39L29 39L29 37L30 37L30 34L29 34L29 33L27 33L27 32L29 32L29 31L27 31L27 29L26 29L26 30L25 30L25 31L26 31L26 32L25 32L25 33L24 33L24 31L23 31L23 30L24 30L24 28L25 28L25 26L27 26L27 27L26 27L26 28L27 28L27 27L28 27L28 26L29 26L29 27L30 27L30 26L31 26L31 24L33 24L33 22L34 22L34 20L32 20L32 21L31 21L31 19L34 19L34 18L33 18L33 17L35 17L35 16L33 16L33 15L35 15L35 13L34 13L34 12L36 12L36 14L37 14L37 12L38 12L38 11L37 11L37 12L36 12L36 11L32 11L32 14L31 14L31 15L32 15L32 16L33 16L33 17L32 17L32 18L31 18L31 16L29 16L29 15L30 15L30 14L27 14L27 13L26 13L26 12L27 12L27 11L28 11L28 13L29 13L29 12L30 12L30 13L31 13L31 12L30 12L30 10L28 10L28 6L29 6L29 7L30 7L30 6L29 6L29 3L28 3L28 6L27 6L27 7L26 7L26 6L25 6L25 8L24 8L24 5L23 5L23 4L25 4L25 3L24 3L24 2L25 2L25 1L24 1L24 2L23 2L23 1L22 1L22 2L21 2L21 1ZM26 2L26 3L27 3L27 2ZM22 3L22 4L23 4L23 3ZM30 3L30 4L31 4L31 3ZM20 5L20 7L19 7L19 8L23 8L23 6L22 6L22 5ZM16 6L16 7L17 7L17 8L16 8L16 9L14 9L14 11L13 11L13 12L14 12L14 13L15 13L15 12L18 12L18 13L16 13L16 14L15 14L15 15L14 15L14 16L15 16L15 17L14 17L14 18L15 18L15 17L16 17L16 16L17 16L17 17L18 17L18 18L19 18L19 17L20 17L20 16L21 16L21 14L19 14L19 11L20 11L20 12L21 12L21 13L22 13L22 12L21 12L21 9L18 9L18 7L17 7L17 6ZM21 6L21 7L22 7L22 6ZM31 6L31 7L32 7L32 6ZM12 9L12 10L13 10L13 9ZM16 9L16 10L15 10L15 11L16 11L16 10L17 10L17 9ZM35 9L35 10L37 10L37 9ZM0 10L0 12L2 12L2 11L1 11L1 10ZM18 10L18 11L19 11L19 10ZM11 13L11 14L10 14L10 15L9 15L9 16L8 16L8 18L9 18L9 17L10 17L10 15L12 15L12 16L11 16L11 17L13 17L13 13ZM2 14L2 15L3 15L3 14ZM18 14L18 15L17 15L17 16L18 16L18 15L19 15L19 16L20 16L20 15L19 15L19 14ZM39 14L39 16L40 16L40 15L41 15L41 14ZM28 16L28 17L29 17L29 19L30 19L30 17L29 17L29 16ZM12 18L12 19L11 19L11 20L12 20L12 22L13 22L13 20L14 20L14 19L13 19L13 18ZM16 18L16 19L15 19L15 20L17 20L17 18ZM7 19L7 20L4 20L4 22L5 22L5 23L7 23L7 24L6 24L6 25L9 25L9 24L8 24L8 22L5 22L5 21L7 21L7 20L8 20L8 19ZM27 19L27 21L26 21L26 22L27 22L27 21L28 21L28 23L27 23L27 24L28 24L28 25L29 25L29 26L30 26L30 24L31 24L31 23L32 23L32 22L33 22L33 21L32 21L32 22L30 22L30 20L29 20L29 21L28 21L28 19ZM14 21L14 22L15 22L15 21ZM29 23L29 24L30 24L30 23ZM36 23L36 24L37 24L37 23ZM0 24L0 26L1 26L1 27L0 27L0 29L2 29L2 28L1 28L1 27L2 27L2 26L1 26L1 25L2 25L2 24ZM13 24L13 25L14 25L14 24ZM23 24L23 25L24 25L24 24ZM13 26L13 27L14 27L14 26ZM33 26L33 27L34 27L34 26ZM7 28L7 29L8 29L8 31L11 31L11 30L12 30L12 29L11 29L11 30L10 30L10 28ZM28 28L28 29L29 29L29 28ZM35 28L35 29L34 29L34 30L33 30L33 29L32 29L32 31L34 31L34 30L35 30L35 29L36 29L36 28ZM3 29L3 30L4 30L4 29ZM0 30L0 31L1 31L1 30ZM6 31L6 32L7 32L7 31ZM0 32L0 33L1 33L1 32ZM25 33L25 36L26 36L26 35L27 35L27 33ZM33 33L33 36L36 36L36 33ZM37 33L37 37L39 37L39 36L40 36L40 35L39 35L39 34L40 34L40 33L39 33L39 34L38 34L38 33ZM28 34L28 37L29 37L29 34ZM31 34L31 35L32 35L32 34ZM34 34L34 35L35 35L35 34ZM14 35L14 36L16 36L16 35ZM38 35L38 36L39 36L39 35ZM31 36L31 37L32 37L32 36ZM11 37L11 39L12 39L12 38L13 38L13 39L15 39L15 40L18 40L18 38L17 38L17 39L16 39L16 37L14 37L14 38L13 38L13 37ZM37 38L37 39L36 39L36 40L39 40L39 39L38 39L38 38ZM0 0L0 7L7 7L7 0ZM1 1L1 6L6 6L6 1ZM2 2L2 5L5 5L5 2ZM34 0L34 7L41 7L41 0ZM35 1L35 6L40 6L40 1ZM36 2L36 5L39 5L39 2ZM0 34L0 41L7 41L7 34ZM1 35L1 40L6 40L6 35ZM2 36L2 39L5 39L5 36Z" fill="#000000"/></g></g></svg>
